solid OpenSCAD_Model
  facet normal 1 0 0
    outer loop
      vertex 5.9 1.199 4
      vertex 5.9 0 4
      vertex 5.9 1.199 3.049
    endloop
  endfacet
  facet normal 1 0 0
    outer loop
      vertex 5.9 1.6575 3.049
      vertex 5.9 1.199 3.049
      vertex 5.9 1.6575 2.75
    endloop
  endfacet
  facet normal 1 0 0
    outer loop
      vertex 5.9 2.9275 3.049
      vertex 5.9 2.2925 3.049
      vertex 5.9 2.9275 2.75
    endloop
  endfacet
  facet normal 1 0 0
    outer loop
      vertex 5.9 4.1975 3.049
      vertex 5.9 3.5625 3.049
      vertex 5.9 4.1975 2.75
    endloop
  endfacet
  facet normal 1 0 0
    outer loop
      vertex 5.9 5.4675 3.049
      vertex 5.9 4.8325 3.049
      vertex 5.9 5.4675 2.75
    endloop
  endfacet
  facet normal 1 0 0
    outer loop
      vertex 5.9 6.7375 3.049
      vertex 5.9 6.1025 3.049
      vertex 5.9 6.7375 2.75
    endloop
  endfacet
  facet normal 1 0 0
    outer loop
      vertex 5.9 8.0075 3.049
      vertex 5.9 7.3725 3.049
      vertex 5.9 8.0075 2.75
    endloop
  endfacet
  facet normal 1 0 0
    outer loop
      vertex 5.9 9.101 3.049
      vertex 5.9 10.3 4
      vertex 5.9 9.101 4
    endloop
  endfacet
  facet normal 1 0 0
    outer loop
      vertex 5.9 10.3 4
      vertex 5.9 9.101 3.049
      vertex 5.9 10.3 0
    endloop
  endfacet
  facet normal 1 0 0
    outer loop
      vertex 5.9 8.6425 2.75
      vertex 5.9 9.101 3.049
      vertex 5.9 8.6425 3.049
    endloop
  endfacet
  facet normal 1 0 0
    outer loop
      vertex 5.9 9.101 3.049
      vertex 5.9 8.6425 2.75
      vertex 5.9 10.3 0
    endloop
  endfacet
  facet normal 1 -0 0
    outer loop
      vertex 5.9 8.0075 2.75
      vertex 5.9 10.3 0
      vertex 5.9 8.6425 2.75
    endloop
  endfacet
  facet normal 1 0 0
    outer loop
      vertex 5.9 7.3725 2.75
      vertex 5.9 8.0075 2.75
      vertex 5.9 7.3725 3.049
    endloop
  endfacet
  facet normal 1 0 0
    outer loop
      vertex 5.9 8.0075 2.75
      vertex 5.9 7.3725 2.75
      vertex 5.9 10.3 0
    endloop
  endfacet
  facet normal 1 -0 0
    outer loop
      vertex 5.9 6.7375 2.75
      vertex 5.9 10.3 0
      vertex 5.9 7.3725 2.75
    endloop
  endfacet
  facet normal 1 0 0
    outer loop
      vertex 5.9 6.1025 2.75
      vertex 5.9 6.7375 2.75
      vertex 5.9 6.1025 3.049
    endloop
  endfacet
  facet normal 1 0 0
    outer loop
      vertex 5.9 6.7375 2.75
      vertex 5.9 6.1025 2.75
      vertex 5.9 10.3 0
    endloop
  endfacet
  facet normal 1 -0 0
    outer loop
      vertex 5.9 5.4675 2.75
      vertex 5.9 10.3 0
      vertex 5.9 6.1025 2.75
    endloop
  endfacet
  facet normal 1 0 0
    outer loop
      vertex 5.9 4.8325 2.75
      vertex 5.9 5.4675 2.75
      vertex 5.9 4.8325 3.049
    endloop
  endfacet
  facet normal 1 0 0
    outer loop
      vertex 5.9 5.4675 2.75
      vertex 5.9 4.8325 2.75
      vertex 5.9 10.3 0
    endloop
  endfacet
  facet normal 1 0 0
    outer loop
      vertex 5.9 0 0
      vertex 5.9 4.8325 2.75
      vertex 5.9 4.1975 2.75
    endloop
  endfacet
  facet normal 1 0 0
    outer loop
      vertex 5.9 3.5625 2.75
      vertex 5.9 4.1975 2.75
      vertex 5.9 3.5625 3.049
    endloop
  endfacet
  facet normal 1 0 0
    outer loop
      vertex 5.9 0 0
      vertex 5.9 4.1975 2.75
      vertex 5.9 3.5625 2.75
    endloop
  endfacet
  facet normal 1 0 0
    outer loop
      vertex 5.9 0 0
      vertex 5.9 3.5625 2.75
      vertex 5.9 2.9275 2.75
    endloop
  endfacet
  facet normal 1 0 0
    outer loop
      vertex 5.9 2.2925 2.75
      vertex 5.9 2.9275 2.75
      vertex 5.9 2.2925 3.049
    endloop
  endfacet
  facet normal 1 0 0
    outer loop
      vertex 5.9 0 0
      vertex 5.9 2.9275 2.75
      vertex 5.9 2.2925 2.75
    endloop
  endfacet
  facet normal 1 0 0
    outer loop
      vertex 5.9 0 0
      vertex 5.9 2.2925 2.75
      vertex 5.9 1.6575 2.75
    endloop
  endfacet
  facet normal 1 0 0
    outer loop
      vertex 5.9 4.8325 2.75
      vertex 5.9 0 0
      vertex 5.9 10.3 0
    endloop
  endfacet
  facet normal 1 0 0
    outer loop
      vertex 5.9 1.199 3.049
      vertex 5.9 0 0
      vertex 5.9 1.6575 2.75
    endloop
  endfacet
  facet normal 1 0 0
    outer loop
      vertex 5.9 0 0
      vertex 5.9 1.199 3.049
      vertex 5.9 0 4
    endloop
  endfacet
  facet normal 0 0 1
    outer loop
      vertex 3.5 10.3 4
      vertex 0.00499916 10.3 4
      vertex 3.5 10.099 4
    endloop
  endfacet
  facet normal 0 0 1
    outer loop
      vertex 4.3 10.099 4
      vertex 5.9 10.3 4
      vertex 4.3 10.3 4
    endloop
  endfacet
  facet normal 0 0 1
    outer loop
      vertex 5.9 10.3 4
      vertex 4.3 10.099 4
      vertex 5.9 9.101 4
    endloop
  endfacet
  facet normal -0 0 1
    outer loop
      vertex 3.5 10.099 4
      vertex 5.9 9.101 4
      vertex 4.3 10.099 4
    endloop
  endfacet
  facet normal 0 0 1
    outer loop
      vertex 0.00499916 9.101 4
      vertex 3.5 10.099 4
      vertex 0.00499916 10.3 4
    endloop
  endfacet
  facet normal 0 0 1
    outer loop
      vertex 3.5 10.099 4
      vertex 0.00499916 9.101 4
      vertex 5.9 9.101 4
    endloop
  endfacet
  facet normal 0 0 1
    outer loop
      vertex 5.9 1.199 4
      vertex 4.3 0.200999 4
      vertex 5.9 0 4
    endloop
  endfacet
  facet normal 0 0 1
    outer loop
      vertex 5.9 1.199 4
      vertex 3.5 0.200999 4
      vertex 4.3 0.200999 4
    endloop
  endfacet
  facet normal -0 0 1
    outer loop
      vertex 0.00499916 1.199 4
      vertex 3.5 0.200999 4
      vertex 5.9 1.199 4
    endloop
  endfacet
  facet normal 0 0 1
    outer loop
      vertex 0.00499916 0 4
      vertex 3.5 0.200999 4
      vertex 0.00499916 1.199 4
    endloop
  endfacet
  facet normal 0 0 1
    outer loop
      vertex 3.5 0.200999 4
      vertex 0.00499916 0 4
      vertex 3.5 0 4
    endloop
  endfacet
  facet normal 0 0 1
    outer loop
      vertex 5.9 0 4
      vertex 4.3 0.200999 4
      vertex 4.3 0 4
    endloop
  endfacet
  facet normal 0 0 -1
    outer loop
      vertex -7.799 -1.8 0
      vertex 0.00299931 0 0
      vertex 0.00299931 -1.8 0
    endloop
  endfacet
  facet normal -0 0 -1
    outer loop
      vertex 0.00299931 0 0
      vertex -7.799 -1.8 0
      vertex 0.00299931 10.3 0
    endloop
  endfacet
  facet normal 0 0 -1
    outer loop
      vertex -7.799 12.1 0
      vertex 0.00299931 10.3 0
      vertex -7.799 -1.8 0
    endloop
  endfacet
  facet normal 0 0 -1
    outer loop
      vertex 0.00299931 10.3 0
      vertex -7.799 12.1 0
      vertex 0.00299931 12.1 0
    endloop
  endfacet
  facet normal 0 0 -1
    outer loop
      vertex 0.00299931 0 0
      vertex 3.5 0.200999 0
      vertex 3.5 0 0
    endloop
  endfacet
  facet normal -0 0 -1
    outer loop
      vertex 3.5 0.200999 0
      vertex 0.00299931 0 0
      vertex 3.5 10.099 0
    endloop
  endfacet
  facet normal 0 0 -1
    outer loop
      vertex 0.00299931 10.3 0
      vertex 3.5 10.099 0
      vertex 0.00299931 0 0
    endloop
  endfacet
  facet normal 0 0 -1
    outer loop
      vertex 3.5 10.099 0
      vertex 0.00299931 10.3 0
      vertex 3.5 10.3 0
    endloop
  endfacet
  facet normal 0 0 -1
    outer loop
      vertex 3.5 0.200999 0
      vertex 4.3 10.099 0
      vertex 4.3 0.200999 0
    endloop
  endfacet
  facet normal -0 0 -1
    outer loop
      vertex 4.3 10.099 0
      vertex 3.5 0.200999 0
      vertex 3.5 10.099 0
    endloop
  endfacet
  facet normal 0 0 -1
    outer loop
      vertex 4.3 0.200999 0
      vertex 5.9 0 0
      vertex 4.3 0 0
    endloop
  endfacet
  facet normal 0 0 -1
    outer loop
      vertex 5.9 0 0
      vertex 4.3 0.200999 0
      vertex 5.9 10.3 0
    endloop
  endfacet
  facet normal 0 0 -1
    outer loop
      vertex 4.3 10.099 0
      vertex 5.9 10.3 0
      vertex 4.3 0.200999 0
    endloop
  endfacet
  facet normal -0 0 -1
    outer loop
      vertex 5.9 10.3 0
      vertex 4.3 10.099 0
      vertex 4.3 10.3 0
    endloop
  endfacet
  facet normal 0 1 -0
    outer loop
      vertex 5.9 10.3 0
      vertex 4.3 10.3 4
      vertex 5.9 10.3 4
    endloop
  endfacet
  facet normal 0 1 0
    outer loop
      vertex 4.3 10.3 4
      vertex 5.9 10.3 0
      vertex 4.3 10.3 0
    endloop
  endfacet
  facet normal 0 1 0
    outer loop
      vertex 3.5 10.3 4
      vertex 0.00499916 10.3 3.999
      vertex 0.00499916 10.3 4
    endloop
  endfacet
  facet normal 0 1 -0
    outer loop
      vertex 3.5 10.3 0
      vertex 0.00499916 10.3 3.999
      vertex 3.5 10.3 4
    endloop
  endfacet
  facet normal 0 1 0
    outer loop
      vertex 0.00299931 10.3 0
      vertex 0.00499916 10.3 3.999
      vertex 3.5 10.3 0
    endloop
  endfacet
  facet normal 0 1 0
    outer loop
      vertex 0.00499916 10.3 3.999
      vertex 0.00299931 10.3 0
      vertex 0.00299931 10.3 3.999
    endloop
  endfacet
  facet normal 0 -1 0
    outer loop
      vertex 4.3 0 0
      vertex 5.9 0 4
      vertex 4.3 0 4
    endloop
  endfacet
  facet normal 0 -1 -0
    outer loop
      vertex 5.9 0 4
      vertex 4.3 0 0
      vertex 5.9 0 0
    endloop
  endfacet
  facet normal 0 -1 0
    outer loop
      vertex 0.00299931 0 3.999
      vertex 0.00299931 0 0
      vertex 0.00499916 0 3.999
    endloop
  endfacet
  facet normal 0 -1 0
    outer loop
      vertex 0.00499916 0 3.999
      vertex 3.5 0 4
      vertex 0.00499916 0 4
    endloop
  endfacet
  facet normal 0 -1 0
    outer loop
      vertex 0.00299931 0 0
      vertex 3.5 0 4
      vertex 0.00499916 0 3.999
    endloop
  endfacet
  facet normal 0 -1 -0
    outer loop
      vertex 3.5 0 4
      vertex 0.00299931 0 0
      vertex 3.5 0 0
    endloop
  endfacet
  facet normal 1 -0 0
    outer loop
      vertex 0.00299931 10.3 3.999
      vertex 0.00299931 12.1 0
      vertex 0.00299931 12.1 3.999
    endloop
  endfacet
  facet normal 1 0 0
    outer loop
      vertex 0.00299931 12.1 0
      vertex 0.00299931 10.3 3.999
      vertex 0.00299931 10.3 0
    endloop
  endfacet
  facet normal 1 -0 0
    outer loop
      vertex 0.00299931 -1.8 3.999
      vertex 0.00299931 0 0
      vertex 0.00299931 0 3.999
    endloop
  endfacet
  facet normal 1 0 0
    outer loop
      vertex 0.00299931 0 0
      vertex 0.00299931 -1.8 3.999
      vertex 0.00299931 -1.8 0
    endloop
  endfacet
  facet normal -1 0 0
    outer loop
      vertex -7.799 12.1 0
      vertex -7.799 8.96 1.525
      vertex -7.799 12.1 3.999
    endloop
  endfacet
  facet normal -1 0 0
    outer loop
      vertex -7.799 12.1 0
      vertex -7.799 1.34 1.525
      vertex -7.799 8.96 1.525
    endloop
  endfacet
  facet normal -1 0 0
    outer loop
      vertex -7.799 -1.8 0
      vertex -7.799 1.34 1.525
      vertex -7.799 12.1 0
    endloop
  endfacet
  facet normal -1 0 0
    outer loop
      vertex -7.799 -1.8 3.999
      vertex -7.799 1.34 1.525
      vertex -7.799 -1.8 0
    endloop
  endfacet
  facet normal -1 0 0
    outer loop
      vertex -7.799 1.34 1.525
      vertex -7.799 -1.8 3.999
      vertex -7.799 1.34 3.999
    endloop
  endfacet
  facet normal -1 -0 0
    outer loop
      vertex -7.799 12.1 3.999
      vertex -7.799 8.96 1.525
      vertex -7.799 8.96 3.999
    endloop
  endfacet
  facet normal 0 1 0
    outer loop
      vertex 0.00299931 12.1 3.999
      vertex -1.925 12.1 0.975
      vertex -1.925 12.1 3.999
    endloop
  endfacet
  facet normal 0 1 0
    outer loop
      vertex -1.925 12.1 0.975
      vertex 0.00299931 12.1 0
      vertex -5.875 12.1 0.975
    endloop
  endfacet
  facet normal 0 1 -0
    outer loop
      vertex 0.00299931 12.1 0
      vertex -1.925 12.1 0.975
      vertex 0.00299931 12.1 3.999
    endloop
  endfacet
  facet normal 0 1 -0
    outer loop
      vertex -5.875 12.1 0.975
      vertex -7.799 12.1 3.999
      vertex -5.875 12.1 3.999
    endloop
  endfacet
  facet normal 0 1 0
    outer loop
      vertex -5.875 12.1 0.975
      vertex -7.799 12.1 0
      vertex -7.799 12.1 3.999
    endloop
  endfacet
  facet normal 0 1 0
    outer loop
      vertex -7.799 12.1 0
      vertex -5.875 12.1 0.975
      vertex 0.00299931 12.1 0
    endloop
  endfacet
  facet normal 0 -1 0
    outer loop
      vertex -7.799 -1.8 3.999
      vertex -5.875 -1.8 0.975
      vertex -5.875 -1.8 3.999
    endloop
  endfacet
  facet normal 0 -1 -0
    outer loop
      vertex -5.875 -1.8 0.975
      vertex -7.799 -1.8 0
      vertex -1.925 -1.8 0.975
    endloop
  endfacet
  facet normal 0 -1 0
    outer loop
      vertex -7.799 -1.8 0
      vertex -5.875 -1.8 0.975
      vertex -7.799 -1.8 3.999
    endloop
  endfacet
  facet normal 0 -1 0
    outer loop
      vertex -1.925 -1.8 0.975
      vertex 0.00299931 -1.8 3.999
      vertex -1.925 -1.8 3.999
    endloop
  endfacet
  facet normal 0 -1 0
    outer loop
      vertex -1.925 -1.8 0.975
      vertex 0.00299931 -1.8 0
      vertex 0.00299931 -1.8 3.999
    endloop
  endfacet
  facet normal 0 -1 0
    outer loop
      vertex 0.00299931 -1.8 0
      vertex -1.925 -1.8 0.975
      vertex -7.799 -1.8 0
    endloop
  endfacet
  facet normal -0 0 1
    outer loop
      vertex -2.5 2.2925 2.75
      vertex 5.9 1.6575 2.75
      vertex 5.9 2.2925 2.75
    endloop
  endfacet
  facet normal 0 0 1
    outer loop
      vertex 5.9 1.6575 2.75
      vertex -2.5 2.2925 2.75
      vertex -2.5 1.6575 2.75
    endloop
  endfacet
  facet normal 0 -1 0
    outer loop
      vertex -2.5 2.2925 2.75
      vertex 5.9 2.2925 3.049
      vertex -2.5 2.2925 3.049
    endloop
  endfacet
  facet normal 0 -1 -0
    outer loop
      vertex 5.9 2.2925 3.049
      vertex -2.5 2.2925 2.75
      vertex 5.9 2.2925 2.75
    endloop
  endfacet
  facet normal 0 1 -0
    outer loop
      vertex 5.9 1.6575 2.75
      vertex -2.5 1.6575 3.049
      vertex 5.9 1.6575 3.049
    endloop
  endfacet
  facet normal 0 1 0
    outer loop
      vertex -2.5 1.6575 3.049
      vertex 5.9 1.6575 2.75
      vertex -2.5 1.6575 2.75
    endloop
  endfacet
  facet normal -0 0 1
    outer loop
      vertex -2.5 3.5625 2.75
      vertex 5.9 2.9275 2.75
      vertex 5.9 3.5625 2.75
    endloop
  endfacet
  facet normal 0 0 1
    outer loop
      vertex 5.9 2.9275 2.75
      vertex -2.5 3.5625 2.75
      vertex -2.5 2.9275 2.75
    endloop
  endfacet
  facet normal 0 -1 0
    outer loop
      vertex -2.5 3.5625 2.75
      vertex 5.9 3.5625 3.049
      vertex -2.5 3.5625 3.049
    endloop
  endfacet
  facet normal 0 -1 -0
    outer loop
      vertex 5.9 3.5625 3.049
      vertex -2.5 3.5625 2.75
      vertex 5.9 3.5625 2.75
    endloop
  endfacet
  facet normal 0 1 -0
    outer loop
      vertex 5.9 2.9275 2.75
      vertex -2.5 2.9275 3.049
      vertex 5.9 2.9275 3.049
    endloop
  endfacet
  facet normal 0 1 0
    outer loop
      vertex -2.5 2.9275 3.049
      vertex 5.9 2.9275 2.75
      vertex -2.5 2.9275 2.75
    endloop
  endfacet
  facet normal -0 0 1
    outer loop
      vertex -2.5 4.8325 2.75
      vertex 5.9 4.1975 2.75
      vertex 5.9 4.8325 2.75
    endloop
  endfacet
  facet normal 0 0 1
    outer loop
      vertex 5.9 4.1975 2.75
      vertex -2.5 4.8325 2.75
      vertex -2.5 4.1975 2.75
    endloop
  endfacet
  facet normal 0 -1 0
    outer loop
      vertex -2.5 4.8325 2.75
      vertex 5.9 4.8325 3.049
      vertex -2.5 4.8325 3.049
    endloop
  endfacet
  facet normal 0 -1 -0
    outer loop
      vertex 5.9 4.8325 3.049
      vertex -2.5 4.8325 2.75
      vertex 5.9 4.8325 2.75
    endloop
  endfacet
  facet normal 0 1 -0
    outer loop
      vertex 5.9 4.1975 2.75
      vertex -2.5 4.1975 3.049
      vertex 5.9 4.1975 3.049
    endloop
  endfacet
  facet normal 0 1 0
    outer loop
      vertex -2.5 4.1975 3.049
      vertex 5.9 4.1975 2.75
      vertex -2.5 4.1975 2.75
    endloop
  endfacet
  facet normal -0 0 1
    outer loop
      vertex -2.5 6.1025 2.75
      vertex 5.9 5.4675 2.75
      vertex 5.9 6.1025 2.75
    endloop
  endfacet
  facet normal 0 0 1
    outer loop
      vertex 5.9 5.4675 2.75
      vertex -2.5 6.1025 2.75
      vertex -2.5 5.4675 2.75
    endloop
  endfacet
  facet normal 0 -1 0
    outer loop
      vertex -2.5 6.1025 2.75
      vertex 5.9 6.1025 3.049
      vertex -2.5 6.1025 3.049
    endloop
  endfacet
  facet normal 0 -1 -0
    outer loop
      vertex 5.9 6.1025 3.049
      vertex -2.5 6.1025 2.75
      vertex 5.9 6.1025 2.75
    endloop
  endfacet
  facet normal 0 1 -0
    outer loop
      vertex 5.9 5.4675 2.75
      vertex -2.5 5.4675 3.049
      vertex 5.9 5.4675 3.049
    endloop
  endfacet
  facet normal 0 1 0
    outer loop
      vertex -2.5 5.4675 3.049
      vertex 5.9 5.4675 2.75
      vertex -2.5 5.4675 2.75
    endloop
  endfacet
  facet normal -0 0 1
    outer loop
      vertex -2.5 7.3725 2.75
      vertex 5.9 6.7375 2.75
      vertex 5.9 7.3725 2.75
    endloop
  endfacet
  facet normal 0 0 1
    outer loop
      vertex 5.9 6.7375 2.75
      vertex -2.5 7.3725 2.75
      vertex -2.5 6.7375 2.75
    endloop
  endfacet
  facet normal 0 -1 0
    outer loop
      vertex -2.5 7.3725 2.75
      vertex 5.9 7.3725 3.049
      vertex -2.5 7.3725 3.049
    endloop
  endfacet
  facet normal 0 -1 -0
    outer loop
      vertex 5.9 7.3725 3.049
      vertex -2.5 7.3725 2.75
      vertex 5.9 7.3725 2.75
    endloop
  endfacet
  facet normal 0 1 -0
    outer loop
      vertex 5.9 6.7375 2.75
      vertex -2.5 6.7375 3.049
      vertex 5.9 6.7375 3.049
    endloop
  endfacet
  facet normal 0 1 0
    outer loop
      vertex -2.5 6.7375 3.049
      vertex 5.9 6.7375 2.75
      vertex -2.5 6.7375 2.75
    endloop
  endfacet
  facet normal -0 0 1
    outer loop
      vertex -2.5 8.6425 2.75
      vertex 5.9 8.0075 2.75
      vertex 5.9 8.6425 2.75
    endloop
  endfacet
  facet normal 0 0 1
    outer loop
      vertex 5.9 8.0075 2.75
      vertex -2.5 8.6425 2.75
      vertex -2.5 8.0075 2.75
    endloop
  endfacet
  facet normal 0 -1 0
    outer loop
      vertex -2.5 8.6425 2.75
      vertex 5.9 8.6425 3.049
      vertex -2.5 8.6425 3.049
    endloop
  endfacet
  facet normal 0 -1 -0
    outer loop
      vertex 5.9 8.6425 3.049
      vertex -2.5 8.6425 2.75
      vertex 5.9 8.6425 2.75
    endloop
  endfacet
  facet normal 0 1 -0
    outer loop
      vertex 5.9 8.0075 2.75
      vertex -2.5 8.0075 3.049
      vertex 5.9 8.0075 3.049
    endloop
  endfacet
  facet normal 0 1 0
    outer loop
      vertex -2.5 8.0075 3.049
      vertex 5.9 8.0075 2.75
      vertex -2.5 8.0075 2.75
    endloop
  endfacet
  facet normal -1 0 0
    outer loop
      vertex 4.3 0 0
      vertex 4.3 0.200999 4
      vertex 4.3 0.200999 0
    endloop
  endfacet
  facet normal -1 -0 0
    outer loop
      vertex 4.3 0.200999 4
      vertex 4.3 0 0
      vertex 4.3 0 4
    endloop
  endfacet
  facet normal 1 -0 0
    outer loop
      vertex 3.5 0 4
      vertex 3.5 0.200999 0
      vertex 3.5 0.200999 4
    endloop
  endfacet
  facet normal 1 0 0
    outer loop
      vertex 3.5 0.200999 0
      vertex 3.5 0 4
      vertex 3.5 0 0
    endloop
  endfacet
  facet normal 0 -1 0
    outer loop
      vertex 3.5 0.200999 0
      vertex 4.3 0.200999 4
      vertex 3.5 0.200999 4
    endloop
  endfacet
  facet normal 0 -1 -0
    outer loop
      vertex 4.3 0.200999 4
      vertex 3.5 0.200999 0
      vertex 4.3 0.200999 0
    endloop
  endfacet
  facet normal -1 0 0
    outer loop
      vertex 4.3 10.099 0
      vertex 4.3 10.3 4
      vertex 4.3 10.3 0
    endloop
  endfacet
  facet normal -1 -0 0
    outer loop
      vertex 4.3 10.3 4
      vertex 4.3 10.099 0
      vertex 4.3 10.099 4
    endloop
  endfacet
  facet normal 1 -0 0
    outer loop
      vertex 3.5 10.099 4
      vertex 3.5 10.3 0
      vertex 3.5 10.3 4
    endloop
  endfacet
  facet normal 1 0 0
    outer loop
      vertex 3.5 10.3 0
      vertex 3.5 10.099 4
      vertex 3.5 10.099 0
    endloop
  endfacet
  facet normal 0 1 -0
    outer loop
      vertex 4.3 10.099 0
      vertex 3.5 10.099 4
      vertex 4.3 10.099 4
    endloop
  endfacet
  facet normal 0 1 0
    outer loop
      vertex 3.5 10.099 4
      vertex 4.3 10.099 0
      vertex 3.5 10.099 0
    endloop
  endfacet
  facet normal 0 0 1
    outer loop
      vertex 5.9 1.6575 3.049
      vertex -0.000999451 1.499 3.049
      vertex 5.9 1.199 3.049
    endloop
  endfacet
  facet normal -0 0 1
    outer loop
      vertex -2.5 1.6575 3.049
      vertex -0.000999451 1.499 3.049
      vertex 5.9 1.6575 3.049
    endloop
  endfacet
  facet normal 0 0 1
    outer loop
      vertex -0.000999451 1.499 3.049
      vertex -2.5 1.6575 3.049
      vertex -2.5 1.499 3.049
    endloop
  endfacet
  facet normal 0 0 1
    outer loop
      vertex 5.9 1.199 3.049
      vertex -0.000999451 1.499 3.049
      vertex -0.000999451 1.199 3.049
    endloop
  endfacet
  facet normal 0 0 1
    outer loop
      vertex -0.000999451 8.801 3.049
      vertex 5.9 9.101 3.049
      vertex -0.000999451 9.101 3.049
    endloop
  endfacet
  facet normal 0 0 1
    outer loop
      vertex 5.9 9.101 3.049
      vertex -0.000999451 8.801 3.049
      vertex 5.9 8.6425 3.049
    endloop
  endfacet
  facet normal 0 0 1
    outer loop
      vertex -2.5 8.6425 3.049
      vertex -0.000999451 8.801 3.049
      vertex -2.5 8.801 3.049
    endloop
  endfacet
  facet normal 0 0 1
    outer loop
      vertex -0.000999451 8.801 3.049
      vertex -2.5 8.6425 3.049
      vertex 5.9 8.6425 3.049
    endloop
  endfacet
  facet normal -0 0 1
    outer loop
      vertex -2.5 2.9275 3.049
      vertex 5.9 2.2925 3.049
      vertex 5.9 2.9275 3.049
    endloop
  endfacet
  facet normal 0 0 1
    outer loop
      vertex 5.9 2.2925 3.049
      vertex -2.5 2.9275 3.049
      vertex -2.5 2.2925 3.049
    endloop
  endfacet
  facet normal -0 0 1
    outer loop
      vertex -2.5 4.1975 3.049
      vertex 5.9 3.5625 3.049
      vertex 5.9 4.1975 3.049
    endloop
  endfacet
  facet normal 0 0 1
    outer loop
      vertex 5.9 3.5625 3.049
      vertex -2.5 4.1975 3.049
      vertex -2.5 3.5625 3.049
    endloop
  endfacet
  facet normal -0 0 1
    outer loop
      vertex -2.5 5.4675 3.049
      vertex 5.9 4.8325 3.049
      vertex 5.9 5.4675 3.049
    endloop
  endfacet
  facet normal 0 0 1
    outer loop
      vertex 5.9 4.8325 3.049
      vertex -2.5 5.4675 3.049
      vertex -2.5 4.8325 3.049
    endloop
  endfacet
  facet normal -0 0 1
    outer loop
      vertex -2.5 6.7375 3.049
      vertex 5.9 6.1025 3.049
      vertex 5.9 6.7375 3.049
    endloop
  endfacet
  facet normal 0 0 1
    outer loop
      vertex 5.9 6.1025 3.049
      vertex -2.5 6.7375 3.049
      vertex -2.5 6.1025 3.049
    endloop
  endfacet
  facet normal -0 0 1
    outer loop
      vertex -2.5 8.0075 3.049
      vertex 5.9 7.3725 3.049
      vertex 5.9 8.0075 3.049
    endloop
  endfacet
  facet normal 0 0 1
    outer loop
      vertex 5.9 7.3725 3.049
      vertex -2.5 8.0075 3.049
      vertex -2.5 7.3725 3.049
    endloop
  endfacet
  facet normal 1 -0 0
    outer loop
      vertex -0.000999451 1.199 3.999
      vertex -0.000999451 1.499 3.049
      vertex -0.000999451 1.499 3.999
    endloop
  endfacet
  facet normal 1 0 0
    outer loop
      vertex -0.000999451 1.499 3.049
      vertex -0.000999451 1.199 3.999
      vertex -0.000999451 1.199 3.049
    endloop
  endfacet
  facet normal 1 -0 0
    outer loop
      vertex -0.000999451 8.801 3.999
      vertex -0.000999451 9.101 3.049
      vertex -0.000999451 9.101 3.999
    endloop
  endfacet
  facet normal 1 0 0
    outer loop
      vertex -0.000999451 9.101 3.049
      vertex -0.000999451 8.801 3.999
      vertex -0.000999451 8.801 3.049
    endloop
  endfacet
  facet normal 0 -1 0
    outer loop
      vertex -0.000999451 9.101 3.999
      vertex -0.000999451 9.101 3.049
      vertex 0.00499916 9.101 3.999
    endloop
  endfacet
  facet normal 0 -1 0
    outer loop
      vertex 0.00499916 9.101 3.999
      vertex 5.9 9.101 4
      vertex 0.00499916 9.101 4
    endloop
  endfacet
  facet normal 0 -1 0
    outer loop
      vertex -0.000999451 9.101 3.049
      vertex 5.9 9.101 4
      vertex 0.00499916 9.101 3.999
    endloop
  endfacet
  facet normal 0 -1 -0
    outer loop
      vertex 5.9 9.101 4
      vertex -0.000999451 9.101 3.049
      vertex 5.9 9.101 3.049
    endloop
  endfacet
  facet normal 0 1 0
    outer loop
      vertex 5.9 1.199 4
      vertex 0.00499916 1.199 3.999
      vertex 0.00499916 1.199 4
    endloop
  endfacet
  facet normal 0 1 -0
    outer loop
      vertex 5.9 1.199 3.049
      vertex 0.00499916 1.199 3.999
      vertex 5.9 1.199 4
    endloop
  endfacet
  facet normal 0 1 0
    outer loop
      vertex -0.000999451 1.199 3.049
      vertex 0.00499916 1.199 3.999
      vertex 5.9 1.199 3.049
    endloop
  endfacet
  facet normal 0 1 0
    outer loop
      vertex 0.00499916 1.199 3.999
      vertex -0.000999451 1.199 3.049
      vertex -0.000999451 1.199 3.999
    endloop
  endfacet
  facet normal -1 0 0
    outer loop
      vertex -2.5 8.96 1.525
      vertex -2.5 8.801 3.049
      vertex -2.5 8.96 3.999
    endloop
  endfacet
  facet normal -1 0 0
    outer loop
      vertex -2.5 8.96 1.525
      vertex -2.5 8.6425 2.75
      vertex -2.5 8.801 3.049
    endloop
  endfacet
  facet normal -1 0 0
    outer loop
      vertex -2.5 8.96 1.525
      vertex -2.5 8.0075 2.75
      vertex -2.5 8.6425 2.75
    endloop
  endfacet
  facet normal -1 0 0
    outer loop
      vertex -2.5 8.0075 2.75
      vertex -2.5 7.3725 2.75
      vertex -2.5 8.0075 3.049
    endloop
  endfacet
  facet normal -1 0 0
    outer loop
      vertex -2.5 8.96 1.525
      vertex -2.5 7.3725 2.75
      vertex -2.5 8.0075 2.75
    endloop
  endfacet
  facet normal -1 0 0
    outer loop
      vertex -2.5 8.96 1.525
      vertex -2.5 6.7375 2.75
      vertex -2.5 7.3725 2.75
    endloop
  endfacet
  facet normal -1 0 0
    outer loop
      vertex -2.5 6.7375 2.75
      vertex -2.5 6.1025 2.75
      vertex -2.5 6.7375 3.049
    endloop
  endfacet
  facet normal -1 0 0
    outer loop
      vertex -2.5 8.96 1.525
      vertex -2.5 6.1025 2.75
      vertex -2.5 6.7375 2.75
    endloop
  endfacet
  facet normal -1 0 0
    outer loop
      vertex -2.5 8.96 1.525
      vertex -2.5 5.4675 2.75
      vertex -2.5 6.1025 2.75
    endloop
  endfacet
  facet normal -1 0 0
    outer loop
      vertex -2.5 5.4675 2.75
      vertex -2.5 4.8325 2.75
      vertex -2.5 5.4675 3.049
    endloop
  endfacet
  facet normal -1 0 0
    outer loop
      vertex -2.5 8.96 1.525
      vertex -2.5 4.8325 2.75
      vertex -2.5 5.4675 2.75
    endloop
  endfacet
  facet normal -1 0 0
    outer loop
      vertex -2.5 1.34 1.525
      vertex -2.5 4.8325 2.75
      vertex -2.5 8.96 1.525
    endloop
  endfacet
  facet normal -1 0 0
    outer loop
      vertex -2.5 4.1975 2.75
      vertex -2.5 3.5625 2.75
      vertex -2.5 4.1975 3.049
    endloop
  endfacet
  facet normal -1 -0 0
    outer loop
      vertex -2.5 4.8325 2.75
      vertex -2.5 1.34 1.525
      vertex -2.5 4.1975 2.75
    endloop
  endfacet
  facet normal -1 -0 0
    outer loop
      vertex -2.5 4.1975 2.75
      vertex -2.5 1.34 1.525
      vertex -2.5 3.5625 2.75
    endloop
  endfacet
  facet normal -1 0 0
    outer loop
      vertex -2.5 2.9275 2.75
      vertex -2.5 2.2925 2.75
      vertex -2.5 2.9275 3.049
    endloop
  endfacet
  facet normal -1 -0 0
    outer loop
      vertex -2.5 3.5625 2.75
      vertex -2.5 1.34 1.525
      vertex -2.5 2.9275 2.75
    endloop
  endfacet
  facet normal -1 -0 0
    outer loop
      vertex -2.5 2.9275 2.75
      vertex -2.5 1.34 1.525
      vertex -2.5 2.2925 2.75
    endloop
  endfacet
  facet normal -1 0 0
    outer loop
      vertex -2.5 1.6575 2.75
      vertex -2.5 1.499 3.049
      vertex -2.5 1.6575 3.049
    endloop
  endfacet
  facet normal -1 -0 0
    outer loop
      vertex -2.5 2.2925 2.75
      vertex -2.5 1.34 1.525
      vertex -2.5 1.6575 2.75
    endloop
  endfacet
  facet normal -1 0 0
    outer loop
      vertex -2.5 1.34 1.525
      vertex -2.5 1.499 3.049
      vertex -2.5 1.6575 2.75
    endloop
  endfacet
  facet normal -1 0 0
    outer loop
      vertex -2.5 1.34 3.999
      vertex -2.5 1.499 3.049
      vertex -2.5 1.34 1.525
    endloop
  endfacet
  facet normal -1 0 0
    outer loop
      vertex -2.5 1.499 3.049
      vertex -2.5 1.34 3.999
      vertex -2.5 1.499 3.999
    endloop
  endfacet
  facet normal -1 -0 0
    outer loop
      vertex -2.5 8.96 3.999
      vertex -2.5 8.801 3.049
      vertex -2.5 8.801 3.999
    endloop
  endfacet
  facet normal -1 -0 0
    outer loop
      vertex -2.5 8.801 3.049
      vertex -2.5 8.6425 2.75
      vertex -2.5 8.6425 3.049
    endloop
  endfacet
  facet normal -1 -0 0
    outer loop
      vertex -2.5 8.0075 3.049
      vertex -2.5 7.3725 2.75
      vertex -2.5 7.3725 3.049
    endloop
  endfacet
  facet normal -1 -0 0
    outer loop
      vertex -2.5 6.7375 3.049
      vertex -2.5 6.1025 2.75
      vertex -2.5 6.1025 3.049
    endloop
  endfacet
  facet normal -1 -0 0
    outer loop
      vertex -2.5 5.4675 3.049
      vertex -2.5 4.8325 2.75
      vertex -2.5 4.8325 3.049
    endloop
  endfacet
  facet normal -1 -0 0
    outer loop
      vertex -2.5 4.1975 3.049
      vertex -2.5 3.5625 2.75
      vertex -2.5 3.5625 3.049
    endloop
  endfacet
  facet normal -1 -0 0
    outer loop
      vertex -2.5 2.9275 3.049
      vertex -2.5 2.2925 2.75
      vertex -2.5 2.2925 3.049
    endloop
  endfacet
  facet normal -0 0 1
    outer loop
      vertex -7.799 8.96 1.525
      vertex -2.5 1.34 1.525
      vertex -2.5 8.96 1.525
    endloop
  endfacet
  facet normal 0 0 1
    outer loop
      vertex -2.5 1.34 1.525
      vertex -7.799 8.96 1.525
      vertex -7.799 1.34 1.525
    endloop
  endfacet
  facet normal 0 -1 0
    outer loop
      vertex -7.799 8.96 1.525
      vertex -2.5 8.96 3.999
      vertex -7.799 8.96 3.999
    endloop
  endfacet
  facet normal 0 -1 -0
    outer loop
      vertex -2.5 8.96 3.999
      vertex -7.799 8.96 1.525
      vertex -2.5 8.96 1.525
    endloop
  endfacet
  facet normal 0 1 -0
    outer loop
      vertex -2.5 1.34 1.525
      vertex -7.799 1.34 3.999
      vertex -2.5 1.34 3.999
    endloop
  endfacet
  facet normal 0 1 0
    outer loop
      vertex -7.799 1.34 3.999
      vertex -2.5 1.34 1.525
      vertex -7.799 1.34 1.525
    endloop
  endfacet
  facet normal -1 0 0
    outer loop
      vertex -1.925 -0.376001 0.975
      vertex -1.925 -0.851 1.475
      vertex -1.925 -0.376001 1.475
    endloop
  endfacet
  facet normal -1 0 0
    outer loop
      vertex -1.925 -1.8 0.975
      vertex -1.925 -0.851 1.475
      vertex -1.925 -0.376001 0.975
    endloop
  endfacet
  facet normal -1 0 0
    outer loop
      vertex -1.925 -1.8 3.999
      vertex -1.925 -0.851 1.475
      vertex -1.925 -1.8 0.975
    endloop
  endfacet
  facet normal -1 0 0
    outer loop
      vertex -1.925 -0.851 1.475
      vertex -1.925 -1.8 3.999
      vertex -1.925 -0.851 3.999
    endloop
  endfacet
  facet normal -0 0 1
    outer loop
      vertex -5.875 -0.376001 0.975
      vertex -1.925 -1.8 0.975
      vertex -1.925 -0.376001 0.975
    endloop
  endfacet
  facet normal 0 0 1
    outer loop
      vertex -1.925 -1.8 0.975
      vertex -5.875 -0.376001 0.975
      vertex -5.875 -1.8 0.975
    endloop
  endfacet
  facet normal 1 0 0
    outer loop
      vertex -5.875 -0.851 3.999
      vertex -5.875 -1.8 3.999
      vertex -5.875 -0.851 1.475
    endloop
  endfacet
  facet normal 1 -0 0
    outer loop
      vertex -5.875 -0.851 1.475
      vertex -5.875 -0.376001 0.975
      vertex -5.875 -0.376001 1.475
    endloop
  endfacet
  facet normal 1 0 0
    outer loop
      vertex -5.875 -0.851 1.475
      vertex -5.875 -1.8 0.975
      vertex -5.875 -0.376001 0.975
    endloop
  endfacet
  facet normal 1 0 0
    outer loop
      vertex -5.875 -1.8 0.975
      vertex -5.875 -0.851 1.475
      vertex -5.875 -1.8 3.999
    endloop
  endfacet
  facet normal 0 -1 0
    outer loop
      vertex -5.875 -0.851 1.475
      vertex -1.925 -0.851 3.999
      vertex -5.875 -0.851 3.999
    endloop
  endfacet
  facet normal 0 -1 -0
    outer loop
      vertex -1.925 -0.851 3.999
      vertex -5.875 -0.851 1.475
      vertex -1.925 -0.851 1.475
    endloop
  endfacet
  facet normal 0 0 -1
    outer loop
      vertex -5.875 -0.851 1.475
      vertex -1.925 -0.376001 1.475
      vertex -1.925 -0.851 1.475
    endloop
  endfacet
  facet normal -0 0 -1
    outer loop
      vertex -1.925 -0.376001 1.475
      vertex -5.875 -0.851 1.475
      vertex -5.875 -0.376001 1.475
    endloop
  endfacet
  facet normal 0 -1 0
    outer loop
      vertex -5.875 -0.376001 0.975
      vertex -1.925 -0.376001 1.475
      vertex -5.875 -0.376001 1.475
    endloop
  endfacet
  facet normal 0 -1 -0
    outer loop
      vertex -1.925 -0.376001 1.475
      vertex -5.875 -0.376001 0.975
      vertex -1.925 -0.376001 0.975
    endloop
  endfacet
  facet normal -1 0 0
    outer loop
      vertex -1.925 12.1 0.975
      vertex -1.925 11.151 1.45
      vertex -1.925 12.1 3.999
    endloop
  endfacet
  facet normal -1 0 0
    outer loop
      vertex -1.925 10.675 0.975
      vertex -1.925 11.151 1.45
      vertex -1.925 12.1 0.975
    endloop
  endfacet
  facet normal -1 -0 0
    outer loop
      vertex -1.925 11.151 1.45
      vertex -1.925 10.675 0.975
      vertex -1.925 10.675 1.45
    endloop
  endfacet
  facet normal -1 -0 0
    outer loop
      vertex -1.925 12.1 3.999
      vertex -1.925 11.151 1.45
      vertex -1.925 11.151 3.999
    endloop
  endfacet
  facet normal -0 0 1
    outer loop
      vertex -5.875 12.1 0.975
      vertex -1.925 10.675 0.975
      vertex -1.925 12.1 0.975
    endloop
  endfacet
  facet normal 0 0 1
    outer loop
      vertex -1.925 10.675 0.975
      vertex -5.875 12.1 0.975
      vertex -5.875 10.675 0.975
    endloop
  endfacet
  facet normal 1 0 0
    outer loop
      vertex -5.875 11.151 1.45
      vertex -5.875 12.1 3.999
      vertex -5.875 11.151 3.999
    endloop
  endfacet
  facet normal 1 0 0
    outer loop
      vertex -5.875 12.1 3.999
      vertex -5.875 11.151 1.45
      vertex -5.875 12.1 0.975
    endloop
  endfacet
  facet normal 1 0 0
    outer loop
      vertex -5.875 10.675 0.975
      vertex -5.875 11.151 1.45
      vertex -5.875 10.675 1.45
    endloop
  endfacet
  facet normal 1 0 0
    outer loop
      vertex -5.875 11.151 1.45
      vertex -5.875 10.675 0.975
      vertex -5.875 12.1 0.975
    endloop
  endfacet
  facet normal 0 1 -0
    outer loop
      vertex -1.925 11.151 1.45
      vertex -5.875 11.151 3.999
      vertex -1.925 11.151 3.999
    endloop
  endfacet
  facet normal 0 1 0
    outer loop
      vertex -5.875 11.151 3.999
      vertex -1.925 11.151 1.45
      vertex -5.875 11.151 1.45
    endloop
  endfacet
  facet normal 0 0 -1
    outer loop
      vertex -5.875 10.675 1.45
      vertex -1.925 11.151 1.45
      vertex -1.925 10.675 1.45
    endloop
  endfacet
  facet normal -0 0 -1
    outer loop
      vertex -1.925 11.151 1.45
      vertex -5.875 10.675 1.45
      vertex -5.875 11.151 1.45
    endloop
  endfacet
  facet normal 0 1 -0
    outer loop
      vertex -1.925 10.675 0.975
      vertex -5.875 10.675 1.45
      vertex -1.925 10.675 1.45
    endloop
  endfacet
  facet normal 0 1 0
    outer loop
      vertex -5.875 10.675 1.45
      vertex -1.925 10.675 0.975
      vertex -5.875 10.675 0.975
    endloop
  endfacet
  facet normal -1 0 0
    outer loop
      vertex 0.00499916 9.101 3.999
      vertex 0.00499916 10.3 4
      vertex 0.00499916 10.3 3.999
    endloop
  endfacet
  facet normal -1 -0 0
    outer loop
      vertex 0.00499916 10.3 4
      vertex 0.00499916 9.101 3.999
      vertex 0.00499916 9.101 4
    endloop
  endfacet
  facet normal -1 0 0
    outer loop
      vertex 0.00499916 0 3.999
      vertex 0.00499916 1.199 4
      vertex 0.00499916 1.199 3.999
    endloop
  endfacet
  facet normal -1 -0 0
    outer loop
      vertex 0.00499916 1.199 4
      vertex 0.00499916 0 3.999
      vertex 0.00499916 0 4
    endloop
  endfacet
  facet normal 0 0 1
    outer loop
      vertex -5.875 12.1 3.999
      vertex -7.799 12.1 3.999
      vertex -5.875 11.151 3.999
    endloop
  endfacet
  facet normal -0 0 1
    outer loop
      vertex -5.875 11.151 3.999
      vertex -2.5 8.96 3.999
      vertex -1.925 11.151 3.999
    endloop
  endfacet
  facet normal 0 0 1
    outer loop
      vertex -7.799 8.96 3.999
      vertex -5.875 11.151 3.999
      vertex -7.799 12.1 3.999
    endloop
  endfacet
  facet normal 0 0 1
    outer loop
      vertex -5.875 11.151 3.999
      vertex -7.799 8.96 3.999
      vertex -2.5 8.96 3.999
    endloop
  endfacet
  facet normal -0 0 1
    outer loop
      vertex -1.925 11.151 3.999
      vertex 0.00299931 10.3 3.999
      vertex 0.00299931 12.1 3.999
    endloop
  endfacet
  facet normal 0 0 1
    outer loop
      vertex -1.925 11.151 3.999
      vertex 0.00299931 12.1 3.999
      vertex -1.925 12.1 3.999
    endloop
  endfacet
  facet normal 0 0 1
    outer loop
      vertex -2.5 8.96 3.999
      vertex 0.00299931 10.3 3.999
      vertex -1.925 11.151 3.999
    endloop
  endfacet
  facet normal 0 0 1
    outer loop
      vertex 0.00299931 10.3 3.999
      vertex -2.5 8.96 3.999
      vertex -0.000999451 9.101 3.999
    endloop
  endfacet
  facet normal 0 0 1
    outer loop
      vertex -0.000999451 9.101 3.999
      vertex -2.5 8.96 3.999
      vertex -0.000999451 8.801 3.999
    endloop
  endfacet
  facet normal 0 0 1
    outer loop
      vertex -0.000999451 8.801 3.999
      vertex -2.5 8.96 3.999
      vertex -2.5 8.801 3.999
    endloop
  endfacet
  facet normal -0 0 1
    outer loop
      vertex 0.00299931 10.3 3.999
      vertex 0.00499916 9.101 3.999
      vertex 0.00499916 10.3 3.999
    endloop
  endfacet
  facet normal 0 0 1
    outer loop
      vertex 0.00499916 9.101 3.999
      vertex 0.00299931 10.3 3.999
      vertex -0.000999451 9.101 3.999
    endloop
  endfacet
  facet normal -0 0 1
    outer loop
      vertex -2.5 1.34 3.999
      vertex -0.000999451 1.199 3.999
      vertex -0.000999451 1.499 3.999
    endloop
  endfacet
  facet normal 0 0 1
    outer loop
      vertex -2.5 1.34 3.999
      vertex -0.000999451 1.499 3.999
      vertex -2.5 1.499 3.999
    endloop
  endfacet
  facet normal 0 0 1
    outer loop
      vertex -0.000999451 1.199 3.999
      vertex -2.5 1.34 3.999
      vertex -1.925 -0.851 3.999
    endloop
  endfacet
  facet normal 0 0 1
    outer loop
      vertex -2.5 1.34 3.999
      vertex -5.875 -0.851 3.999
      vertex -1.925 -0.851 3.999
    endloop
  endfacet
  facet normal -0 0 1
    outer loop
      vertex -7.799 1.34 3.999
      vertex -5.875 -0.851 3.999
      vertex -2.5 1.34 3.999
    endloop
  endfacet
  facet normal 0 0 1
    outer loop
      vertex -7.799 -1.8 3.999
      vertex -5.875 -0.851 3.999
      vertex -7.799 1.34 3.999
    endloop
  endfacet
  facet normal 0 0 1
    outer loop
      vertex -5.875 -0.851 3.999
      vertex -7.799 -1.8 3.999
      vertex -5.875 -1.8 3.999
    endloop
  endfacet
  facet normal 0 0 1
    outer loop
      vertex 0.00499916 1.199 3.999
      vertex 0.00299931 0 3.999
      vertex 0.00499916 0 3.999
    endloop
  endfacet
  facet normal -0 0 1
    outer loop
      vertex -0.000999451 1.199 3.999
      vertex 0.00299931 0 3.999
      vertex 0.00499916 1.199 3.999
    endloop
  endfacet
  facet normal 0 0 1
    outer loop
      vertex -1.925 -0.851 3.999
      vertex 0.00299931 0 3.999
      vertex -0.000999451 1.199 3.999
    endloop
  endfacet
  facet normal 0 0 1
    outer loop
      vertex 0.00299931 0 3.999
      vertex -1.925 -0.851 3.999
      vertex 0.00299931 -1.8 3.999
    endloop
  endfacet
  facet normal 0 0 1
    outer loop
      vertex 0.00299931 -1.8 3.999
      vertex -1.925 -0.851 3.999
      vertex -1.925 -1.8 3.999
    endloop
  endfacet
  facet normal 0 -1 0
    outer loop
      vertex -2.5 8.801 3.049
      vertex -0.000999451 8.801 3.999
      vertex -2.5 8.801 3.999
    endloop
  endfacet
  facet normal 0 -1 -0
    outer loop
      vertex -0.000999451 8.801 3.999
      vertex -2.5 8.801 3.049
      vertex -0.000999451 8.801 3.049
    endloop
  endfacet
  facet normal 0 1 -0
    outer loop
      vertex -0.000999451 1.499 3.049
      vertex -2.5 1.499 3.999
      vertex -0.000999451 1.499 3.999
    endloop
  endfacet
  facet normal 0 1 0
    outer loop
      vertex -2.5 1.499 3.999
      vertex -0.000999451 1.499 3.049
      vertex -2.5 1.499 3.049
    endloop
  endfacet
  facet normal 1 0 0
    outer loop
      vertex 21.725 12.101 5.375
      vertex 21.725 11.251 4.975
      vertex 21.725 12.101 2.401
    endloop
  endfacet
  facet normal 1 -0 0
    outer loop
      vertex 21.725 10.826 5.375
      vertex 21.725 11.251 4.975
      vertex 21.725 12.101 5.375
    endloop
  endfacet
  facet normal 1 0 0
    outer loop
      vertex 21.725 11.251 4.975
      vertex 21.725 10.826 5.375
      vertex 21.725 10.826 4.975
    endloop
  endfacet
  facet normal 1 0 0
    outer loop
      vertex 21.725 12.101 2.401
      vertex 21.725 11.251 4.975
      vertex 21.725 11.251 2.401
    endloop
  endfacet
  facet normal 0 0 0
    outer loop
      vertex 21.725 12.101 5.375
      vertex 21.725 12.101 2.401
      vertex 21.725 12.101 2.325
    endloop
  endfacet
  facet normal -0 0 1
    outer loop
      vertex 17.875 12.101 5.375
      vertex 21.725 10.826 5.375
      vertex 21.725 12.101 5.375
    endloop
  endfacet
  facet normal 0 0 1
    outer loop
      vertex 21.725 10.826 5.375
      vertex 17.875 12.101 5.375
      vertex 17.875 10.826 5.375
    endloop
  endfacet
  facet normal -1 0 0
    outer loop
      vertex 17.875 11.251 4.975
      vertex 17.875 12.101 2.401
      vertex 17.875 11.251 2.401
    endloop
  endfacet
  facet normal -1 0 0
    outer loop
      vertex 17.875 12.101 2.401
      vertex 17.875 11.251 4.975
      vertex 17.875 12.101 5.375
    endloop
  endfacet
  facet normal -1 0 0
    outer loop
      vertex 17.875 10.826 5.375
      vertex 17.875 11.251 4.975
      vertex 17.875 10.826 4.975
    endloop
  endfacet
  facet normal -1 0 0
    outer loop
      vertex 17.875 11.251 4.975
      vertex 17.875 10.826 5.375
      vertex 17.875 12.101 5.375
    endloop
  endfacet
  facet normal -0 0 0
    outer loop
      vertex 17.875 12.101 2.401
      vertex 17.875 12.101 5.375
      vertex 17.875 12.101 2.325
    endloop
  endfacet
  facet normal 0 -1 0
    outer loop
      vertex 17.875 11.251 2.401
      vertex 21.725 11.251 4.975
      vertex 17.875 11.251 4.975
    endloop
  endfacet
  facet normal 0 -1 -0
    outer loop
      vertex 21.725 11.251 4.975
      vertex 17.875 11.251 2.401
      vertex 21.725 11.251 2.401
    endloop
  endfacet
  facet normal 0 1 -0
    outer loop
      vertex 21.725 12.101 2.325
      vertex 17.875 12.101 5.375
      vertex 21.725 12.101 5.375
    endloop
  endfacet
  facet normal 0 1 0
    outer loop
      vertex 17.875 12.101 5.375
      vertex 21.725 12.101 2.325
      vertex 17.875 12.101 2.325
    endloop
  endfacet
  facet normal 0 0 -1
    outer loop
      vertex 17.875 10.826 4.975
      vertex 21.725 11.251 4.975
      vertex 21.725 10.826 4.975
    endloop
  endfacet
  facet normal -0 0 -1
    outer loop
      vertex 21.725 11.251 4.975
      vertex 17.875 10.826 4.975
      vertex 17.875 11.251 4.975
    endloop
  endfacet
  facet normal 0 -1 0
    outer loop
      vertex 17.875 10.826 4.975
      vertex 21.725 10.826 5.375
      vertex 17.875 10.826 5.375
    endloop
  endfacet
  facet normal 0 -1 -0
    outer loop
      vertex 21.725 10.826 5.375
      vertex 17.875 10.826 4.975
      vertex 21.725 10.826 4.975
    endloop
  endfacet
  facet normal 1 0 0
    outer loop
      vertex 21.725 -0.525 5.375
      vertex 21.725 -0.951 4.95
      vertex 21.725 -0.525 4.95
    endloop
  endfacet
  facet normal 1 -0 0
    outer loop
      vertex 21.725 -1.801 5.375
      vertex 21.725 -0.951 4.95
      vertex 21.725 -0.525 5.375
    endloop
  endfacet
  facet normal 1 0 0
    outer loop
      vertex 21.725 -1.801 2.401
      vertex 21.725 -0.951 4.95
      vertex 21.725 -1.801 5.375
    endloop
  endfacet
  facet normal 1 0 0
    outer loop
      vertex 21.725 -0.951 4.95
      vertex 21.725 -1.801 2.401
      vertex 21.725 -0.951 2.401
    endloop
  endfacet
  facet normal -0 0 1
    outer loop
      vertex 17.875 -0.525 5.375
      vertex 21.725 -1.801 5.375
      vertex 21.725 -0.525 5.375
    endloop
  endfacet
  facet normal 0 0 1
    outer loop
      vertex 21.725 -1.801 5.375
      vertex 17.875 -0.525 5.375
      vertex 17.875 -1.801 5.375
    endloop
  endfacet
  facet normal -1 0 0
    outer loop
      vertex 17.875 -0.951 2.401
      vertex 17.875 -1.801 2.401
      vertex 17.875 -0.951 4.95
    endloop
  endfacet
  facet normal -1 0 0
    outer loop
      vertex 17.875 -0.951 4.95
      vertex 17.875 -0.525 5.375
      vertex 17.875 -0.525 4.95
    endloop
  endfacet
  facet normal -1 0 0
    outer loop
      vertex 17.875 -0.951 4.95
      vertex 17.875 -1.801 5.375
      vertex 17.875 -0.525 5.375
    endloop
  endfacet
  facet normal -1 0 0
    outer loop
      vertex 17.875 -1.801 5.375
      vertex 17.875 -0.951 4.95
      vertex 17.875 -1.801 2.401
    endloop
  endfacet
  facet normal 0 -1 0
    outer loop
      vertex 17.875 -1.801 2.401
      vertex 21.725 -1.801 5.375
      vertex 17.875 -1.801 5.375
    endloop
  endfacet
  facet normal 0 -1 -0
    outer loop
      vertex 21.725 -1.801 5.375
      vertex 17.875 -1.801 2.401
      vertex 21.725 -1.801 2.401
    endloop
  endfacet
  facet normal 0 1 -0
    outer loop
      vertex 21.725 -0.951 2.401
      vertex 17.875 -0.951 4.95
      vertex 21.725 -0.951 4.95
    endloop
  endfacet
  facet normal 0 1 0
    outer loop
      vertex 17.875 -0.951 4.95
      vertex 21.725 -0.951 2.401
      vertex 17.875 -0.951 2.401
    endloop
  endfacet
  facet normal 0 0 -1
    outer loop
      vertex 17.875 -0.951 4.95
      vertex 21.725 -0.525 4.95
      vertex 21.725 -0.951 4.95
    endloop
  endfacet
  facet normal -0 0 -1
    outer loop
      vertex 21.725 -0.525 4.95
      vertex 17.875 -0.951 4.95
      vertex 17.875 -0.525 4.95
    endloop
  endfacet
  facet normal 0 1 -0
    outer loop
      vertex 21.725 -0.525 4.95
      vertex 17.875 -0.525 5.375
      vertex 21.725 -0.525 5.375
    endloop
  endfacet
  facet normal 0 1 0
    outer loop
      vertex 17.875 -0.525 5.375
      vertex 21.725 -0.525 4.95
      vertex 17.875 -0.525 4.95
    endloop
  endfacet
  facet normal 1 -0 0
    outer loop
      vertex 23.705 -1.801 2.401
      vertex 23.705 12.101 -0.000999069
      vertex 23.705 12.101 2.401
    endloop
  endfacet
  facet normal 1 0 0
    outer loop
      vertex 23.705 12.101 -0.000999069
      vertex 23.705 -1.801 2.401
      vertex 23.705 -1.801 -0.000999069
    endloop
  endfacet
  facet normal 0 0 -1
    outer loop
      vertex 15.899 -1.801 -0.000999069
      vertex 23.705 12.101 -0.000999069
      vertex 23.705 -1.801 -0.000999069
    endloop
  endfacet
  facet normal -0 0 -1
    outer loop
      vertex 23.705 12.101 -0.000999069
      vertex 15.899 -1.801 -0.000999069
      vertex 15.899 12.101 -0.000999069
    endloop
  endfacet
  facet normal -0 0 1
    outer loop
      vertex 15.899 12.101 2.401
      vertex 17.875 11.251 2.401
      vertex 17.875 12.101 2.401
    endloop
  endfacet
  facet normal 0 0 1
    outer loop
      vertex 17.875 11.251 2.401
      vertex 15.899 12.101 2.401
      vertex 17.875 -0.951 2.401
    endloop
  endfacet
  facet normal 0 0 1
    outer loop
      vertex 15.899 -1.801 2.401
      vertex 17.875 -0.951 2.401
      vertex 15.899 12.101 2.401
    endloop
  endfacet
  facet normal -0 0 1
    outer loop
      vertex 21.199 1.499 2.401
      vertex 21.725 -0.951 2.401
      vertex 23.701 1.499 2.401
    endloop
  endfacet
  facet normal 0 0 1
    outer loop
      vertex 17.875 -0.951 2.401
      vertex 21.199 1.499 2.401
      vertex 17.875 11.251 2.401
    endloop
  endfacet
  facet normal 0 0 1
    outer loop
      vertex 21.199 1.499 2.401
      vertex 17.875 -0.951 2.401
      vertex 21.725 -0.951 2.401
    endloop
  endfacet
  facet normal 0 0 1
    outer loop
      vertex 23.705 12.101 2.401
      vertex 23.701 8.801 2.401
      vertex 23.705 -1.801 2.401
    endloop
  endfacet
  facet normal 0 0 1
    outer loop
      vertex 21.725 11.251 2.401
      vertex 23.705 12.101 2.401
      vertex 21.725 12.101 2.401
    endloop
  endfacet
  facet normal 0 0 1
    outer loop
      vertex 23.705 12.101 2.401
      vertex 21.725 11.251 2.401
      vertex 23.701 8.801 2.401
    endloop
  endfacet
  facet normal 0 0 1
    outer loop
      vertex 21.725 11.251 2.401
      vertex 21.199 8.801 2.401
      vertex 23.701 8.801 2.401
    endloop
  endfacet
  facet normal 0 0 1
    outer loop
      vertex 21.199 8.801 2.401
      vertex 17.875 11.251 2.401
      vertex 21.199 1.499 2.401
    endloop
  endfacet
  facet normal -0 0 1
    outer loop
      vertex 17.875 11.251 2.401
      vertex 21.199 8.801 2.401
      vertex 21.725 11.251 2.401
    endloop
  endfacet
  facet normal -0 0 1
    outer loop
      vertex 23.701 1.499 2.401
      vertex 23.705 -1.801 2.401
      vertex 23.701 8.801 2.401
    endloop
  endfacet
  facet normal -0 0 1
    outer loop
      vertex 21.725 -0.951 2.401
      vertex 23.705 -1.801 2.401
      vertex 23.701 1.499 2.401
    endloop
  endfacet
  facet normal 0 0 1
    outer loop
      vertex 21.725 -1.801 2.401
      vertex 23.705 -1.801 2.401
      vertex 21.725 -0.951 2.401
    endloop
  endfacet
  facet normal 0 0 0
    outer loop
      vertex 17.875 -1.801 2.401
      vertex 23.705 -1.801 2.401
      vertex 21.725 -1.801 2.401
    endloop
  endfacet
  facet normal 0 0 -0
    outer loop
      vertex 17.875 -1.801 2.401
      vertex 15.899 -1.801 2.401
      vertex 23.705 -1.801 2.401
    endloop
  endfacet
  facet normal 0 0 1
    outer loop
      vertex 17.875 -0.951 2.401
      vertex 15.899 -1.801 2.401
      vertex 17.875 -1.801 2.401
    endloop
  endfacet
  facet normal -1 0 0
    outer loop
      vertex 15.899 -1.801 -0.000999069
      vertex 15.899 12.101 2.401
      vertex 15.899 12.101 -0.000999069
    endloop
  endfacet
  facet normal -1 -0 0
    outer loop
      vertex 15.899 12.101 2.401
      vertex 15.899 -1.801 -0.000999069
      vertex 15.899 -1.801 2.401
    endloop
  endfacet
  facet normal 0 -1 0
    outer loop
      vertex 15.899 -1.801 -0.000999069
      vertex 23.705 -1.801 2.401
      vertex 15.899 -1.801 2.401
    endloop
  endfacet
  facet normal 0 -1 -0
    outer loop
      vertex 23.705 -1.801 2.401
      vertex 15.899 -1.801 -0.000999069
      vertex 23.705 -1.801 -0.000999069
    endloop
  endfacet
  facet normal 0 1 0
    outer loop
      vertex 23.705 12.101 2.401
      vertex 21.725 12.101 2.325
      vertex 21.725 12.101 2.401
    endloop
  endfacet
  facet normal 0 1 0
    outer loop
      vertex 21.725 12.101 2.325
      vertex 23.705 12.101 -0.000999069
      vertex 17.875 12.101 2.325
    endloop
  endfacet
  facet normal 0 1 -0
    outer loop
      vertex 23.705 12.101 -0.000999069
      vertex 21.725 12.101 2.325
      vertex 23.705 12.101 2.401
    endloop
  endfacet
  facet normal 0 1 -0
    outer loop
      vertex 17.875 12.101 2.325
      vertex 15.899 12.101 2.401
      vertex 17.875 12.101 2.401
    endloop
  endfacet
  facet normal 0 1 0
    outer loop
      vertex 15.899 12.101 -0.000999069
      vertex 17.875 12.101 2.325
      vertex 23.705 12.101 -0.000999069
    endloop
  endfacet
  facet normal 0 1 0
    outer loop
      vertex 17.875 12.101 2.325
      vertex 15.899 12.101 -0.000999069
      vertex 15.899 12.101 2.401
    endloop
  endfacet
  facet normal 1 -0 0
    outer loop
      vertex 23.701 1.499 3.451
      vertex 23.701 8.801 2.401
      vertex 23.701 8.801 3.451
    endloop
  endfacet
  facet normal 1 0 0
    outer loop
      vertex 23.701 8.801 2.401
      vertex 23.701 1.499 3.451
      vertex 23.701 1.499 2.401
    endloop
  endfacet
  facet normal -0 0 1
    outer loop
      vertex 21.199 8.801 3.451
      vertex 23.701 1.499 3.451
      vertex 23.701 8.801 3.451
    endloop
  endfacet
  facet normal 0 0 1
    outer loop
      vertex 23.701 1.499 3.451
      vertex 21.199 8.801 3.451
      vertex 21.199 1.499 3.451
    endloop
  endfacet
  facet normal -1 0 0
    outer loop
      vertex 21.199 1.499 2.401
      vertex 21.199 8.801 3.451
      vertex 21.199 8.801 2.401
    endloop
  endfacet
  facet normal -1 -0 0
    outer loop
      vertex 21.199 8.801 3.451
      vertex 21.199 1.499 2.401
      vertex 21.199 1.499 3.451
    endloop
  endfacet
  facet normal 0 -1 0
    outer loop
      vertex 21.199 1.499 2.401
      vertex 23.701 1.499 3.451
      vertex 21.199 1.499 3.451
    endloop
  endfacet
  facet normal 0 -1 -0
    outer loop
      vertex 23.701 1.499 3.451
      vertex 21.199 1.499 2.401
      vertex 23.701 1.499 2.401
    endloop
  endfacet
  facet normal 0 1 -0
    outer loop
      vertex 23.701 8.801 2.401
      vertex 21.199 8.801 3.451
      vertex 23.701 8.801 3.451
    endloop
  endfacet
  facet normal 0 1 0
    outer loop
      vertex 21.199 8.801 3.451
      vertex 23.701 8.801 2.401
      vertex 21.199 8.801 2.401
    endloop
  endfacet
endsolid OpenSCAD_Model
