solid OpenSCAD_Model
  facet normal 1 0 0
    outer loop
      vertex 5.9 1.199 4
      vertex 5.9 0 4
      vertex 5.9 1.199 3.049
    endloop
  endfacet
  facet normal 1 0 0
    outer loop
      vertex 5.9 1.61214 3.049
      vertex 5.9 1.199 3.049
      vertex 5.9 1.61214 2.75
    endloop
  endfacet
  facet normal 1 0 0
    outer loop
      vertex 5.9 2.88214 3.049
      vertex 5.9 2.33786 3.049
      vertex 5.9 2.88214 2.75
    endloop
  endfacet
  facet normal 1 0 0
    outer loop
      vertex 5.9 4.15214 3.049
      vertex 5.9 3.60786 3.049
      vertex 5.9 4.15214 2.75
    endloop
  endfacet
  facet normal 1 0 0
    outer loop
      vertex 5.9 5.42214 3.049
      vertex 5.9 4.87786 3.049
      vertex 5.9 5.42214 2.75
    endloop
  endfacet
  facet normal 1 0 0
    outer loop
      vertex 5.9 6.69214 3.049
      vertex 5.9 6.14786 3.049
      vertex 5.9 6.69214 2.75
    endloop
  endfacet
  facet normal 1 0 0
    outer loop
      vertex 5.9 7.96214 3.049
      vertex 5.9 7.41786 3.049
      vertex 5.9 7.96214 2.75
    endloop
  endfacet
  facet normal 1 0 0
    outer loop
      vertex 5.9 9.101 3.049
      vertex 5.9 10.3 4
      vertex 5.9 9.101 4
    endloop
  endfacet
  facet normal 1 0 0
    outer loop
      vertex 5.9 10.3 4
      vertex 5.9 9.101 3.049
      vertex 5.9 10.3 0
    endloop
  endfacet
  facet normal 1 0 0
    outer loop
      vertex 5.9 8.68786 2.75
      vertex 5.9 9.101 3.049
      vertex 5.9 8.68786 3.049
    endloop
  endfacet
  facet normal 1 0 0
    outer loop
      vertex 5.9 9.101 3.049
      vertex 5.9 8.68786 2.75
      vertex 5.9 10.3 0
    endloop
  endfacet
  facet normal 1 -0 0
    outer loop
      vertex 5.9 7.96214 2.75
      vertex 5.9 10.3 0
      vertex 5.9 8.68786 2.75
    endloop
  endfacet
  facet normal 1 0 0
    outer loop
      vertex 5.9 7.41786 2.75
      vertex 5.9 7.96214 2.75
      vertex 5.9 7.41786 3.049
    endloop
  endfacet
  facet normal 1 0 0
    outer loop
      vertex 5.9 7.96214 2.75
      vertex 5.9 7.41786 2.75
      vertex 5.9 10.3 0
    endloop
  endfacet
  facet normal 1 -0 0
    outer loop
      vertex 5.9 6.69214 2.75
      vertex 5.9 10.3 0
      vertex 5.9 7.41786 2.75
    endloop
  endfacet
  facet normal 1 0 0
    outer loop
      vertex 5.9 6.14786 2.75
      vertex 5.9 6.69214 2.75
      vertex 5.9 6.14786 3.049
    endloop
  endfacet
  facet normal 1 0 0
    outer loop
      vertex 5.9 6.69214 2.75
      vertex 5.9 6.14786 2.75
      vertex 5.9 10.3 0
    endloop
  endfacet
  facet normal 1 -0 0
    outer loop
      vertex 5.9 5.42214 2.75
      vertex 5.9 10.3 0
      vertex 5.9 6.14786 2.75
    endloop
  endfacet
  facet normal 1 0 0
    outer loop
      vertex 5.9 4.87786 2.75
      vertex 5.9 5.42214 2.75
      vertex 5.9 4.87786 3.049
    endloop
  endfacet
  facet normal 1 0 0
    outer loop
      vertex 5.9 5.42214 2.75
      vertex 5.9 4.87786 2.75
      vertex 5.9 10.3 0
    endloop
  endfacet
  facet normal 1 0 0
    outer loop
      vertex 5.9 0 0
      vertex 5.9 4.87786 2.75
      vertex 5.9 4.15214 2.75
    endloop
  endfacet
  facet normal 1 0 0
    outer loop
      vertex 5.9 3.60786 2.75
      vertex 5.9 4.15214 2.75
      vertex 5.9 3.60786 3.049
    endloop
  endfacet
  facet normal 1 0 0
    outer loop
      vertex 5.9 0 0
      vertex 5.9 4.15214 2.75
      vertex 5.9 3.60786 2.75
    endloop
  endfacet
  facet normal 1 0 0
    outer loop
      vertex 5.9 0 0
      vertex 5.9 3.60786 2.75
      vertex 5.9 2.88214 2.75
    endloop
  endfacet
  facet normal 1 0 0
    outer loop
      vertex 5.9 2.33786 2.75
      vertex 5.9 2.88214 2.75
      vertex 5.9 2.33786 3.049
    endloop
  endfacet
  facet normal 1 0 0
    outer loop
      vertex 5.9 0 0
      vertex 5.9 2.88214 2.75
      vertex 5.9 2.33786 2.75
    endloop
  endfacet
  facet normal 1 0 0
    outer loop
      vertex 5.9 0 0
      vertex 5.9 2.33786 2.75
      vertex 5.9 1.61214 2.75
    endloop
  endfacet
  facet normal 1 0 0
    outer loop
      vertex 5.9 4.87786 2.75
      vertex 5.9 0 0
      vertex 5.9 10.3 0
    endloop
  endfacet
  facet normal 1 0 0
    outer loop
      vertex 5.9 1.199 3.049
      vertex 5.9 0 0
      vertex 5.9 1.61214 2.75
    endloop
  endfacet
  facet normal 1 0 0
    outer loop
      vertex 5.9 0 0
      vertex 5.9 1.199 3.049
      vertex 5.9 0 4
    endloop
  endfacet
  facet normal 0 0 1
    outer loop
      vertex 3.5 10.3 4
      vertex 0.00299931 10.3 4
      vertex 3.5 10.099 4
    endloop
  endfacet
  facet normal 0 0 1
    outer loop
      vertex 4.3 10.099 4
      vertex 5.9 10.3 4
      vertex 4.3 10.3 4
    endloop
  endfacet
  facet normal 0 0 1
    outer loop
      vertex 5.9 10.3 4
      vertex 4.3 10.099 4
      vertex 5.9 9.101 4
    endloop
  endfacet
  facet normal -0 0 1
    outer loop
      vertex 3.5 10.099 4
      vertex 5.9 9.101 4
      vertex 4.3 10.099 4
    endloop
  endfacet
  facet normal 0 0 1
    outer loop
      vertex 0.00299931 9.101 4
      vertex 3.5 10.099 4
      vertex 0.00299931 10.3 4
    endloop
  endfacet
  facet normal 0 0 1
    outer loop
      vertex 3.5 10.099 4
      vertex 0.00299931 9.101 4
      vertex 5.9 9.101 4
    endloop
  endfacet
  facet normal 0 0 1
    outer loop
      vertex 5.9 1.199 4
      vertex 4.3 0.200999 4
      vertex 5.9 0 4
    endloop
  endfacet
  facet normal 0 0 1
    outer loop
      vertex 5.9 1.199 4
      vertex 3.5 0.200999 4
      vertex 4.3 0.200999 4
    endloop
  endfacet
  facet normal -0 0 1
    outer loop
      vertex 0.00299931 1.199 4
      vertex 3.5 0.200999 4
      vertex 5.9 1.199 4
    endloop
  endfacet
  facet normal 0 0 1
    outer loop
      vertex 0.00299931 0 4
      vertex 3.5 0.200999 4
      vertex 0.00299931 1.199 4
    endloop
  endfacet
  facet normal 0 0 1
    outer loop
      vertex 3.5 0.200999 4
      vertex 0.00299931 0 4
      vertex 3.5 0 4
    endloop
  endfacet
  facet normal 0 0 1
    outer loop
      vertex 5.9 0 4
      vertex 4.3 0.200999 4
      vertex 4.3 0 4
    endloop
  endfacet
  facet normal 0 0 -1
    outer loop
      vertex 0.00299931 0 0
      vertex 3.5 0.200999 0
      vertex 3.5 0 0
    endloop
  endfacet
  facet normal -0 0 -1
    outer loop
      vertex 3.5 0.200999 0
      vertex 0.00299931 0 0
      vertex 3.5 10.099 0
    endloop
  endfacet
  facet normal 0 0 -1
    outer loop
      vertex 0.00299931 10.3 0
      vertex 3.5 10.099 0
      vertex 0.00299931 0 0
    endloop
  endfacet
  facet normal 0 0 -1
    outer loop
      vertex 3.5 10.099 0
      vertex 0.00299931 10.3 0
      vertex 3.5 10.3 0
    endloop
  endfacet
  facet normal 0 0 -1
    outer loop
      vertex 3.5 0.200999 0
      vertex 4.3 10.099 0
      vertex 4.3 0.200999 0
    endloop
  endfacet
  facet normal -0 0 -1
    outer loop
      vertex 4.3 10.099 0
      vertex 3.5 0.200999 0
      vertex 3.5 10.099 0
    endloop
  endfacet
  facet normal 0 0 -1
    outer loop
      vertex 4.3 0.200999 0
      vertex 5.9 0 0
      vertex 4.3 0 0
    endloop
  endfacet
  facet normal 0 0 -1
    outer loop
      vertex 5.9 0 0
      vertex 4.3 0.200999 0
      vertex 5.9 10.3 0
    endloop
  endfacet
  facet normal 0 0 -1
    outer loop
      vertex 4.3 10.099 0
      vertex 5.9 10.3 0
      vertex 4.3 0.200999 0
    endloop
  endfacet
  facet normal -0 0 -1
    outer loop
      vertex 5.9 10.3 0
      vertex 4.3 10.099 0
      vertex 4.3 10.3 0
    endloop
  endfacet
  facet normal 0 1 -0
    outer loop
      vertex 5.9 10.3 0
      vertex 4.3 10.3 4
      vertex 5.9 10.3 4
    endloop
  endfacet
  facet normal 0 1 0
    outer loop
      vertex 4.3 10.3 4
      vertex 5.9 10.3 0
      vertex 4.3 10.3 0
    endloop
  endfacet
  facet normal 0 1 -0
    outer loop
      vertex 3.5 10.3 0
      vertex 0.00299931 10.3 4
      vertex 3.5 10.3 4
    endloop
  endfacet
  facet normal 0 1 0
    outer loop
      vertex 0.00299931 10.3 4
      vertex 3.5 10.3 0
      vertex 0.00299931 10.3 0
    endloop
  endfacet
  facet normal 0 -1 0
    outer loop
      vertex 4.3 0 0
      vertex 5.9 0 4
      vertex 4.3 0 4
    endloop
  endfacet
  facet normal 0 -1 -0
    outer loop
      vertex 5.9 0 4
      vertex 4.3 0 0
      vertex 5.9 0 0
    endloop
  endfacet
  facet normal 0 -1 0
    outer loop
      vertex 0.00299931 0 0
      vertex 3.5 0 4
      vertex 0.00299931 0 4
    endloop
  endfacet
  facet normal 0 -1 -0
    outer loop
      vertex 3.5 0 4
      vertex 0.00299931 0 0
      vertex 3.5 0 0
    endloop
  endfacet
  facet normal 1 0 0
    outer loop
      vertex 0.00299931 12.1 5.7
      vertex 0.00299931 10.3 4
      vertex 0.00299931 12.1 -1.7
    endloop
  endfacet
  facet normal 1 0 0
    outer loop
      vertex 0.00299931 12.1 5.7
      vertex 0.00299931 9.101 4.001
      vertex 0.00299931 10.3 4
    endloop
  endfacet
  facet normal 1 0 0
    outer loop
      vertex 0.00299931 12.1 5.7
      vertex 0.00299931 1.199 4.001
      vertex 0.00299931 9.101 4.001
    endloop
  endfacet
  facet normal 1 0 0
    outer loop
      vertex 0.00299931 1.199 4.001
      vertex 0.00299931 0 4
      vertex 0.00299931 1.199 4
    endloop
  endfacet
  facet normal 1 -0 0
    outer loop
      vertex 0.00299931 -1.8 5.7
      vertex 0.00299931 1.199 4.001
      vertex 0.00299931 12.1 5.7
    endloop
  endfacet
  facet normal 1 0 0
    outer loop
      vertex 0.00299931 0 4
      vertex 0.00299931 -1.8 5.7
      vertex 0.00299931 0 0
    endloop
  endfacet
  facet normal 1 0 0
    outer loop
      vertex 0.00299931 1.199 4.001
      vertex 0.00299931 -1.8 5.7
      vertex 0.00299931 0 4
    endloop
  endfacet
  facet normal 1 -0 0
    outer loop
      vertex 0.00299931 10.3 0
      vertex 0.00299931 12.1 -1.7
      vertex 0.00299931 10.3 4
    endloop
  endfacet
  facet normal 1 -0 0
    outer loop
      vertex 0.00299931 0 0
      vertex 0.00299931 12.1 -1.7
      vertex 0.00299931 10.3 0
    endloop
  endfacet
  facet normal 1 0 0
    outer loop
      vertex 0.00299931 0 0
      vertex 0.00299931 -1.8 -1.7
      vertex 0.00299931 12.1 -1.7
    endloop
  endfacet
  facet normal 1 0 0
    outer loop
      vertex 0.00299931 -1.8 -1.7
      vertex 0.00299931 0 0
      vertex 0.00299931 -1.8 5.7
    endloop
  endfacet
  facet normal 1 0 0
    outer loop
      vertex 0.00299931 10.3 4
      vertex 0.00299931 9.101 4.001
      vertex 0.00299931 9.101 4
    endloop
  endfacet
  facet normal -0 0 1
    outer loop
      vertex -7.799 12.1 5.7
      vertex 0.00299931 -1.8 5.7
      vertex 0.00299931 12.1 5.7
    endloop
  endfacet
  facet normal 0 0 1
    outer loop
      vertex 0.00299931 -1.8 5.7
      vertex -7.799 12.1 5.7
      vertex -7.799 -1.8 5.7
    endloop
  endfacet
  facet normal 0 0 -1
    outer loop
      vertex -7.799 -1.8 -1.7
      vertex 0.00299931 12.1 -1.7
      vertex 0.00299931 -1.8 -1.7
    endloop
  endfacet
  facet normal -0 0 -1
    outer loop
      vertex 0.00299931 12.1 -1.7
      vertex -7.799 -1.8 -1.7
      vertex -7.799 12.1 -1.7
    endloop
  endfacet
  facet normal -1 0 0
    outer loop
      vertex -7.799 12.1 -1.7
      vertex -7.799 8.96 1.525
      vertex -7.799 12.1 5.7
    endloop
  endfacet
  facet normal -1 0 0
    outer loop
      vertex -7.799 12.1 -1.7
      vertex -7.799 1.34 1.525
      vertex -7.799 8.96 1.525
    endloop
  endfacet
  facet normal -1 0 0
    outer loop
      vertex -7.799 -1.8 5.7
      vertex -7.799 1.34 1.525
      vertex -7.799 -1.8 -1.7
    endloop
  endfacet
  facet normal -1 0 0
    outer loop
      vertex -7.799 -1.8 -1.7
      vertex -7.799 1.34 1.525
      vertex -7.799 12.1 -1.7
    endloop
  endfacet
  facet normal -1 0 0
    outer loop
      vertex -7.799 8.96 4.065
      vertex -7.799 12.1 5.7
      vertex -7.799 8.96 1.525
    endloop
  endfacet
  facet normal -1 0 0
    outer loop
      vertex -7.799 1.34 4.065
      vertex -7.799 12.1 5.7
      vertex -7.799 8.96 4.065
    endloop
  endfacet
  facet normal -1 0 0
    outer loop
      vertex -7.799 1.34 4.065
      vertex -7.799 -1.8 5.7
      vertex -7.799 12.1 5.7
    endloop
  endfacet
  facet normal -1 0 0
    outer loop
      vertex -7.799 1.34 1.525
      vertex -7.799 -1.8 5.7
      vertex -7.799 1.34 4.065
    endloop
  endfacet
  facet normal 0 1 -0
    outer loop
      vertex 0.00299931 12.1 -1.7
      vertex -7.799 12.1 5.7
      vertex 0.00299931 12.1 5.7
    endloop
  endfacet
  facet normal 0 1 0
    outer loop
      vertex -7.799 12.1 5.7
      vertex 0.00299931 12.1 -1.7
      vertex -7.799 12.1 -1.7
    endloop
  endfacet
  facet normal 0 -1 0
    outer loop
      vertex -7.799 -1.8 -1.7
      vertex 0.00299931 -1.8 5.7
      vertex -7.799 -1.8 5.7
    endloop
  endfacet
  facet normal 0 -1 -0
    outer loop
      vertex 0.00299931 -1.8 5.7
      vertex -7.799 -1.8 -1.7
      vertex 0.00299931 -1.8 -1.7
    endloop
  endfacet
  facet normal 0 0 -1
    outer loop
      vertex -2.5 1.61214 3.05
      vertex -0.000999451 2.33786 3.05
      vertex -0.000999451 1.61214 3.05
    endloop
  endfacet
  facet normal -0 0 -1
    outer loop
      vertex -0.000999451 2.33786 3.05
      vertex -2.5 1.61214 3.05
      vertex -2.5 2.33786 3.05
    endloop
  endfacet
  facet normal 0 0 1
    outer loop
      vertex 5.9 2.33786 2.75
      vertex 5.43212 2.08939 2.75
      vertex 5.9 1.61214 2.75
    endloop
  endfacet
  facet normal 0 0 1
    outer loop
      vertex 5.9 2.33786 2.75
      vertex 5.1 2.08939 2.75
      vertex 5.43212 2.08939 2.75
    endloop
  endfacet
  facet normal 0 0 1
    outer loop
      vertex -2.5 1.61214 2.75
      vertex 5.1 2.08939 2.75
      vertex -2.5 2.33786 2.75
    endloop
  endfacet
  facet normal -0 0 1
    outer loop
      vertex -2.5 2.33786 2.75
      vertex 5.1 2.08939 2.75
      vertex 5.9 2.33786 2.75
    endloop
  endfacet
  facet normal -0 0 1
    outer loop
      vertex 5.43212 1.77089 2.75
      vertex 5.9 1.61214 2.75
      vertex 5.43212 2.08939 2.75
    endloop
  endfacet
  facet normal -0 0 1
    outer loop
      vertex 5.1 1.77089 2.75
      vertex 5.9 1.61214 2.75
      vertex 5.43212 1.77089 2.75
    endloop
  endfacet
  facet normal 0 0 1
    outer loop
      vertex 5.1 2.08939 2.75
      vertex -2.5 1.61214 2.75
      vertex 5.1 1.77089 2.75
    endloop
  endfacet
  facet normal 0 0 1
    outer loop
      vertex 5.1 1.77089 2.75
      vertex -2.5 1.61214 2.75
      vertex 5.9 1.61214 2.75
    endloop
  endfacet
  facet normal 0 -1 0
    outer loop
      vertex -2.5 2.33786 3.05
      vertex -0.000999451 2.33786 3.049
      vertex -0.000999451 2.33786 3.05
    endloop
  endfacet
  facet normal 0 -1 0
    outer loop
      vertex -2.5 2.33786 2.75
      vertex -0.000999451 2.33786 3.049
      vertex -2.5 2.33786 3.05
    endloop
  endfacet
  facet normal 0 -1 0
    outer loop
      vertex 5.9 2.33786 2.75
      vertex -0.000999451 2.33786 3.049
      vertex -2.5 2.33786 2.75
    endloop
  endfacet
  facet normal 0 -1 0
    outer loop
      vertex -0.000999451 2.33786 3.049
      vertex 5.9 2.33786 2.75
      vertex 5.9 2.33786 3.049
    endloop
  endfacet
  facet normal 0 1 0
    outer loop
      vertex 5.9 1.61214 3.049
      vertex 5.9 1.61214 2.75
      vertex -0.000999451 1.61214 3.049
    endloop
  endfacet
  facet normal 0 1 -0
    outer loop
      vertex -0.000999451 1.61214 3.049
      vertex -2.5 1.61214 3.05
      vertex -0.000999451 1.61214 3.05
    endloop
  endfacet
  facet normal 0 1 0
    outer loop
      vertex -2.5 1.61214 2.75
      vertex -0.000999451 1.61214 3.049
      vertex 5.9 1.61214 2.75
    endloop
  endfacet
  facet normal 0 1 0
    outer loop
      vertex -0.000999451 1.61214 3.049
      vertex -2.5 1.61214 2.75
      vertex -2.5 1.61214 3.05
    endloop
  endfacet
  facet normal -0.906312 0 -0.422609
    outer loop
      vertex 5.64116 1.77089 2.3017
      vertex 5.43212 2.08939 2.75
      vertex 5.64116 2.08939 2.3017
    endloop
  endfacet
  facet normal -0.906312 -0 -0.422609
    outer loop
      vertex 5.43212 2.08939 2.75
      vertex 5.64116 1.77089 2.3017
      vertex 5.43212 1.77089 2.75
    endloop
  endfacet
  facet normal 0.906311 -0 0.422612
    outer loop
      vertex 5.1 1.77089 2.75
      vertex 5.36836 2.08939 2.17449
      vertex 5.1 2.08939 2.75
    endloop
  endfacet
  facet normal 0.906311 0 0.422612
    outer loop
      vertex 5.36836 2.08939 2.17449
      vertex 5.1 1.77089 2.75
      vertex 5.36836 1.77089 2.17449
    endloop
  endfacet
  facet normal -0.422622 0 0.906306
    outer loop
      vertex 5.36836 2.08939 2.17449
      vertex 5.64116 1.77089 2.3017
      vertex 5.64116 2.08939 2.3017
    endloop
  endfacet
  facet normal -0.422622 0 0.906306
    outer loop
      vertex 5.64116 1.77089 2.3017
      vertex 5.36836 2.08939 2.17449
      vertex 5.36836 1.77089 2.17449
    endloop
  endfacet
  facet normal 0 1 0
    outer loop
      vertex 5.36836 1.77089 2.17449
      vertex 5.43212 1.77089 2.75
      vertex 5.64116 1.77089 2.3017
    endloop
  endfacet
  facet normal 0 1 0
    outer loop
      vertex 5.43212 1.77089 2.75
      vertex 5.36836 1.77089 2.17449
      vertex 5.1 1.77089 2.75
    endloop
  endfacet
  facet normal 0 -1 0
    outer loop
      vertex 5.36836 2.08939 2.17449
      vertex 5.43212 2.08939 2.75
      vertex 5.1 2.08939 2.75
    endloop
  endfacet
  facet normal 0 -1 -0
    outer loop
      vertex 5.43212 2.08939 2.75
      vertex 5.36836 2.08939 2.17449
      vertex 5.64116 2.08939 2.3017
    endloop
  endfacet
  facet normal 0 0 -1
    outer loop
      vertex -2.5 2.88214 3.05
      vertex -0.000999451 3.60786 3.05
      vertex -0.000999451 2.88214 3.05
    endloop
  endfacet
  facet normal -0 0 -1
    outer loop
      vertex -0.000999451 3.60786 3.05
      vertex -2.5 2.88214 3.05
      vertex -2.5 3.60786 3.05
    endloop
  endfacet
  facet normal 0 0 1
    outer loop
      vertex 5.9 3.60786 2.75
      vertex 5.43212 3.35939 2.75
      vertex 5.9 2.88214 2.75
    endloop
  endfacet
  facet normal 0 0 1
    outer loop
      vertex 5.9 3.60786 2.75
      vertex 5.1 3.35939 2.75
      vertex 5.43212 3.35939 2.75
    endloop
  endfacet
  facet normal 0 0 1
    outer loop
      vertex -2.5 2.88214 2.75
      vertex 5.1 3.35939 2.75
      vertex -2.5 3.60786 2.75
    endloop
  endfacet
  facet normal -0 0 1
    outer loop
      vertex -2.5 3.60786 2.75
      vertex 5.1 3.35939 2.75
      vertex 5.9 3.60786 2.75
    endloop
  endfacet
  facet normal -0 0 1
    outer loop
      vertex 5.43212 3.04089 2.75
      vertex 5.9 2.88214 2.75
      vertex 5.43212 3.35939 2.75
    endloop
  endfacet
  facet normal -0 0 1
    outer loop
      vertex 5.1 3.04089 2.75
      vertex 5.9 2.88214 2.75
      vertex 5.43212 3.04089 2.75
    endloop
  endfacet
  facet normal 0 0 1
    outer loop
      vertex 5.1 3.35939 2.75
      vertex -2.5 2.88214 2.75
      vertex 5.1 3.04089 2.75
    endloop
  endfacet
  facet normal 0 0 1
    outer loop
      vertex 5.1 3.04089 2.75
      vertex -2.5 2.88214 2.75
      vertex 5.9 2.88214 2.75
    endloop
  endfacet
  facet normal 0 -1 0
    outer loop
      vertex -2.5 3.60786 3.05
      vertex -0.000999451 3.60786 3.049
      vertex -0.000999451 3.60786 3.05
    endloop
  endfacet
  facet normal 0 -1 0
    outer loop
      vertex -2.5 3.60786 2.75
      vertex -0.000999451 3.60786 3.049
      vertex -2.5 3.60786 3.05
    endloop
  endfacet
  facet normal 0 -1 0
    outer loop
      vertex 5.9 3.60786 2.75
      vertex -0.000999451 3.60786 3.049
      vertex -2.5 3.60786 2.75
    endloop
  endfacet
  facet normal 0 -1 0
    outer loop
      vertex -0.000999451 3.60786 3.049
      vertex 5.9 3.60786 2.75
      vertex 5.9 3.60786 3.049
    endloop
  endfacet
  facet normal 0 1 0
    outer loop
      vertex 5.9 2.88214 3.049
      vertex 5.9 2.88214 2.75
      vertex -0.000999451 2.88214 3.049
    endloop
  endfacet
  facet normal 0 1 -0
    outer loop
      vertex -0.000999451 2.88214 3.049
      vertex -2.5 2.88214 3.05
      vertex -0.000999451 2.88214 3.05
    endloop
  endfacet
  facet normal 0 1 0
    outer loop
      vertex -2.5 2.88214 2.75
      vertex -0.000999451 2.88214 3.049
      vertex 5.9 2.88214 2.75
    endloop
  endfacet
  facet normal 0 1 0
    outer loop
      vertex -0.000999451 2.88214 3.049
      vertex -2.5 2.88214 2.75
      vertex -2.5 2.88214 3.05
    endloop
  endfacet
  facet normal 0 -1 0
    outer loop
      vertex 5.36836 3.35939 2.17449
      vertex 5.43212 3.35939 2.75
      vertex 5.1 3.35939 2.75
    endloop
  endfacet
  facet normal 0 -1 -0
    outer loop
      vertex 5.43212 3.35939 2.75
      vertex 5.36836 3.35939 2.17449
      vertex 5.64116 3.35939 2.3017
    endloop
  endfacet
  facet normal -0.906312 0 -0.422609
    outer loop
      vertex 5.64116 3.04089 2.3017
      vertex 5.43212 3.35939 2.75
      vertex 5.64116 3.35939 2.3017
    endloop
  endfacet
  facet normal -0.906312 -0 -0.422609
    outer loop
      vertex 5.43212 3.35939 2.75
      vertex 5.64116 3.04089 2.3017
      vertex 5.43212 3.04089 2.75
    endloop
  endfacet
  facet normal 0.906311 -0 0.422612
    outer loop
      vertex 5.1 3.04089 2.75
      vertex 5.36836 3.35939 2.17449
      vertex 5.1 3.35939 2.75
    endloop
  endfacet
  facet normal 0.906311 0 0.422612
    outer loop
      vertex 5.36836 3.35939 2.17449
      vertex 5.1 3.04089 2.75
      vertex 5.36836 3.04089 2.17449
    endloop
  endfacet
  facet normal -0.422622 0 0.906306
    outer loop
      vertex 5.36836 3.35939 2.17449
      vertex 5.64116 3.04089 2.3017
      vertex 5.64116 3.35939 2.3017
    endloop
  endfacet
  facet normal -0.422622 0 0.906306
    outer loop
      vertex 5.64116 3.04089 2.3017
      vertex 5.36836 3.35939 2.17449
      vertex 5.36836 3.04089 2.17449
    endloop
  endfacet
  facet normal 0 1 0
    outer loop
      vertex 5.36836 3.04089 2.17449
      vertex 5.43212 3.04089 2.75
      vertex 5.64116 3.04089 2.3017
    endloop
  endfacet
  facet normal 0 1 0
    outer loop
      vertex 5.43212 3.04089 2.75
      vertex 5.36836 3.04089 2.17449
      vertex 5.1 3.04089 2.75
    endloop
  endfacet
  facet normal 0 0 -1
    outer loop
      vertex -2.5 4.15214 3.05
      vertex -0.000999451 4.87786 3.05
      vertex -0.000999451 4.15214 3.05
    endloop
  endfacet
  facet normal -0 0 -1
    outer loop
      vertex -0.000999451 4.87786 3.05
      vertex -2.5 4.15214 3.05
      vertex -2.5 4.87786 3.05
    endloop
  endfacet
  facet normal 0 0 1
    outer loop
      vertex 5.9 4.87786 2.75
      vertex 5.43212 4.62939 2.75
      vertex 5.9 4.15214 2.75
    endloop
  endfacet
  facet normal 0 0 1
    outer loop
      vertex 5.9 4.87786 2.75
      vertex 5.1 4.62939 2.75
      vertex 5.43212 4.62939 2.75
    endloop
  endfacet
  facet normal 0 0 1
    outer loop
      vertex -2.5 4.15214 2.75
      vertex 5.1 4.62939 2.75
      vertex -2.5 4.87786 2.75
    endloop
  endfacet
  facet normal -0 0 1
    outer loop
      vertex -2.5 4.87786 2.75
      vertex 5.1 4.62939 2.75
      vertex 5.9 4.87786 2.75
    endloop
  endfacet
  facet normal -0 0 1
    outer loop
      vertex 5.43212 4.31089 2.75
      vertex 5.9 4.15214 2.75
      vertex 5.43212 4.62939 2.75
    endloop
  endfacet
  facet normal -0 0 1
    outer loop
      vertex 5.1 4.31089 2.75
      vertex 5.9 4.15214 2.75
      vertex 5.43212 4.31089 2.75
    endloop
  endfacet
  facet normal 0 0 1
    outer loop
      vertex 5.1 4.62939 2.75
      vertex -2.5 4.15214 2.75
      vertex 5.1 4.31089 2.75
    endloop
  endfacet
  facet normal 0 0 1
    outer loop
      vertex 5.1 4.31089 2.75
      vertex -2.5 4.15214 2.75
      vertex 5.9 4.15214 2.75
    endloop
  endfacet
  facet normal 0 -1 0
    outer loop
      vertex -2.5 4.87786 3.05
      vertex -0.000999451 4.87786 3.049
      vertex -0.000999451 4.87786 3.05
    endloop
  endfacet
  facet normal 0 -1 0
    outer loop
      vertex -2.5 4.87786 2.75
      vertex -0.000999451 4.87786 3.049
      vertex -2.5 4.87786 3.05
    endloop
  endfacet
  facet normal 0 -1 0
    outer loop
      vertex 5.9 4.87786 2.75
      vertex -0.000999451 4.87786 3.049
      vertex -2.5 4.87786 2.75
    endloop
  endfacet
  facet normal 0 -1 0
    outer loop
      vertex -0.000999451 4.87786 3.049
      vertex 5.9 4.87786 2.75
      vertex 5.9 4.87786 3.049
    endloop
  endfacet
  facet normal 0 1 0
    outer loop
      vertex 5.9 4.15214 3.049
      vertex 5.9 4.15214 2.75
      vertex -0.000999451 4.15214 3.049
    endloop
  endfacet
  facet normal 0 1 -0
    outer loop
      vertex -0.000999451 4.15214 3.049
      vertex -2.5 4.15214 3.05
      vertex -0.000999451 4.15214 3.05
    endloop
  endfacet
  facet normal 0 1 0
    outer loop
      vertex -2.5 4.15214 2.75
      vertex -0.000999451 4.15214 3.049
      vertex 5.9 4.15214 2.75
    endloop
  endfacet
  facet normal 0 1 0
    outer loop
      vertex -0.000999451 4.15214 3.049
      vertex -2.5 4.15214 2.75
      vertex -2.5 4.15214 3.05
    endloop
  endfacet
  facet normal 0 -1 0
    outer loop
      vertex 5.36836 4.62939 2.17449
      vertex 5.43212 4.62939 2.75
      vertex 5.1 4.62939 2.75
    endloop
  endfacet
  facet normal 0 -1 -0
    outer loop
      vertex 5.43212 4.62939 2.75
      vertex 5.36836 4.62939 2.17449
      vertex 5.64116 4.62939 2.3017
    endloop
  endfacet
  facet normal 0 1 0
    outer loop
      vertex 5.36836 4.31089 2.17449
      vertex 5.43212 4.31089 2.75
      vertex 5.64116 4.31089 2.3017
    endloop
  endfacet
  facet normal 0 1 0
    outer loop
      vertex 5.43212 4.31089 2.75
      vertex 5.36836 4.31089 2.17449
      vertex 5.1 4.31089 2.75
    endloop
  endfacet
  facet normal -0.906312 0 -0.422609
    outer loop
      vertex 5.64116 4.31089 2.3017
      vertex 5.43212 4.62939 2.75
      vertex 5.64116 4.62939 2.3017
    endloop
  endfacet
  facet normal -0.906312 -0 -0.422609
    outer loop
      vertex 5.43212 4.62939 2.75
      vertex 5.64116 4.31089 2.3017
      vertex 5.43212 4.31089 2.75
    endloop
  endfacet
  facet normal 0.906311 -0 0.422612
    outer loop
      vertex 5.1 4.31089 2.75
      vertex 5.36836 4.62939 2.17449
      vertex 5.1 4.62939 2.75
    endloop
  endfacet
  facet normal 0.906311 0 0.422612
    outer loop
      vertex 5.36836 4.62939 2.17449
      vertex 5.1 4.31089 2.75
      vertex 5.36836 4.31089 2.17449
    endloop
  endfacet
  facet normal -0.422622 0 0.906306
    outer loop
      vertex 5.36836 4.62939 2.17449
      vertex 5.64116 4.31089 2.3017
      vertex 5.64116 4.62939 2.3017
    endloop
  endfacet
  facet normal -0.422622 0 0.906306
    outer loop
      vertex 5.64116 4.31089 2.3017
      vertex 5.36836 4.62939 2.17449
      vertex 5.36836 4.31089 2.17449
    endloop
  endfacet
  facet normal 0 0 -1
    outer loop
      vertex -2.5 5.42214 3.05
      vertex -0.000999451 6.14786 3.05
      vertex -0.000999451 5.42214 3.05
    endloop
  endfacet
  facet normal -0 0 -1
    outer loop
      vertex -0.000999451 6.14786 3.05
      vertex -2.5 5.42214 3.05
      vertex -2.5 6.14786 3.05
    endloop
  endfacet
  facet normal 0 0 1
    outer loop
      vertex 5.9 6.14786 2.75
      vertex 5.43212 5.89939 2.75
      vertex 5.9 5.42214 2.75
    endloop
  endfacet
  facet normal 0 0 1
    outer loop
      vertex 5.9 6.14786 2.75
      vertex 5.1 5.89939 2.75
      vertex 5.43212 5.89939 2.75
    endloop
  endfacet
  facet normal 0 0 1
    outer loop
      vertex -2.5 5.42214 2.75
      vertex 5.1 5.89939 2.75
      vertex -2.5 6.14786 2.75
    endloop
  endfacet
  facet normal -0 0 1
    outer loop
      vertex -2.5 6.14786 2.75
      vertex 5.1 5.89939 2.75
      vertex 5.9 6.14786 2.75
    endloop
  endfacet
  facet normal -0 0 1
    outer loop
      vertex 5.43212 5.58089 2.75
      vertex 5.9 5.42214 2.75
      vertex 5.43212 5.89939 2.75
    endloop
  endfacet
  facet normal -0 0 1
    outer loop
      vertex 5.1 5.58089 2.75
      vertex 5.9 5.42214 2.75
      vertex 5.43212 5.58089 2.75
    endloop
  endfacet
  facet normal 0 0 1
    outer loop
      vertex 5.1 5.89939 2.75
      vertex -2.5 5.42214 2.75
      vertex 5.1 5.58089 2.75
    endloop
  endfacet
  facet normal 0 0 1
    outer loop
      vertex 5.1 5.58089 2.75
      vertex -2.5 5.42214 2.75
      vertex 5.9 5.42214 2.75
    endloop
  endfacet
  facet normal 0 -1 0
    outer loop
      vertex -2.5 6.14786 3.05
      vertex -0.000999451 6.14786 3.049
      vertex -0.000999451 6.14786 3.05
    endloop
  endfacet
  facet normal 0 -1 0
    outer loop
      vertex -2.5 6.14786 2.75
      vertex -0.000999451 6.14786 3.049
      vertex -2.5 6.14786 3.05
    endloop
  endfacet
  facet normal 0 -1 0
    outer loop
      vertex 5.9 6.14786 2.75
      vertex -0.000999451 6.14786 3.049
      vertex -2.5 6.14786 2.75
    endloop
  endfacet
  facet normal 0 -1 0
    outer loop
      vertex -0.000999451 6.14786 3.049
      vertex 5.9 6.14786 2.75
      vertex 5.9 6.14786 3.049
    endloop
  endfacet
  facet normal 0 1 0
    outer loop
      vertex 5.9 5.42214 3.049
      vertex 5.9 5.42214 2.75
      vertex -0.000999451 5.42214 3.049
    endloop
  endfacet
  facet normal 0 1 -0
    outer loop
      vertex -0.000999451 5.42214 3.049
      vertex -2.5 5.42214 3.05
      vertex -0.000999451 5.42214 3.05
    endloop
  endfacet
  facet normal 0 1 0
    outer loop
      vertex -2.5 5.42214 2.75
      vertex -0.000999451 5.42214 3.049
      vertex 5.9 5.42214 2.75
    endloop
  endfacet
  facet normal 0 1 0
    outer loop
      vertex -0.000999451 5.42214 3.049
      vertex -2.5 5.42214 2.75
      vertex -2.5 5.42214 3.05
    endloop
  endfacet
  facet normal 0 -1 0
    outer loop
      vertex 5.36836 5.89939 2.17449
      vertex 5.43212 5.89939 2.75
      vertex 5.1 5.89939 2.75
    endloop
  endfacet
  facet normal 0 -1 -0
    outer loop
      vertex 5.43212 5.89939 2.75
      vertex 5.36836 5.89939 2.17449
      vertex 5.64116 5.89939 2.3017
    endloop
  endfacet
  facet normal -0.906312 0 -0.422609
    outer loop
      vertex 5.64116 5.58089 2.3017
      vertex 5.43212 5.89939 2.75
      vertex 5.64116 5.89939 2.3017
    endloop
  endfacet
  facet normal -0.906312 -0 -0.422609
    outer loop
      vertex 5.43212 5.89939 2.75
      vertex 5.64116 5.58089 2.3017
      vertex 5.43212 5.58089 2.75
    endloop
  endfacet
  facet normal 0.906311 -0 0.422612
    outer loop
      vertex 5.1 5.58089 2.75
      vertex 5.36836 5.89939 2.17449
      vertex 5.1 5.89939 2.75
    endloop
  endfacet
  facet normal 0.906311 0 0.422612
    outer loop
      vertex 5.36836 5.89939 2.17449
      vertex 5.1 5.58089 2.75
      vertex 5.36836 5.58089 2.17449
    endloop
  endfacet
  facet normal -0.422622 0 0.906306
    outer loop
      vertex 5.36836 5.89939 2.17449
      vertex 5.64116 5.58089 2.3017
      vertex 5.64116 5.89939 2.3017
    endloop
  endfacet
  facet normal -0.422622 0 0.906306
    outer loop
      vertex 5.64116 5.58089 2.3017
      vertex 5.36836 5.89939 2.17449
      vertex 5.36836 5.58089 2.17449
    endloop
  endfacet
  facet normal 0 1 0
    outer loop
      vertex 5.36836 5.58089 2.17449
      vertex 5.43212 5.58089 2.75
      vertex 5.64116 5.58089 2.3017
    endloop
  endfacet
  facet normal 0 1 0
    outer loop
      vertex 5.43212 5.58089 2.75
      vertex 5.36836 5.58089 2.17449
      vertex 5.1 5.58089 2.75
    endloop
  endfacet
  facet normal 0 0 -1
    outer loop
      vertex -2.5 6.69214 3.05
      vertex -0.000999451 7.41786 3.05
      vertex -0.000999451 6.69214 3.05
    endloop
  endfacet
  facet normal -0 0 -1
    outer loop
      vertex -0.000999451 7.41786 3.05
      vertex -2.5 6.69214 3.05
      vertex -2.5 7.41786 3.05
    endloop
  endfacet
  facet normal 0 0 1
    outer loop
      vertex 5.9 7.41786 2.75
      vertex 5.43212 7.16939 2.75
      vertex 5.9 6.69214 2.75
    endloop
  endfacet
  facet normal 0 0 1
    outer loop
      vertex 5.9 7.41786 2.75
      vertex 5.1 7.16939 2.75
      vertex 5.43212 7.16939 2.75
    endloop
  endfacet
  facet normal 0 0 1
    outer loop
      vertex -2.5 6.69214 2.75
      vertex 5.1 7.16939 2.75
      vertex -2.5 7.41786 2.75
    endloop
  endfacet
  facet normal -0 0 1
    outer loop
      vertex -2.5 7.41786 2.75
      vertex 5.1 7.16939 2.75
      vertex 5.9 7.41786 2.75
    endloop
  endfacet
  facet normal -0 0 1
    outer loop
      vertex 5.43212 6.85089 2.75
      vertex 5.9 6.69214 2.75
      vertex 5.43212 7.16939 2.75
    endloop
  endfacet
  facet normal -0 0 1
    outer loop
      vertex 5.1 6.85089 2.75
      vertex 5.9 6.69214 2.75
      vertex 5.43212 6.85089 2.75
    endloop
  endfacet
  facet normal 0 0 1
    outer loop
      vertex 5.1 7.16939 2.75
      vertex -2.5 6.69214 2.75
      vertex 5.1 6.85089 2.75
    endloop
  endfacet
  facet normal 0 0 1
    outer loop
      vertex 5.1 6.85089 2.75
      vertex -2.5 6.69214 2.75
      vertex 5.9 6.69214 2.75
    endloop
  endfacet
  facet normal 0 -1 0
    outer loop
      vertex -2.5 7.41786 3.05
      vertex -0.000999451 7.41786 3.049
      vertex -0.000999451 7.41786 3.05
    endloop
  endfacet
  facet normal 0 -1 0
    outer loop
      vertex -2.5 7.41786 2.75
      vertex -0.000999451 7.41786 3.049
      vertex -2.5 7.41786 3.05
    endloop
  endfacet
  facet normal 0 -1 0
    outer loop
      vertex 5.9 7.41786 2.75
      vertex -0.000999451 7.41786 3.049
      vertex -2.5 7.41786 2.75
    endloop
  endfacet
  facet normal 0 -1 0
    outer loop
      vertex -0.000999451 7.41786 3.049
      vertex 5.9 7.41786 2.75
      vertex 5.9 7.41786 3.049
    endloop
  endfacet
  facet normal 0 1 0
    outer loop
      vertex 5.9 6.69214 3.049
      vertex 5.9 6.69214 2.75
      vertex -0.000999451 6.69214 3.049
    endloop
  endfacet
  facet normal 0 1 -0
    outer loop
      vertex -0.000999451 6.69214 3.049
      vertex -2.5 6.69214 3.05
      vertex -0.000999451 6.69214 3.05
    endloop
  endfacet
  facet normal 0 1 0
    outer loop
      vertex -2.5 6.69214 2.75
      vertex -0.000999451 6.69214 3.049
      vertex 5.9 6.69214 2.75
    endloop
  endfacet
  facet normal 0 1 0
    outer loop
      vertex -0.000999451 6.69214 3.049
      vertex -2.5 6.69214 2.75
      vertex -2.5 6.69214 3.05
    endloop
  endfacet
  facet normal 0 1 0
    outer loop
      vertex 5.36836 6.85089 2.17449
      vertex 5.43212 6.85089 2.75
      vertex 5.64116 6.85089 2.3017
    endloop
  endfacet
  facet normal 0 1 0
    outer loop
      vertex 5.43212 6.85089 2.75
      vertex 5.36836 6.85089 2.17449
      vertex 5.1 6.85089 2.75
    endloop
  endfacet
  facet normal -0.906312 0 -0.422609
    outer loop
      vertex 5.64116 6.85089 2.3017
      vertex 5.43212 7.16939 2.75
      vertex 5.64116 7.16939 2.3017
    endloop
  endfacet
  facet normal -0.906312 -0 -0.422609
    outer loop
      vertex 5.43212 7.16939 2.75
      vertex 5.64116 6.85089 2.3017
      vertex 5.43212 6.85089 2.75
    endloop
  endfacet
  facet normal 0.906311 -0 0.422612
    outer loop
      vertex 5.1 6.85089 2.75
      vertex 5.36836 7.16939 2.17449
      vertex 5.1 7.16939 2.75
    endloop
  endfacet
  facet normal 0.906311 0 0.422612
    outer loop
      vertex 5.36836 7.16939 2.17449
      vertex 5.1 6.85089 2.75
      vertex 5.36836 6.85089 2.17449
    endloop
  endfacet
  facet normal -0.422622 0 0.906306
    outer loop
      vertex 5.36836 7.16939 2.17449
      vertex 5.64116 6.85089 2.3017
      vertex 5.64116 7.16939 2.3017
    endloop
  endfacet
  facet normal -0.422622 0 0.906306
    outer loop
      vertex 5.64116 6.85089 2.3017
      vertex 5.36836 7.16939 2.17449
      vertex 5.36836 6.85089 2.17449
    endloop
  endfacet
  facet normal 0 -1 0
    outer loop
      vertex 5.36836 7.16939 2.17449
      vertex 5.43212 7.16939 2.75
      vertex 5.1 7.16939 2.75
    endloop
  endfacet
  facet normal 0 -1 -0
    outer loop
      vertex 5.43212 7.16939 2.75
      vertex 5.36836 7.16939 2.17449
      vertex 5.64116 7.16939 2.3017
    endloop
  endfacet
  facet normal 0 0 -1
    outer loop
      vertex -2.5 7.96214 3.05
      vertex -0.000999451 8.68786 3.05
      vertex -0.000999451 7.96214 3.05
    endloop
  endfacet
  facet normal -0 0 -1
    outer loop
      vertex -0.000999451 8.68786 3.05
      vertex -2.5 7.96214 3.05
      vertex -2.5 8.68786 3.05
    endloop
  endfacet
  facet normal 0 0 1
    outer loop
      vertex 5.9 8.68786 2.75
      vertex 5.43212 8.43939 2.75
      vertex 5.9 7.96214 2.75
    endloop
  endfacet
  facet normal 0 0 1
    outer loop
      vertex 5.9 8.68786 2.75
      vertex 5.1 8.43939 2.75
      vertex 5.43212 8.43939 2.75
    endloop
  endfacet
  facet normal 0 0 1
    outer loop
      vertex -2.5 7.96214 2.75
      vertex 5.1 8.43939 2.75
      vertex -2.5 8.68786 2.75
    endloop
  endfacet
  facet normal -0 0 1
    outer loop
      vertex -2.5 8.68786 2.75
      vertex 5.1 8.43939 2.75
      vertex 5.9 8.68786 2.75
    endloop
  endfacet
  facet normal -0 0 1
    outer loop
      vertex 5.43212 8.12089 2.75
      vertex 5.9 7.96214 2.75
      vertex 5.43212 8.43939 2.75
    endloop
  endfacet
  facet normal -0 0 1
    outer loop
      vertex 5.1 8.12089 2.75
      vertex 5.9 7.96214 2.75
      vertex 5.43212 8.12089 2.75
    endloop
  endfacet
  facet normal 0 0 1
    outer loop
      vertex 5.1 8.43939 2.75
      vertex -2.5 7.96214 2.75
      vertex 5.1 8.12089 2.75
    endloop
  endfacet
  facet normal 0 0 1
    outer loop
      vertex 5.1 8.12089 2.75
      vertex -2.5 7.96214 2.75
      vertex 5.9 7.96214 2.75
    endloop
  endfacet
  facet normal 0 -1 0
    outer loop
      vertex -2.5 8.68786 3.05
      vertex -0.000999451 8.68786 3.049
      vertex -0.000999451 8.68786 3.05
    endloop
  endfacet
  facet normal 0 -1 0
    outer loop
      vertex -2.5 8.68786 2.75
      vertex -0.000999451 8.68786 3.049
      vertex -2.5 8.68786 3.05
    endloop
  endfacet
  facet normal 0 -1 0
    outer loop
      vertex 5.9 8.68786 2.75
      vertex -0.000999451 8.68786 3.049
      vertex -2.5 8.68786 2.75
    endloop
  endfacet
  facet normal 0 -1 0
    outer loop
      vertex -0.000999451 8.68786 3.049
      vertex 5.9 8.68786 2.75
      vertex 5.9 8.68786 3.049
    endloop
  endfacet
  facet normal 0 1 0
    outer loop
      vertex 5.9 7.96214 3.049
      vertex 5.9 7.96214 2.75
      vertex -0.000999451 7.96214 3.049
    endloop
  endfacet
  facet normal 0 1 -0
    outer loop
      vertex -0.000999451 7.96214 3.049
      vertex -2.5 7.96214 3.05
      vertex -0.000999451 7.96214 3.05
    endloop
  endfacet
  facet normal 0 1 0
    outer loop
      vertex -2.5 7.96214 2.75
      vertex -0.000999451 7.96214 3.049
      vertex 5.9 7.96214 2.75
    endloop
  endfacet
  facet normal 0 1 0
    outer loop
      vertex -0.000999451 7.96214 3.049
      vertex -2.5 7.96214 2.75
      vertex -2.5 7.96214 3.05
    endloop
  endfacet
  facet normal 0.906311 -0 0.422612
    outer loop
      vertex 5.1 8.12089 2.75
      vertex 5.36836 8.43939 2.17449
      vertex 5.1 8.43939 2.75
    endloop
  endfacet
  facet normal 0.906311 0 0.422612
    outer loop
      vertex 5.36836 8.43939 2.17449
      vertex 5.1 8.12089 2.75
      vertex 5.36836 8.12089 2.17449
    endloop
  endfacet
  facet normal -0.422622 0 0.906306
    outer loop
      vertex 5.36836 8.43939 2.17449
      vertex 5.64116 8.12089 2.3017
      vertex 5.64116 8.43939 2.3017
    endloop
  endfacet
  facet normal -0.422622 0 0.906306
    outer loop
      vertex 5.64116 8.12089 2.3017
      vertex 5.36836 8.43939 2.17449
      vertex 5.36836 8.12089 2.17449
    endloop
  endfacet
  facet normal 0 1 0
    outer loop
      vertex 5.36836 8.12089 2.17449
      vertex 5.43212 8.12089 2.75
      vertex 5.64116 8.12089 2.3017
    endloop
  endfacet
  facet normal 0 1 0
    outer loop
      vertex 5.43212 8.12089 2.75
      vertex 5.36836 8.12089 2.17449
      vertex 5.1 8.12089 2.75
    endloop
  endfacet
  facet normal 0 -1 0
    outer loop
      vertex 5.36836 8.43939 2.17449
      vertex 5.43212 8.43939 2.75
      vertex 5.1 8.43939 2.75
    endloop
  endfacet
  facet normal 0 -1 -0
    outer loop
      vertex 5.43212 8.43939 2.75
      vertex 5.36836 8.43939 2.17449
      vertex 5.64116 8.43939 2.3017
    endloop
  endfacet
  facet normal -0.906312 0 -0.422609
    outer loop
      vertex 5.64116 8.12089 2.3017
      vertex 5.43212 8.43939 2.75
      vertex 5.64116 8.43939 2.3017
    endloop
  endfacet
  facet normal -0.906312 -0 -0.422609
    outer loop
      vertex 5.43212 8.43939 2.75
      vertex 5.64116 8.12089 2.3017
      vertex 5.43212 8.12089 2.75
    endloop
  endfacet
  facet normal -1 0 0
    outer loop
      vertex 4.3 0 0
      vertex 4.3 0.200999 4
      vertex 4.3 0.200999 0
    endloop
  endfacet
  facet normal -1 -0 0
    outer loop
      vertex 4.3 0.200999 4
      vertex 4.3 0 0
      vertex 4.3 0 4
    endloop
  endfacet
  facet normal 1 -0 0
    outer loop
      vertex 3.5 0 4
      vertex 3.5 0.200999 0
      vertex 3.5 0.200999 4
    endloop
  endfacet
  facet normal 1 0 0
    outer loop
      vertex 3.5 0.200999 0
      vertex 3.5 0 4
      vertex 3.5 0 0
    endloop
  endfacet
  facet normal 0 -1 0
    outer loop
      vertex 3.5 0.200999 0
      vertex 4.3 0.200999 4
      vertex 3.5 0.200999 4
    endloop
  endfacet
  facet normal 0 -1 -0
    outer loop
      vertex 4.3 0.200999 4
      vertex 3.5 0.200999 0
      vertex 4.3 0.200999 0
    endloop
  endfacet
  facet normal -1 0 0
    outer loop
      vertex 4.3 10.099 0
      vertex 4.3 10.3 4
      vertex 4.3 10.3 0
    endloop
  endfacet
  facet normal -1 -0 0
    outer loop
      vertex 4.3 10.3 4
      vertex 4.3 10.099 0
      vertex 4.3 10.099 4
    endloop
  endfacet
  facet normal 1 -0 0
    outer loop
      vertex 3.5 10.099 4
      vertex 3.5 10.3 0
      vertex 3.5 10.3 4
    endloop
  endfacet
  facet normal 1 0 0
    outer loop
      vertex 3.5 10.3 0
      vertex 3.5 10.099 4
      vertex 3.5 10.099 0
    endloop
  endfacet
  facet normal 0 1 -0
    outer loop
      vertex 4.3 10.099 0
      vertex 3.5 10.099 4
      vertex 4.3 10.099 4
    endloop
  endfacet
  facet normal 0 1 0
    outer loop
      vertex 3.5 10.099 4
      vertex 4.3 10.099 0
      vertex 3.5 10.099 0
    endloop
  endfacet
  facet normal 0 0 -1
    outer loop
      vertex -0.000999451 1.199 4.001
      vertex 0.00299931 9.101 4.001
      vertex 0.00299931 1.199 4.001
    endloop
  endfacet
  facet normal -0 0 -1
    outer loop
      vertex 0.00299931 9.101 4.001
      vertex -0.000999451 1.199 4.001
      vertex -0.000999451 9.101 4.001
    endloop
  endfacet
  facet normal -0 0 1
    outer loop
      vertex -0.000999451 1.61214 3.049
      vertex 5.9 1.199 3.049
      vertex 5.9 1.61214 3.049
    endloop
  endfacet
  facet normal 0 0 1
    outer loop
      vertex 5.9 1.199 3.049
      vertex -0.000999451 1.61214 3.049
      vertex -0.000999451 1.199 3.049
    endloop
  endfacet
  facet normal -0 0 1
    outer loop
      vertex -0.000999451 9.101 3.049
      vertex 5.9 8.68786 3.049
      vertex 5.9 9.101 3.049
    endloop
  endfacet
  facet normal 0 0 1
    outer loop
      vertex 5.9 8.68786 3.049
      vertex -0.000999451 9.101 3.049
      vertex -0.000999451 8.68786 3.049
    endloop
  endfacet
  facet normal -0 0 1
    outer loop
      vertex -0.000999451 2.88214 3.049
      vertex 5.9 2.33786 3.049
      vertex 5.9 2.88214 3.049
    endloop
  endfacet
  facet normal 0 0 1
    outer loop
      vertex 5.9 2.33786 3.049
      vertex -0.000999451 2.88214 3.049
      vertex -0.000999451 2.33786 3.049
    endloop
  endfacet
  facet normal -0 0 1
    outer loop
      vertex -0.000999451 4.15214 3.049
      vertex 5.9 3.60786 3.049
      vertex 5.9 4.15214 3.049
    endloop
  endfacet
  facet normal 0 0 1
    outer loop
      vertex 5.9 3.60786 3.049
      vertex -0.000999451 4.15214 3.049
      vertex -0.000999451 3.60786 3.049
    endloop
  endfacet
  facet normal -0 0 1
    outer loop
      vertex -0.000999451 5.42214 3.049
      vertex 5.9 4.87786 3.049
      vertex 5.9 5.42214 3.049
    endloop
  endfacet
  facet normal 0 0 1
    outer loop
      vertex 5.9 4.87786 3.049
      vertex -0.000999451 5.42214 3.049
      vertex -0.000999451 4.87786 3.049
    endloop
  endfacet
  facet normal -0 0 1
    outer loop
      vertex -0.000999451 6.69214 3.049
      vertex 5.9 6.14786 3.049
      vertex 5.9 6.69214 3.049
    endloop
  endfacet
  facet normal 0 0 1
    outer loop
      vertex 5.9 6.14786 3.049
      vertex -0.000999451 6.69214 3.049
      vertex -0.000999451 6.14786 3.049
    endloop
  endfacet
  facet normal -0 0 1
    outer loop
      vertex -0.000999451 7.96214 3.049
      vertex 5.9 7.41786 3.049
      vertex 5.9 7.96214 3.049
    endloop
  endfacet
  facet normal 0 0 1
    outer loop
      vertex 5.9 7.41786 3.049
      vertex -0.000999451 7.96214 3.049
      vertex -0.000999451 7.41786 3.049
    endloop
  endfacet
  facet normal 1 0 0
    outer loop
      vertex -0.000999451 9.101 4.001
      vertex -0.000999451 8.68786 3.05
      vertex -0.000999451 9.101 3.049
    endloop
  endfacet
  facet normal 1 0 0
    outer loop
      vertex -0.000999451 9.101 4.001
      vertex -0.000999451 7.96214 3.05
      vertex -0.000999451 8.68786 3.05
    endloop
  endfacet
  facet normal 1 0 0
    outer loop
      vertex -0.000999451 7.96214 3.05
      vertex -0.000999451 7.41786 3.05
      vertex -0.000999451 7.96214 3.049
    endloop
  endfacet
  facet normal 1 0 0
    outer loop
      vertex -0.000999451 9.101 4.001
      vertex -0.000999451 7.41786 3.05
      vertex -0.000999451 7.96214 3.05
    endloop
  endfacet
  facet normal 1 0 0
    outer loop
      vertex -0.000999451 9.101 4.001
      vertex -0.000999451 6.69214 3.05
      vertex -0.000999451 7.41786 3.05
    endloop
  endfacet
  facet normal 1 0 0
    outer loop
      vertex -0.000999451 6.69214 3.05
      vertex -0.000999451 6.14786 3.05
      vertex -0.000999451 6.69214 3.049
    endloop
  endfacet
  facet normal 1 0 0
    outer loop
      vertex -0.000999451 9.101 4.001
      vertex -0.000999451 6.14786 3.05
      vertex -0.000999451 6.69214 3.05
    endloop
  endfacet
  facet normal 1 0 0
    outer loop
      vertex -0.000999451 9.101 4.001
      vertex -0.000999451 5.42214 3.05
      vertex -0.000999451 6.14786 3.05
    endloop
  endfacet
  facet normal 1 0 0
    outer loop
      vertex -0.000999451 5.42214 3.05
      vertex -0.000999451 4.87786 3.05
      vertex -0.000999451 5.42214 3.049
    endloop
  endfacet
  facet normal 1 0 0
    outer loop
      vertex -0.000999451 9.101 4.001
      vertex -0.000999451 4.87786 3.05
      vertex -0.000999451 5.42214 3.05
    endloop
  endfacet
  facet normal 1 -0 0
    outer loop
      vertex -0.000999451 1.199 4.001
      vertex -0.000999451 4.87786 3.05
      vertex -0.000999451 9.101 4.001
    endloop
  endfacet
  facet normal 1 0 0
    outer loop
      vertex -0.000999451 4.15214 3.05
      vertex -0.000999451 3.60786 3.05
      vertex -0.000999451 4.15214 3.049
    endloop
  endfacet
  facet normal 1 0 0
    outer loop
      vertex -0.000999451 4.87786 3.05
      vertex -0.000999451 1.199 4.001
      vertex -0.000999451 4.15214 3.05
    endloop
  endfacet
  facet normal 1 0 0
    outer loop
      vertex -0.000999451 4.15214 3.05
      vertex -0.000999451 1.199 4.001
      vertex -0.000999451 3.60786 3.05
    endloop
  endfacet
  facet normal 1 0 0
    outer loop
      vertex -0.000999451 2.88214 3.05
      vertex -0.000999451 2.33786 3.05
      vertex -0.000999451 2.88214 3.049
    endloop
  endfacet
  facet normal 1 0 0
    outer loop
      vertex -0.000999451 3.60786 3.05
      vertex -0.000999451 1.199 4.001
      vertex -0.000999451 2.88214 3.05
    endloop
  endfacet
  facet normal 1 0 0
    outer loop
      vertex -0.000999451 2.88214 3.05
      vertex -0.000999451 1.199 4.001
      vertex -0.000999451 2.33786 3.05
    endloop
  endfacet
  facet normal 1 0 0
    outer loop
      vertex -0.000999451 2.33786 3.05
      vertex -0.000999451 1.199 4.001
      vertex -0.000999451 1.61214 3.05
    endloop
  endfacet
  facet normal 1 0 0
    outer loop
      vertex -0.000999451 1.199 3.049
      vertex -0.000999451 1.61214 3.05
      vertex -0.000999451 1.199 4.001
    endloop
  endfacet
  facet normal 1 0 0
    outer loop
      vertex -0.000999451 1.61214 3.05
      vertex -0.000999451 1.199 3.049
      vertex -0.000999451 1.61214 3.049
    endloop
  endfacet
  facet normal 1 0 0
    outer loop
      vertex -0.000999451 9.101 3.049
      vertex -0.000999451 8.68786 3.05
      vertex -0.000999451 8.68786 3.049
    endloop
  endfacet
  facet normal 1 0 0
    outer loop
      vertex -0.000999451 7.96214 3.049
      vertex -0.000999451 7.41786 3.05
      vertex -0.000999451 7.41786 3.049
    endloop
  endfacet
  facet normal 1 0 0
    outer loop
      vertex -0.000999451 6.69214 3.049
      vertex -0.000999451 6.14786 3.05
      vertex -0.000999451 6.14786 3.049
    endloop
  endfacet
  facet normal 1 0 0
    outer loop
      vertex -0.000999451 5.42214 3.049
      vertex -0.000999451 4.87786 3.05
      vertex -0.000999451 4.87786 3.049
    endloop
  endfacet
  facet normal 1 0 0
    outer loop
      vertex -0.000999451 4.15214 3.049
      vertex -0.000999451 3.60786 3.05
      vertex -0.000999451 3.60786 3.049
    endloop
  endfacet
  facet normal 1 0 0
    outer loop
      vertex -0.000999451 2.88214 3.049
      vertex -0.000999451 2.33786 3.05
      vertex -0.000999451 2.33786 3.049
    endloop
  endfacet
  facet normal 0 -1 0
    outer loop
      vertex -0.000999451 9.101 4.001
      vertex 0.00299931 9.101 4
      vertex 0.00299931 9.101 4.001
    endloop
  endfacet
  facet normal 0 -1 0
    outer loop
      vertex -0.000999451 9.101 3.049
      vertex 0.00299931 9.101 4
      vertex -0.000999451 9.101 4.001
    endloop
  endfacet
  facet normal 0 -1 0
    outer loop
      vertex -0.000999451 9.101 3.049
      vertex 5.9 9.101 4
      vertex 0.00299931 9.101 4
    endloop
  endfacet
  facet normal 0 -1 -0
    outer loop
      vertex 5.9 9.101 4
      vertex -0.000999451 9.101 3.049
      vertex 5.9 9.101 3.049
    endloop
  endfacet
  facet normal 0 1 0
    outer loop
      vertex 5.9 1.199 4
      vertex 5.9 1.199 3.049
      vertex 0.00299931 1.199 4
    endloop
  endfacet
  facet normal 0 1 -0
    outer loop
      vertex 0.00299931 1.199 4
      vertex -0.000999451 1.199 4.001
      vertex 0.00299931 1.199 4.001
    endloop
  endfacet
  facet normal 0 1 0
    outer loop
      vertex 0.00299931 1.199 4
      vertex -0.000999451 1.199 3.049
      vertex -0.000999451 1.199 4.001
    endloop
  endfacet
  facet normal 0 1 0
    outer loop
      vertex -0.000999451 1.199 3.049
      vertex 0.00299931 1.199 4
      vertex 5.9 1.199 3.049
    endloop
  endfacet
  facet normal -1 0 0
    outer loop
      vertex -2.5 8.96 1.525
      vertex -2.5 8.68786 2.75
      vertex -2.5 8.96 4.065
    endloop
  endfacet
  facet normal -1 0 0
    outer loop
      vertex -2.5 8.96 1.525
      vertex -2.5 7.96214 2.75
      vertex -2.5 8.68786 2.75
    endloop
  endfacet
  facet normal -1 0 0
    outer loop
      vertex -2.5 7.96214 2.75
      vertex -2.5 7.41786 2.75
      vertex -2.5 7.96214 3.05
    endloop
  endfacet
  facet normal -1 0 0
    outer loop
      vertex -2.5 8.96 1.525
      vertex -2.5 7.41786 2.75
      vertex -2.5 7.96214 2.75
    endloop
  endfacet
  facet normal -1 0 0
    outer loop
      vertex -2.5 8.96 1.525
      vertex -2.5 6.69214 2.75
      vertex -2.5 7.41786 2.75
    endloop
  endfacet
  facet normal -1 0 0
    outer loop
      vertex -2.5 6.69214 2.75
      vertex -2.5 6.14786 2.75
      vertex -2.5 6.69214 3.05
    endloop
  endfacet
  facet normal -1 0 0
    outer loop
      vertex -2.5 8.96 1.525
      vertex -2.5 6.14786 2.75
      vertex -2.5 6.69214 2.75
    endloop
  endfacet
  facet normal -1 0 0
    outer loop
      vertex -2.5 8.96 1.525
      vertex -2.5 5.42214 2.75
      vertex -2.5 6.14786 2.75
    endloop
  endfacet
  facet normal -1 0 0
    outer loop
      vertex -2.5 5.42214 2.75
      vertex -2.5 4.87786 2.75
      vertex -2.5 5.42214 3.05
    endloop
  endfacet
  facet normal -1 0 0
    outer loop
      vertex -2.5 8.96 1.525
      vertex -2.5 4.87786 2.75
      vertex -2.5 5.42214 2.75
    endloop
  endfacet
  facet normal -1 0 0
    outer loop
      vertex -2.5 1.34 1.525
      vertex -2.5 4.87786 2.75
      vertex -2.5 8.96 1.525
    endloop
  endfacet
  facet normal -1 0 0
    outer loop
      vertex -2.5 4.15214 2.75
      vertex -2.5 3.60786 2.75
      vertex -2.5 4.15214 3.05
    endloop
  endfacet
  facet normal -1 -0 0
    outer loop
      vertex -2.5 4.87786 2.75
      vertex -2.5 1.34 1.525
      vertex -2.5 4.15214 2.75
    endloop
  endfacet
  facet normal -1 -0 0
    outer loop
      vertex -2.5 4.15214 2.75
      vertex -2.5 1.34 1.525
      vertex -2.5 3.60786 2.75
    endloop
  endfacet
  facet normal -1 0 0
    outer loop
      vertex -2.5 2.88214 2.75
      vertex -2.5 2.33786 2.75
      vertex -2.5 2.88214 3.05
    endloop
  endfacet
  facet normal -1 -0 0
    outer loop
      vertex -2.5 3.60786 2.75
      vertex -2.5 1.34 1.525
      vertex -2.5 2.88214 2.75
    endloop
  endfacet
  facet normal -1 -0 0
    outer loop
      vertex -2.5 2.88214 2.75
      vertex -2.5 1.34 1.525
      vertex -2.5 2.33786 2.75
    endloop
  endfacet
  facet normal -1 0 0
    outer loop
      vertex -2.5 1.34 4.065
      vertex -2.5 1.61214 2.75
      vertex -2.5 1.34 1.525
    endloop
  endfacet
  facet normal -1 -0 0
    outer loop
      vertex -2.5 2.33786 2.75
      vertex -2.5 1.34 1.525
      vertex -2.5 1.61214 2.75
    endloop
  endfacet
  facet normal -1 0 0
    outer loop
      vertex -2.5 8.68786 3.05
      vertex -2.5 8.96 4.065
      vertex -2.5 8.68786 2.75
    endloop
  endfacet
  facet normal -1 0 0
    outer loop
      vertex -2.5 7.96214 3.05
      vertex -2.5 8.96 4.065
      vertex -2.5 8.68786 3.05
    endloop
  endfacet
  facet normal -1 0 0
    outer loop
      vertex -2.5 7.41786 3.05
      vertex -2.5 7.96214 3.05
      vertex -2.5 7.41786 2.75
    endloop
  endfacet
  facet normal -1 0 0
    outer loop
      vertex -2.5 7.96214 3.05
      vertex -2.5 7.41786 3.05
      vertex -2.5 8.96 4.065
    endloop
  endfacet
  facet normal -1 0 0
    outer loop
      vertex -2.5 6.69214 3.05
      vertex -2.5 8.96 4.065
      vertex -2.5 7.41786 3.05
    endloop
  endfacet
  facet normal -1 0 0
    outer loop
      vertex -2.5 6.14786 3.05
      vertex -2.5 6.69214 3.05
      vertex -2.5 6.14786 2.75
    endloop
  endfacet
  facet normal -1 0 0
    outer loop
      vertex -2.5 6.14786 3.05
      vertex -2.5 8.96 4.065
      vertex -2.5 6.69214 3.05
    endloop
  endfacet
  facet normal -1 0 0
    outer loop
      vertex -2.5 5.42214 3.05
      vertex -2.5 8.96 4.065
      vertex -2.5 6.14786 3.05
    endloop
  endfacet
  facet normal -1 0 0
    outer loop
      vertex -2.5 4.87786 3.05
      vertex -2.5 5.42214 3.05
      vertex -2.5 4.87786 2.75
    endloop
  endfacet
  facet normal -1 0 0
    outer loop
      vertex -2.5 4.87786 3.05
      vertex -2.5 8.96 4.065
      vertex -2.5 5.42214 3.05
    endloop
  endfacet
  facet normal -1 0 0
    outer loop
      vertex -2.5 1.34 4.065
      vertex -2.5 4.87786 3.05
      vertex -2.5 4.15214 3.05
    endloop
  endfacet
  facet normal -1 0 0
    outer loop
      vertex -2.5 3.60786 3.05
      vertex -2.5 4.15214 3.05
      vertex -2.5 3.60786 2.75
    endloop
  endfacet
  facet normal -1 0 0
    outer loop
      vertex -2.5 1.34 4.065
      vertex -2.5 4.15214 3.05
      vertex -2.5 3.60786 3.05
    endloop
  endfacet
  facet normal -1 0 0
    outer loop
      vertex -2.5 1.34 4.065
      vertex -2.5 3.60786 3.05
      vertex -2.5 2.88214 3.05
    endloop
  endfacet
  facet normal -1 0 0
    outer loop
      vertex -2.5 2.33786 3.05
      vertex -2.5 2.88214 3.05
      vertex -2.5 2.33786 2.75
    endloop
  endfacet
  facet normal -1 0 0
    outer loop
      vertex -2.5 1.34 4.065
      vertex -2.5 2.88214 3.05
      vertex -2.5 2.33786 3.05
    endloop
  endfacet
  facet normal -1 0 0
    outer loop
      vertex -2.5 1.34 4.065
      vertex -2.5 2.33786 3.05
      vertex -2.5 1.61214 3.05
    endloop
  endfacet
  facet normal -1 0 0
    outer loop
      vertex -2.5 4.87786 3.05
      vertex -2.5 1.34 4.065
      vertex -2.5 8.96 4.065
    endloop
  endfacet
  facet normal -1 0 0
    outer loop
      vertex -2.5 1.61214 2.75
      vertex -2.5 1.34 4.065
      vertex -2.5 1.61214 3.05
    endloop
  endfacet
  facet normal 0 0 -1
    outer loop
      vertex -7.799 1.34 4.065
      vertex -2.5 8.96 4.065
      vertex -2.5 1.34 4.065
    endloop
  endfacet
  facet normal -0 0 -1
    outer loop
      vertex -2.5 8.96 4.065
      vertex -7.799 1.34 4.065
      vertex -7.799 8.96 4.065
    endloop
  endfacet
  facet normal -0 0 1
    outer loop
      vertex -7.799 8.96 1.525
      vertex -2.5 1.34 1.525
      vertex -2.5 8.96 1.525
    endloop
  endfacet
  facet normal 0 0 1
    outer loop
      vertex -2.5 1.34 1.525
      vertex -7.799 8.96 1.525
      vertex -7.799 1.34 1.525
    endloop
  endfacet
  facet normal 0 -1 0
    outer loop
      vertex -7.799 8.96 1.525
      vertex -2.5 8.96 4.065
      vertex -7.799 8.96 4.065
    endloop
  endfacet
  facet normal 0 -1 -0
    outer loop
      vertex -2.5 8.96 4.065
      vertex -7.799 8.96 1.525
      vertex -2.5 8.96 1.525
    endloop
  endfacet
  facet normal 0 1 -0
    outer loop
      vertex -2.5 1.34 1.525
      vertex -7.799 1.34 4.065
      vertex -2.5 1.34 4.065
    endloop
  endfacet
  facet normal 0 1 0
    outer loop
      vertex -7.799 1.34 4.065
      vertex -2.5 1.34 1.525
      vertex -7.799 1.34 1.525
    endloop
  endfacet
endsolid OpenSCAD_Model
