solid OpenSCAD_Model
  facet normal 1 0 0
    outer loop
      vertex 5.9 1.199 4
      vertex 5.9 0 4
      vertex 5.9 1.199 3.049
    endloop
  endfacet
  facet normal 1 0 0
    outer loop
      vertex 5.9 1.6575 3.049
      vertex 5.9 1.199 3.049
      vertex 5.9 1.6575 2.75
    endloop
  endfacet
  facet normal 1 0 0
    outer loop
      vertex 5.9 2.9275 3.049
      vertex 5.9 2.2925 3.049
      vertex 5.9 2.9275 2.75
    endloop
  endfacet
  facet normal 1 0 0
    outer loop
      vertex 5.9 4.1975 3.049
      vertex 5.9 3.5625 3.049
      vertex 5.9 4.1975 2.75
    endloop
  endfacet
  facet normal 1 0 0
    outer loop
      vertex 5.9 5.4675 3.049
      vertex 5.9 4.8325 3.049
      vertex 5.9 5.4675 2.75
    endloop
  endfacet
  facet normal 1 0 0
    outer loop
      vertex 5.9 6.7375 3.049
      vertex 5.9 6.1025 3.049
      vertex 5.9 6.7375 2.75
    endloop
  endfacet
  facet normal 1 0 0
    outer loop
      vertex 5.9 8.0075 3.049
      vertex 5.9 7.3725 3.049
      vertex 5.9 8.0075 2.75
    endloop
  endfacet
  facet normal 1 0 0
    outer loop
      vertex 5.9 9.101 3.049
      vertex 5.9 10.3 4
      vertex 5.9 9.101 4
    endloop
  endfacet
  facet normal 1 0 0
    outer loop
      vertex 5.9 10.3 4
      vertex 5.9 9.101 3.049
      vertex 5.9 10.3 0
    endloop
  endfacet
  facet normal 1 0 0
    outer loop
      vertex 5.9 8.6425 2.75
      vertex 5.9 9.101 3.049
      vertex 5.9 8.6425 3.049
    endloop
  endfacet
  facet normal 1 0 0
    outer loop
      vertex 5.9 9.101 3.049
      vertex 5.9 8.6425 2.75
      vertex 5.9 10.3 0
    endloop
  endfacet
  facet normal 1 -0 0
    outer loop
      vertex 5.9 8.0075 2.75
      vertex 5.9 10.3 0
      vertex 5.9 8.6425 2.75
    endloop
  endfacet
  facet normal 1 0 0
    outer loop
      vertex 5.9 7.3725 2.75
      vertex 5.9 8.0075 2.75
      vertex 5.9 7.3725 3.049
    endloop
  endfacet
  facet normal 1 0 0
    outer loop
      vertex 5.9 8.0075 2.75
      vertex 5.9 7.3725 2.75
      vertex 5.9 10.3 0
    endloop
  endfacet
  facet normal 1 -0 0
    outer loop
      vertex 5.9 6.7375 2.75
      vertex 5.9 10.3 0
      vertex 5.9 7.3725 2.75
    endloop
  endfacet
  facet normal 1 0 0
    outer loop
      vertex 5.9 6.1025 2.75
      vertex 5.9 6.7375 2.75
      vertex 5.9 6.1025 3.049
    endloop
  endfacet
  facet normal 1 0 0
    outer loop
      vertex 5.9 6.7375 2.75
      vertex 5.9 6.1025 2.75
      vertex 5.9 10.3 0
    endloop
  endfacet
  facet normal 1 -0 0
    outer loop
      vertex 5.9 5.4675 2.75
      vertex 5.9 10.3 0
      vertex 5.9 6.1025 2.75
    endloop
  endfacet
  facet normal 1 0 0
    outer loop
      vertex 5.9 4.8325 2.75
      vertex 5.9 5.4675 2.75
      vertex 5.9 4.8325 3.049
    endloop
  endfacet
  facet normal 1 0 0
    outer loop
      vertex 5.9 5.4675 2.75
      vertex 5.9 4.8325 2.75
      vertex 5.9 10.3 0
    endloop
  endfacet
  facet normal 1 0 0
    outer loop
      vertex 5.9 0 0
      vertex 5.9 4.8325 2.75
      vertex 5.9 4.1975 2.75
    endloop
  endfacet
  facet normal 1 0 0
    outer loop
      vertex 5.9 3.5625 2.75
      vertex 5.9 4.1975 2.75
      vertex 5.9 3.5625 3.049
    endloop
  endfacet
  facet normal 1 0 0
    outer loop
      vertex 5.9 0 0
      vertex 5.9 4.1975 2.75
      vertex 5.9 3.5625 2.75
    endloop
  endfacet
  facet normal 1 0 0
    outer loop
      vertex 5.9 0 0
      vertex 5.9 3.5625 2.75
      vertex 5.9 2.9275 2.75
    endloop
  endfacet
  facet normal 1 0 0
    outer loop
      vertex 5.9 2.2925 2.75
      vertex 5.9 2.9275 2.75
      vertex 5.9 2.2925 3.049
    endloop
  endfacet
  facet normal 1 0 0
    outer loop
      vertex 5.9 0 0
      vertex 5.9 2.9275 2.75
      vertex 5.9 2.2925 2.75
    endloop
  endfacet
  facet normal 1 0 0
    outer loop
      vertex 5.9 0 0
      vertex 5.9 2.2925 2.75
      vertex 5.9 1.6575 2.75
    endloop
  endfacet
  facet normal 1 0 0
    outer loop
      vertex 5.9 4.8325 2.75
      vertex 5.9 0 0
      vertex 5.9 10.3 0
    endloop
  endfacet
  facet normal 1 0 0
    outer loop
      vertex 5.9 1.199 3.049
      vertex 5.9 0 0
      vertex 5.9 1.6575 2.75
    endloop
  endfacet
  facet normal 1 0 0
    outer loop
      vertex 5.9 0 0
      vertex 5.9 1.199 3.049
      vertex 5.9 0 4
    endloop
  endfacet
  facet normal 0 0 1
    outer loop
      vertex 3.5 10.3 4
      vertex 0.00299931 10.3 4
      vertex 3.5 10.099 4
    endloop
  endfacet
  facet normal 0 0 1
    outer loop
      vertex 4.3 10.099 4
      vertex 5.9 10.3 4
      vertex 4.3 10.3 4
    endloop
  endfacet
  facet normal 0 0 1
    outer loop
      vertex 5.9 10.3 4
      vertex 4.3 10.099 4
      vertex 5.9 9.101 4
    endloop
  endfacet
  facet normal -0 0 1
    outer loop
      vertex 3.5 10.099 4
      vertex 5.9 9.101 4
      vertex 4.3 10.099 4
    endloop
  endfacet
  facet normal 0 0 1
    outer loop
      vertex 0.00299931 9.101 4
      vertex 3.5 10.099 4
      vertex 0.00299931 10.3 4
    endloop
  endfacet
  facet normal 0 0 1
    outer loop
      vertex 3.5 10.099 4
      vertex 0.00299931 9.101 4
      vertex 5.9 9.101 4
    endloop
  endfacet
  facet normal 0 0 1
    outer loop
      vertex 5.9 1.199 4
      vertex 4.3 0.200999 4
      vertex 5.9 0 4
    endloop
  endfacet
  facet normal 0 0 1
    outer loop
      vertex 5.9 1.199 4
      vertex 3.5 0.200999 4
      vertex 4.3 0.200999 4
    endloop
  endfacet
  facet normal -0 0 1
    outer loop
      vertex 0.00299931 1.199 4
      vertex 3.5 0.200999 4
      vertex 5.9 1.199 4
    endloop
  endfacet
  facet normal 0 0 1
    outer loop
      vertex 0.00299931 0 4
      vertex 3.5 0.200999 4
      vertex 0.00299931 1.199 4
    endloop
  endfacet
  facet normal 0 0 1
    outer loop
      vertex 3.5 0.200999 4
      vertex 0.00299931 0 4
      vertex 3.5 0 4
    endloop
  endfacet
  facet normal 0 0 1
    outer loop
      vertex 5.9 0 4
      vertex 4.3 0.200999 4
      vertex 4.3 0 4
    endloop
  endfacet
  facet normal 0 0 -1
    outer loop
      vertex 0.00299931 0 0
      vertex 3.5 0.200999 0
      vertex 3.5 0 0
    endloop
  endfacet
  facet normal -0 0 -1
    outer loop
      vertex 3.5 0.200999 0
      vertex 0.00299931 0 0
      vertex 3.5 10.099 0
    endloop
  endfacet
  facet normal 0 0 -1
    outer loop
      vertex 0.00299931 10.3 0
      vertex 3.5 10.099 0
      vertex 0.00299931 0 0
    endloop
  endfacet
  facet normal 0 0 -1
    outer loop
      vertex 3.5 10.099 0
      vertex 0.00299931 10.3 0
      vertex 3.5 10.3 0
    endloop
  endfacet
  facet normal 0 0 -1
    outer loop
      vertex 3.5 0.200999 0
      vertex 4.3 10.099 0
      vertex 4.3 0.200999 0
    endloop
  endfacet
  facet normal -0 0 -1
    outer loop
      vertex 4.3 10.099 0
      vertex 3.5 0.200999 0
      vertex 3.5 10.099 0
    endloop
  endfacet
  facet normal 0 0 -1
    outer loop
      vertex 4.3 0.200999 0
      vertex 5.9 0 0
      vertex 4.3 0 0
    endloop
  endfacet
  facet normal 0 0 -1
    outer loop
      vertex 5.9 0 0
      vertex 4.3 0.200999 0
      vertex 5.9 10.3 0
    endloop
  endfacet
  facet normal 0 0 -1
    outer loop
      vertex 4.3 10.099 0
      vertex 5.9 10.3 0
      vertex 4.3 0.200999 0
    endloop
  endfacet
  facet normal -0 0 -1
    outer loop
      vertex 5.9 10.3 0
      vertex 4.3 10.099 0
      vertex 4.3 10.3 0
    endloop
  endfacet
  facet normal 0 1 -0
    outer loop
      vertex 5.9 10.3 0
      vertex 4.3 10.3 4
      vertex 5.9 10.3 4
    endloop
  endfacet
  facet normal 0 1 0
    outer loop
      vertex 4.3 10.3 4
      vertex 5.9 10.3 0
      vertex 4.3 10.3 0
    endloop
  endfacet
  facet normal 0 1 -0
    outer loop
      vertex 3.5 10.3 0
      vertex 0.00299931 10.3 4
      vertex 3.5 10.3 4
    endloop
  endfacet
  facet normal 0 1 0
    outer loop
      vertex 0.00299931 10.3 4
      vertex 3.5 10.3 0
      vertex 0.00299931 10.3 0
    endloop
  endfacet
  facet normal 0 -1 0
    outer loop
      vertex 4.3 0 0
      vertex 5.9 0 4
      vertex 4.3 0 4
    endloop
  endfacet
  facet normal 0 -1 -0
    outer loop
      vertex 5.9 0 4
      vertex 4.3 0 0
      vertex 5.9 0 0
    endloop
  endfacet
  facet normal 0 -1 0
    outer loop
      vertex 0.00299931 0 0
      vertex 3.5 0 4
      vertex 0.00299931 0 4
    endloop
  endfacet
  facet normal 0 -1 -0
    outer loop
      vertex 3.5 0 4
      vertex 0.00299931 0 0
      vertex 3.5 0 0
    endloop
  endfacet
  facet normal 1 0 0
    outer loop
      vertex 0.00299931 12.1 5.7
      vertex 0.00299931 10.3 4
      vertex 0.00299931 12.1 -1.7
    endloop
  endfacet
  facet normal 1 0 0
    outer loop
      vertex 0.00299931 12.1 5.7
      vertex 0.00299931 9.101 4.001
      vertex 0.00299931 10.3 4
    endloop
  endfacet
  facet normal 1 0 0
    outer loop
      vertex 0.00299931 12.1 5.7
      vertex 0.00299931 1.199 4.001
      vertex 0.00299931 9.101 4.001
    endloop
  endfacet
  facet normal 1 0 0
    outer loop
      vertex 0.00299931 1.199 4.001
      vertex 0.00299931 0 4
      vertex 0.00299931 1.199 4
    endloop
  endfacet
  facet normal 1 -0 0
    outer loop
      vertex 0.00299931 -1.8 5.7
      vertex 0.00299931 1.199 4.001
      vertex 0.00299931 12.1 5.7
    endloop
  endfacet
  facet normal 1 0 0
    outer loop
      vertex 0.00299931 0 4
      vertex 0.00299931 -1.8 5.7
      vertex 0.00299931 0 0
    endloop
  endfacet
  facet normal 1 0 0
    outer loop
      vertex 0.00299931 1.199 4.001
      vertex 0.00299931 -1.8 5.7
      vertex 0.00299931 0 4
    endloop
  endfacet
  facet normal 1 -0 0
    outer loop
      vertex 0.00299931 10.3 0
      vertex 0.00299931 12.1 -1.7
      vertex 0.00299931 10.3 4
    endloop
  endfacet
  facet normal 1 -0 0
    outer loop
      vertex 0.00299931 0 0
      vertex 0.00299931 12.1 -1.7
      vertex 0.00299931 10.3 0
    endloop
  endfacet
  facet normal 1 0 0
    outer loop
      vertex 0.00299931 0 0
      vertex 0.00299931 -1.8 -1.7
      vertex 0.00299931 12.1 -1.7
    endloop
  endfacet
  facet normal 1 0 0
    outer loop
      vertex 0.00299931 -1.8 -1.7
      vertex 0.00299931 0 0
      vertex 0.00299931 -1.8 5.7
    endloop
  endfacet
  facet normal 1 0 0
    outer loop
      vertex 0.00299931 10.3 4
      vertex 0.00299931 9.101 4.001
      vertex 0.00299931 9.101 4
    endloop
  endfacet
  facet normal -0 0 1
    outer loop
      vertex -7.799 12.1 5.7
      vertex 0.00299931 -1.8 5.7
      vertex 0.00299931 12.1 5.7
    endloop
  endfacet
  facet normal 0 0 1
    outer loop
      vertex 0.00299931 -1.8 5.7
      vertex -7.799 12.1 5.7
      vertex -7.799 -1.8 5.7
    endloop
  endfacet
  facet normal 0 0 -1
    outer loop
      vertex -7.799 -1.8 -1.7
      vertex 0.00299931 12.1 -1.7
      vertex 0.00299931 -1.8 -1.7
    endloop
  endfacet
  facet normal -0 0 -1
    outer loop
      vertex 0.00299931 12.1 -1.7
      vertex -7.799 -1.8 -1.7
      vertex -7.799 12.1 -1.7
    endloop
  endfacet
  facet normal -1 0 0
    outer loop
      vertex -7.799 12.1 -1.7
      vertex -7.799 8.96 1.525
      vertex -7.799 12.1 5.7
    endloop
  endfacet
  facet normal -1 0 0
    outer loop
      vertex -7.799 12.1 -1.7
      vertex -7.799 1.34 1.525
      vertex -7.799 8.96 1.525
    endloop
  endfacet
  facet normal -1 0 0
    outer loop
      vertex -7.799 -1.8 5.7
      vertex -7.799 1.34 1.525
      vertex -7.799 -1.8 -1.7
    endloop
  endfacet
  facet normal -1 0 0
    outer loop
      vertex -7.799 -1.8 -1.7
      vertex -7.799 1.34 1.525
      vertex -7.799 12.1 -1.7
    endloop
  endfacet
  facet normal -1 0 0
    outer loop
      vertex -7.799 8.96 4.065
      vertex -7.799 12.1 5.7
      vertex -7.799 8.96 1.525
    endloop
  endfacet
  facet normal -1 0 0
    outer loop
      vertex -7.799 1.34 4.065
      vertex -7.799 12.1 5.7
      vertex -7.799 8.96 4.065
    endloop
  endfacet
  facet normal -1 0 0
    outer loop
      vertex -7.799 1.34 4.065
      vertex -7.799 -1.8 5.7
      vertex -7.799 12.1 5.7
    endloop
  endfacet
  facet normal -1 0 0
    outer loop
      vertex -7.799 1.34 1.525
      vertex -7.799 -1.8 5.7
      vertex -7.799 1.34 4.065
    endloop
  endfacet
  facet normal 0 1 -0
    outer loop
      vertex 0.00299931 12.1 -1.7
      vertex -7.799 12.1 5.7
      vertex 0.00299931 12.1 5.7
    endloop
  endfacet
  facet normal 0 1 0
    outer loop
      vertex -7.799 12.1 5.7
      vertex 0.00299931 12.1 -1.7
      vertex -7.799 12.1 -1.7
    endloop
  endfacet
  facet normal 0 -1 0
    outer loop
      vertex -7.799 -1.8 -1.7
      vertex 0.00299931 -1.8 5.7
      vertex -7.799 -1.8 5.7
    endloop
  endfacet
  facet normal 0 -1 -0
    outer loop
      vertex 0.00299931 -1.8 5.7
      vertex -7.799 -1.8 -1.7
      vertex 0.00299931 -1.8 -1.7
    endloop
  endfacet
  facet normal 0 0 -1
    outer loop
      vertex -2.5 1.6575 3.05
      vertex -0.000999451 2.2925 3.05
      vertex -0.000999451 1.6575 3.05
    endloop
  endfacet
  facet normal -0 0 -1
    outer loop
      vertex -0.000999451 2.2925 3.05
      vertex -2.5 1.6575 3.05
      vertex -2.5 2.2925 3.05
    endloop
  endfacet
  facet normal 0 0 1
    outer loop
      vertex 5.9 2.2925 2.75
      vertex 5.42178 2.13475 2.75
      vertex 5.9 1.6575 2.75
    endloop
  endfacet
  facet normal 0 0 1
    outer loop
      vertex 5.9 2.2925 2.75
      vertex 5.2 2.13475 2.75
      vertex 5.42178 2.13475 2.75
    endloop
  endfacet
  facet normal 0 0 1
    outer loop
      vertex 5.2 2.13475 2.75
      vertex -2.5 2.2925 2.75
      vertex 5.2 1.81625 2.75
    endloop
  endfacet
  facet normal -0 0 1
    outer loop
      vertex -2.5 2.2925 2.75
      vertex 5.2 2.13475 2.75
      vertex 5.9 2.2925 2.75
    endloop
  endfacet
  facet normal -0 0 1
    outer loop
      vertex 5.42178 1.81625 2.75
      vertex 5.9 1.6575 2.75
      vertex 5.42178 2.13475 2.75
    endloop
  endfacet
  facet normal -0 0 1
    outer loop
      vertex 5.2 1.81625 2.75
      vertex 5.9 1.6575 2.75
      vertex 5.42178 1.81625 2.75
    endloop
  endfacet
  facet normal 0 0 1
    outer loop
      vertex -2.5 1.6575 2.75
      vertex 5.2 1.81625 2.75
      vertex -2.5 2.2925 2.75
    endloop
  endfacet
  facet normal 0 0 1
    outer loop
      vertex 5.2 1.81625 2.75
      vertex -2.5 1.6575 2.75
      vertex 5.9 1.6575 2.75
    endloop
  endfacet
  facet normal 0 -1 0
    outer loop
      vertex -2.5 2.2925 3.05
      vertex -0.000999451 2.2925 3.049
      vertex -0.000999451 2.2925 3.05
    endloop
  endfacet
  facet normal 0 -1 0
    outer loop
      vertex -2.5 2.2925 2.75
      vertex -0.000999451 2.2925 3.049
      vertex -2.5 2.2925 3.05
    endloop
  endfacet
  facet normal 0 -1 0
    outer loop
      vertex 5.9 2.2925 2.75
      vertex -0.000999451 2.2925 3.049
      vertex -2.5 2.2925 2.75
    endloop
  endfacet
  facet normal 0 -1 0
    outer loop
      vertex -0.000999451 2.2925 3.049
      vertex 5.9 2.2925 2.75
      vertex 5.9 2.2925 3.049
    endloop
  endfacet
  facet normal 0 1 0
    outer loop
      vertex 5.9 1.6575 3.049
      vertex 5.9 1.6575 2.75
      vertex -0.000999451 1.6575 3.049
    endloop
  endfacet
  facet normal 0 1 -0
    outer loop
      vertex -0.000999451 1.6575 3.049
      vertex -2.5 1.6575 3.05
      vertex -0.000999451 1.6575 3.05
    endloop
  endfacet
  facet normal 0 1 0
    outer loop
      vertex -2.5 1.6575 2.75
      vertex -0.000999451 1.6575 3.049
      vertex 5.9 1.6575 2.75
    endloop
  endfacet
  facet normal 0 1 0
    outer loop
      vertex -0.000999451 1.6575 3.049
      vertex -2.5 1.6575 2.75
      vertex -2.5 1.6575 3.05
    endloop
  endfacet
  facet normal 0 -1 0
    outer loop
      vertex 5.60254 2.13475 1.88674
      vertex 5.42178 2.13475 2.75
      vertex 5.2 2.13475 2.75
    endloop
  endfacet
  facet normal 0 -1 0
    outer loop
      vertex 5.42178 2.13475 2.75
      vertex 5.60254 2.13475 1.88674
      vertex 5.78471 2.13475 1.97169
    endloop
  endfacet
  facet normal 0 1 -0
    outer loop
      vertex 5.60254 1.81625 1.88674
      vertex 5.42178 1.81625 2.75
      vertex 5.78471 1.81625 1.97169
    endloop
  endfacet
  facet normal 0 1 0
    outer loop
      vertex 5.42178 1.81625 2.75
      vertex 5.60254 1.81625 1.88674
      vertex 5.2 1.81625 2.75
    endloop
  endfacet
  facet normal 0.90631 -0 0.422614
    outer loop
      vertex 5.2 1.81625 2.75
      vertex 5.60254 2.13475 1.88674
      vertex 5.2 2.13475 2.75
    endloop
  endfacet
  facet normal 0.90631 0 0.422614
    outer loop
      vertex 5.60254 2.13475 1.88674
      vertex 5.2 1.81625 2.75
      vertex 5.60254 1.81625 1.88674
    endloop
  endfacet
  facet normal -0.422629 0 0.906303
    outer loop
      vertex 5.60254 2.13475 1.88674
      vertex 5.78471 1.81625 1.97169
      vertex 5.78471 2.13475 1.97169
    endloop
  endfacet
  facet normal -0.422629 0 0.906303
    outer loop
      vertex 5.78471 1.81625 1.97169
      vertex 5.60254 2.13475 1.88674
      vertex 5.60254 1.81625 1.88674
    endloop
  endfacet
  facet normal -0.906309 0 -0.422616
    outer loop
      vertex 5.78471 1.81625 1.97169
      vertex 5.42178 2.13475 2.75
      vertex 5.78471 2.13475 1.97169
    endloop
  endfacet
  facet normal -0.906309 -0 -0.422616
    outer loop
      vertex 5.42178 2.13475 2.75
      vertex 5.78471 1.81625 1.97169
      vertex 5.42178 1.81625 2.75
    endloop
  endfacet
  facet normal 0 0 -1
    outer loop
      vertex -2.5 2.9275 3.05
      vertex -0.000999451 3.5625 3.05
      vertex -0.000999451 2.9275 3.05
    endloop
  endfacet
  facet normal -0 0 -1
    outer loop
      vertex -0.000999451 3.5625 3.05
      vertex -2.5 2.9275 3.05
      vertex -2.5 3.5625 3.05
    endloop
  endfacet
  facet normal 0 0 1
    outer loop
      vertex 5.9 3.5625 2.75
      vertex 5.42178 3.40475 2.75
      vertex 5.9 2.9275 2.75
    endloop
  endfacet
  facet normal 0 0 1
    outer loop
      vertex 5.9 3.5625 2.75
      vertex 5.2 3.40475 2.75
      vertex 5.42178 3.40475 2.75
    endloop
  endfacet
  facet normal 0 0 1
    outer loop
      vertex 5.2 3.40475 2.75
      vertex -2.5 3.5625 2.75
      vertex 5.2 3.08625 2.75
    endloop
  endfacet
  facet normal -0 0 1
    outer loop
      vertex -2.5 3.5625 2.75
      vertex 5.2 3.40475 2.75
      vertex 5.9 3.5625 2.75
    endloop
  endfacet
  facet normal -0 0 1
    outer loop
      vertex 5.42178 3.08625 2.75
      vertex 5.9 2.9275 2.75
      vertex 5.42178 3.40475 2.75
    endloop
  endfacet
  facet normal -0 0 1
    outer loop
      vertex 5.2 3.08625 2.75
      vertex 5.9 2.9275 2.75
      vertex 5.42178 3.08625 2.75
    endloop
  endfacet
  facet normal 0 0 1
    outer loop
      vertex -2.5 2.9275 2.75
      vertex 5.2 3.08625 2.75
      vertex -2.5 3.5625 2.75
    endloop
  endfacet
  facet normal 0 0 1
    outer loop
      vertex 5.2 3.08625 2.75
      vertex -2.5 2.9275 2.75
      vertex 5.9 2.9275 2.75
    endloop
  endfacet
  facet normal 0 -1 0
    outer loop
      vertex -2.5 3.5625 3.05
      vertex -0.000999451 3.5625 3.049
      vertex -0.000999451 3.5625 3.05
    endloop
  endfacet
  facet normal 0 -1 0
    outer loop
      vertex -2.5 3.5625 2.75
      vertex -0.000999451 3.5625 3.049
      vertex -2.5 3.5625 3.05
    endloop
  endfacet
  facet normal 0 -1 0
    outer loop
      vertex 5.9 3.5625 2.75
      vertex -0.000999451 3.5625 3.049
      vertex -2.5 3.5625 2.75
    endloop
  endfacet
  facet normal 0 -1 0
    outer loop
      vertex -0.000999451 3.5625 3.049
      vertex 5.9 3.5625 2.75
      vertex 5.9 3.5625 3.049
    endloop
  endfacet
  facet normal 0 1 0
    outer loop
      vertex 5.9 2.9275 3.049
      vertex 5.9 2.9275 2.75
      vertex -0.000999451 2.9275 3.049
    endloop
  endfacet
  facet normal 0 1 -0
    outer loop
      vertex -0.000999451 2.9275 3.049
      vertex -2.5 2.9275 3.05
      vertex -0.000999451 2.9275 3.05
    endloop
  endfacet
  facet normal 0 1 0
    outer loop
      vertex -2.5 2.9275 2.75
      vertex -0.000999451 2.9275 3.049
      vertex 5.9 2.9275 2.75
    endloop
  endfacet
  facet normal 0 1 0
    outer loop
      vertex -0.000999451 2.9275 3.049
      vertex -2.5 2.9275 2.75
      vertex -2.5 2.9275 3.05
    endloop
  endfacet
  facet normal 0 -1 0
    outer loop
      vertex 5.60254 3.40475 1.88674
      vertex 5.42178 3.40475 2.75
      vertex 5.2 3.40475 2.75
    endloop
  endfacet
  facet normal 0 -1 0
    outer loop
      vertex 5.42178 3.40475 2.75
      vertex 5.60254 3.40475 1.88674
      vertex 5.78471 3.40475 1.97169
    endloop
  endfacet
  facet normal 0 1 -0
    outer loop
      vertex 5.60254 3.08625 1.88674
      vertex 5.42178 3.08625 2.75
      vertex 5.78471 3.08625 1.97169
    endloop
  endfacet
  facet normal 0 1 0
    outer loop
      vertex 5.42178 3.08625 2.75
      vertex 5.60254 3.08625 1.88674
      vertex 5.2 3.08625 2.75
    endloop
  endfacet
  facet normal -0.906309 0 -0.422616
    outer loop
      vertex 5.78471 3.08625 1.97169
      vertex 5.42178 3.40475 2.75
      vertex 5.78471 3.40475 1.97169
    endloop
  endfacet
  facet normal -0.906309 -0 -0.422616
    outer loop
      vertex 5.42178 3.40475 2.75
      vertex 5.78471 3.08625 1.97169
      vertex 5.42178 3.08625 2.75
    endloop
  endfacet
  facet normal 0.90631 -0 0.422614
    outer loop
      vertex 5.2 3.08625 2.75
      vertex 5.60254 3.40475 1.88674
      vertex 5.2 3.40475 2.75
    endloop
  endfacet
  facet normal 0.90631 0 0.422614
    outer loop
      vertex 5.60254 3.40475 1.88674
      vertex 5.2 3.08625 2.75
      vertex 5.60254 3.08625 1.88674
    endloop
  endfacet
  facet normal -0.422629 0 0.906303
    outer loop
      vertex 5.60254 3.40475 1.88674
      vertex 5.78471 3.08625 1.97169
      vertex 5.78471 3.40475 1.97169
    endloop
  endfacet
  facet normal -0.422629 0 0.906303
    outer loop
      vertex 5.78471 3.08625 1.97169
      vertex 5.60254 3.40475 1.88674
      vertex 5.60254 3.08625 1.88674
    endloop
  endfacet
  facet normal 0 0 -1
    outer loop
      vertex -2.5 4.1975 3.05
      vertex -0.000999451 4.8325 3.05
      vertex -0.000999451 4.1975 3.05
    endloop
  endfacet
  facet normal -0 0 -1
    outer loop
      vertex -0.000999451 4.8325 3.05
      vertex -2.5 4.1975 3.05
      vertex -2.5 4.8325 3.05
    endloop
  endfacet
  facet normal 0 0 1
    outer loop
      vertex 5.9 4.8325 2.75
      vertex 5.42178 4.67475 2.75
      vertex 5.9 4.1975 2.75
    endloop
  endfacet
  facet normal 0 0 1
    outer loop
      vertex 5.9 4.8325 2.75
      vertex 5.2 4.67475 2.75
      vertex 5.42178 4.67475 2.75
    endloop
  endfacet
  facet normal 0 0 1
    outer loop
      vertex 5.2 4.67475 2.75
      vertex -2.5 4.8325 2.75
      vertex 5.2 4.35625 2.75
    endloop
  endfacet
  facet normal -0 0 1
    outer loop
      vertex -2.5 4.8325 2.75
      vertex 5.2 4.67475 2.75
      vertex 5.9 4.8325 2.75
    endloop
  endfacet
  facet normal -0 0 1
    outer loop
      vertex 5.42178 4.35625 2.75
      vertex 5.9 4.1975 2.75
      vertex 5.42178 4.67475 2.75
    endloop
  endfacet
  facet normal -0 0 1
    outer loop
      vertex 5.2 4.35625 2.75
      vertex 5.9 4.1975 2.75
      vertex 5.42178 4.35625 2.75
    endloop
  endfacet
  facet normal 0 0 1
    outer loop
      vertex -2.5 4.1975 2.75
      vertex 5.2 4.35625 2.75
      vertex -2.5 4.8325 2.75
    endloop
  endfacet
  facet normal 0 0 1
    outer loop
      vertex 5.2 4.35625 2.75
      vertex -2.5 4.1975 2.75
      vertex 5.9 4.1975 2.75
    endloop
  endfacet
  facet normal 0 -1 0
    outer loop
      vertex -2.5 4.8325 3.05
      vertex -0.000999451 4.8325 3.049
      vertex -0.000999451 4.8325 3.05
    endloop
  endfacet
  facet normal 0 -1 0
    outer loop
      vertex -2.5 4.8325 2.75
      vertex -0.000999451 4.8325 3.049
      vertex -2.5 4.8325 3.05
    endloop
  endfacet
  facet normal 0 -1 0
    outer loop
      vertex 5.9 4.8325 2.75
      vertex -0.000999451 4.8325 3.049
      vertex -2.5 4.8325 2.75
    endloop
  endfacet
  facet normal 0 -1 0
    outer loop
      vertex -0.000999451 4.8325 3.049
      vertex 5.9 4.8325 2.75
      vertex 5.9 4.8325 3.049
    endloop
  endfacet
  facet normal 0 1 0
    outer loop
      vertex 5.9 4.1975 3.049
      vertex 5.9 4.1975 2.75
      vertex -0.000999451 4.1975 3.049
    endloop
  endfacet
  facet normal 0 1 -0
    outer loop
      vertex -0.000999451 4.1975 3.049
      vertex -2.5 4.1975 3.05
      vertex -0.000999451 4.1975 3.05
    endloop
  endfacet
  facet normal 0 1 0
    outer loop
      vertex -2.5 4.1975 2.75
      vertex -0.000999451 4.1975 3.049
      vertex 5.9 4.1975 2.75
    endloop
  endfacet
  facet normal 0 1 0
    outer loop
      vertex -0.000999451 4.1975 3.049
      vertex -2.5 4.1975 2.75
      vertex -2.5 4.1975 3.05
    endloop
  endfacet
  facet normal 0 1 -0
    outer loop
      vertex 5.60254 4.35625 1.88674
      vertex 5.42178 4.35625 2.75
      vertex 5.78471 4.35625 1.97169
    endloop
  endfacet
  facet normal 0 1 0
    outer loop
      vertex 5.42178 4.35625 2.75
      vertex 5.60254 4.35625 1.88674
      vertex 5.2 4.35625 2.75
    endloop
  endfacet
  facet normal 0.90631 -0 0.422614
    outer loop
      vertex 5.2 4.35625 2.75
      vertex 5.60254 4.67475 1.88674
      vertex 5.2 4.67475 2.75
    endloop
  endfacet
  facet normal 0.90631 0 0.422614
    outer loop
      vertex 5.60254 4.67475 1.88674
      vertex 5.2 4.35625 2.75
      vertex 5.60254 4.35625 1.88674
    endloop
  endfacet
  facet normal -0.422629 0 0.906303
    outer loop
      vertex 5.60254 4.67475 1.88674
      vertex 5.78471 4.35625 1.97169
      vertex 5.78471 4.67475 1.97169
    endloop
  endfacet
  facet normal -0.422629 0 0.906303
    outer loop
      vertex 5.78471 4.35625 1.97169
      vertex 5.60254 4.67475 1.88674
      vertex 5.60254 4.35625 1.88674
    endloop
  endfacet
  facet normal 0 -1 0
    outer loop
      vertex 5.60254 4.67475 1.88674
      vertex 5.42178 4.67475 2.75
      vertex 5.2 4.67475 2.75
    endloop
  endfacet
  facet normal 0 -1 0
    outer loop
      vertex 5.42178 4.67475 2.75
      vertex 5.60254 4.67475 1.88674
      vertex 5.78471 4.67475 1.97169
    endloop
  endfacet
  facet normal -0.906309 0 -0.422616
    outer loop
      vertex 5.78471 4.35625 1.97169
      vertex 5.42178 4.67475 2.75
      vertex 5.78471 4.67475 1.97169
    endloop
  endfacet
  facet normal -0.906309 -0 -0.422616
    outer loop
      vertex 5.42178 4.67475 2.75
      vertex 5.78471 4.35625 1.97169
      vertex 5.42178 4.35625 2.75
    endloop
  endfacet
  facet normal 0 0 -1
    outer loop
      vertex -2.5 5.4675 3.05
      vertex -0.000999451 6.1025 3.05
      vertex -0.000999451 5.4675 3.05
    endloop
  endfacet
  facet normal -0 0 -1
    outer loop
      vertex -0.000999451 6.1025 3.05
      vertex -2.5 5.4675 3.05
      vertex -2.5 6.1025 3.05
    endloop
  endfacet
  facet normal 0 0 1
    outer loop
      vertex 5.9 6.1025 2.75
      vertex 5.42178 5.94475 2.75
      vertex 5.9 5.4675 2.75
    endloop
  endfacet
  facet normal 0 0 1
    outer loop
      vertex 5.9 6.1025 2.75
      vertex 5.2 5.94475 2.75
      vertex 5.42178 5.94475 2.75
    endloop
  endfacet
  facet normal 0 0 1
    outer loop
      vertex 5.2 5.94475 2.75
      vertex -2.5 6.1025 2.75
      vertex 5.2 5.62625 2.75
    endloop
  endfacet
  facet normal -0 0 1
    outer loop
      vertex -2.5 6.1025 2.75
      vertex 5.2 5.94475 2.75
      vertex 5.9 6.1025 2.75
    endloop
  endfacet
  facet normal -0 0 1
    outer loop
      vertex 5.42178 5.62625 2.75
      vertex 5.9 5.4675 2.75
      vertex 5.42178 5.94475 2.75
    endloop
  endfacet
  facet normal -0 0 1
    outer loop
      vertex 5.2 5.62625 2.75
      vertex 5.9 5.4675 2.75
      vertex 5.42178 5.62625 2.75
    endloop
  endfacet
  facet normal 0 0 1
    outer loop
      vertex -2.5 5.4675 2.75
      vertex 5.2 5.62625 2.75
      vertex -2.5 6.1025 2.75
    endloop
  endfacet
  facet normal 0 0 1
    outer loop
      vertex 5.2 5.62625 2.75
      vertex -2.5 5.4675 2.75
      vertex 5.9 5.4675 2.75
    endloop
  endfacet
  facet normal 0 -1 0
    outer loop
      vertex -2.5 6.1025 3.05
      vertex -0.000999451 6.1025 3.049
      vertex -0.000999451 6.1025 3.05
    endloop
  endfacet
  facet normal 0 -1 0
    outer loop
      vertex -2.5 6.1025 2.75
      vertex -0.000999451 6.1025 3.049
      vertex -2.5 6.1025 3.05
    endloop
  endfacet
  facet normal 0 -1 0
    outer loop
      vertex 5.9 6.1025 2.75
      vertex -0.000999451 6.1025 3.049
      vertex -2.5 6.1025 2.75
    endloop
  endfacet
  facet normal 0 -1 0
    outer loop
      vertex -0.000999451 6.1025 3.049
      vertex 5.9 6.1025 2.75
      vertex 5.9 6.1025 3.049
    endloop
  endfacet
  facet normal 0 1 0
    outer loop
      vertex 5.9 5.4675 3.049
      vertex 5.9 5.4675 2.75
      vertex -0.000999451 5.4675 3.049
    endloop
  endfacet
  facet normal 0 1 -0
    outer loop
      vertex -0.000999451 5.4675 3.049
      vertex -2.5 5.4675 3.05
      vertex -0.000999451 5.4675 3.05
    endloop
  endfacet
  facet normal 0 1 0
    outer loop
      vertex -2.5 5.4675 2.75
      vertex -0.000999451 5.4675 3.049
      vertex 5.9 5.4675 2.75
    endloop
  endfacet
  facet normal 0 1 0
    outer loop
      vertex -0.000999451 5.4675 3.049
      vertex -2.5 5.4675 2.75
      vertex -2.5 5.4675 3.05
    endloop
  endfacet
  facet normal 0 1 -0
    outer loop
      vertex 5.60254 5.62625 1.88674
      vertex 5.42178 5.62625 2.75
      vertex 5.78471 5.62625 1.97169
    endloop
  endfacet
  facet normal 0 1 0
    outer loop
      vertex 5.42178 5.62625 2.75
      vertex 5.60254 5.62625 1.88674
      vertex 5.2 5.62625 2.75
    endloop
  endfacet
  facet normal 0.90631 -0 0.422614
    outer loop
      vertex 5.2 5.62625 2.75
      vertex 5.60254 5.94475 1.88674
      vertex 5.2 5.94475 2.75
    endloop
  endfacet
  facet normal 0.90631 0 0.422614
    outer loop
      vertex 5.60254 5.94475 1.88674
      vertex 5.2 5.62625 2.75
      vertex 5.60254 5.62625 1.88674
    endloop
  endfacet
  facet normal -0.422629 0 0.906303
    outer loop
      vertex 5.60254 5.94475 1.88674
      vertex 5.78471 5.62625 1.97169
      vertex 5.78471 5.94475 1.97169
    endloop
  endfacet
  facet normal -0.422629 0 0.906303
    outer loop
      vertex 5.78471 5.62625 1.97169
      vertex 5.60254 5.94475 1.88674
      vertex 5.60254 5.62625 1.88674
    endloop
  endfacet
  facet normal 0 -1 0
    outer loop
      vertex 5.60254 5.94475 1.88674
      vertex 5.42178 5.94475 2.75
      vertex 5.2 5.94475 2.75
    endloop
  endfacet
  facet normal 0 -1 0
    outer loop
      vertex 5.42178 5.94475 2.75
      vertex 5.60254 5.94475 1.88674
      vertex 5.78471 5.94475 1.97169
    endloop
  endfacet
  facet normal -0.906309 0 -0.422616
    outer loop
      vertex 5.78471 5.62625 1.97169
      vertex 5.42178 5.94475 2.75
      vertex 5.78471 5.94475 1.97169
    endloop
  endfacet
  facet normal -0.906309 -0 -0.422616
    outer loop
      vertex 5.42178 5.94475 2.75
      vertex 5.78471 5.62625 1.97169
      vertex 5.42178 5.62625 2.75
    endloop
  endfacet
  facet normal 0 0 -1
    outer loop
      vertex -2.5 6.7375 3.05
      vertex -0.000999451 7.3725 3.05
      vertex -0.000999451 6.7375 3.05
    endloop
  endfacet
  facet normal -0 0 -1
    outer loop
      vertex -0.000999451 7.3725 3.05
      vertex -2.5 6.7375 3.05
      vertex -2.5 7.3725 3.05
    endloop
  endfacet
  facet normal 0 0 1
    outer loop
      vertex 5.9 7.3725 2.75
      vertex 5.42178 7.21475 2.75
      vertex 5.9 6.7375 2.75
    endloop
  endfacet
  facet normal 0 0 1
    outer loop
      vertex 5.9 7.3725 2.75
      vertex 5.2 7.21475 2.75
      vertex 5.42178 7.21475 2.75
    endloop
  endfacet
  facet normal 0 0 1
    outer loop
      vertex 5.2 7.21475 2.75
      vertex -2.5 7.3725 2.75
      vertex 5.2 6.89625 2.75
    endloop
  endfacet
  facet normal -0 0 1
    outer loop
      vertex -2.5 7.3725 2.75
      vertex 5.2 7.21475 2.75
      vertex 5.9 7.3725 2.75
    endloop
  endfacet
  facet normal -0 0 1
    outer loop
      vertex 5.42178 6.89625 2.75
      vertex 5.9 6.7375 2.75
      vertex 5.42178 7.21475 2.75
    endloop
  endfacet
  facet normal -0 0 1
    outer loop
      vertex 5.2 6.89625 2.75
      vertex 5.9 6.7375 2.75
      vertex 5.42178 6.89625 2.75
    endloop
  endfacet
  facet normal 0 0 1
    outer loop
      vertex -2.5 6.7375 2.75
      vertex 5.2 6.89625 2.75
      vertex -2.5 7.3725 2.75
    endloop
  endfacet
  facet normal 0 0 1
    outer loop
      vertex 5.2 6.89625 2.75
      vertex -2.5 6.7375 2.75
      vertex 5.9 6.7375 2.75
    endloop
  endfacet
  facet normal 0 -1 0
    outer loop
      vertex -2.5 7.3725 3.05
      vertex -0.000999451 7.3725 3.049
      vertex -0.000999451 7.3725 3.05
    endloop
  endfacet
  facet normal 0 -1 0
    outer loop
      vertex -2.5 7.3725 2.75
      vertex -0.000999451 7.3725 3.049
      vertex -2.5 7.3725 3.05
    endloop
  endfacet
  facet normal 0 -1 0
    outer loop
      vertex 5.9 7.3725 2.75
      vertex -0.000999451 7.3725 3.049
      vertex -2.5 7.3725 2.75
    endloop
  endfacet
  facet normal 0 -1 0
    outer loop
      vertex -0.000999451 7.3725 3.049
      vertex 5.9 7.3725 2.75
      vertex 5.9 7.3725 3.049
    endloop
  endfacet
  facet normal 0 1 0
    outer loop
      vertex 5.9 6.7375 3.049
      vertex 5.9 6.7375 2.75
      vertex -0.000999451 6.7375 3.049
    endloop
  endfacet
  facet normal 0 1 -0
    outer loop
      vertex -0.000999451 6.7375 3.049
      vertex -2.5 6.7375 3.05
      vertex -0.000999451 6.7375 3.05
    endloop
  endfacet
  facet normal 0 1 0
    outer loop
      vertex -2.5 6.7375 2.75
      vertex -0.000999451 6.7375 3.049
      vertex 5.9 6.7375 2.75
    endloop
  endfacet
  facet normal 0 1 0
    outer loop
      vertex -0.000999451 6.7375 3.049
      vertex -2.5 6.7375 2.75
      vertex -2.5 6.7375 3.05
    endloop
  endfacet
  facet normal 0 1 -0
    outer loop
      vertex 5.60254 6.89625 1.88674
      vertex 5.42178 6.89625 2.75
      vertex 5.78471 6.89625 1.97169
    endloop
  endfacet
  facet normal 0 1 0
    outer loop
      vertex 5.42178 6.89625 2.75
      vertex 5.60254 6.89625 1.88674
      vertex 5.2 6.89625 2.75
    endloop
  endfacet
  facet normal -0.906309 0 -0.422616
    outer loop
      vertex 5.78471 6.89625 1.97169
      vertex 5.42178 7.21475 2.75
      vertex 5.78471 7.21475 1.97169
    endloop
  endfacet
  facet normal -0.906309 -0 -0.422616
    outer loop
      vertex 5.42178 7.21475 2.75
      vertex 5.78471 6.89625 1.97169
      vertex 5.42178 6.89625 2.75
    endloop
  endfacet
  facet normal 0.90631 -0 0.422614
    outer loop
      vertex 5.2 6.89625 2.75
      vertex 5.60254 7.21475 1.88674
      vertex 5.2 7.21475 2.75
    endloop
  endfacet
  facet normal 0.90631 0 0.422614
    outer loop
      vertex 5.60254 7.21475 1.88674
      vertex 5.2 6.89625 2.75
      vertex 5.60254 6.89625 1.88674
    endloop
  endfacet
  facet normal -0.422629 0 0.906303
    outer loop
      vertex 5.60254 7.21475 1.88674
      vertex 5.78471 6.89625 1.97169
      vertex 5.78471 7.21475 1.97169
    endloop
  endfacet
  facet normal -0.422629 0 0.906303
    outer loop
      vertex 5.78471 6.89625 1.97169
      vertex 5.60254 7.21475 1.88674
      vertex 5.60254 6.89625 1.88674
    endloop
  endfacet
  facet normal 0 -1 0
    outer loop
      vertex 5.60254 7.21475 1.88674
      vertex 5.42178 7.21475 2.75
      vertex 5.2 7.21475 2.75
    endloop
  endfacet
  facet normal 0 -1 0
    outer loop
      vertex 5.42178 7.21475 2.75
      vertex 5.60254 7.21475 1.88674
      vertex 5.78471 7.21475 1.97169
    endloop
  endfacet
  facet normal 0 0 -1
    outer loop
      vertex -2.5 8.0075 3.05
      vertex -0.000999451 8.6425 3.05
      vertex -0.000999451 8.0075 3.05
    endloop
  endfacet
  facet normal -0 0 -1
    outer loop
      vertex -0.000999451 8.6425 3.05
      vertex -2.5 8.0075 3.05
      vertex -2.5 8.6425 3.05
    endloop
  endfacet
  facet normal 0 0 1
    outer loop
      vertex 5.9 8.6425 2.75
      vertex 5.42178 8.48475 2.75
      vertex 5.9 8.0075 2.75
    endloop
  endfacet
  facet normal 0 0 1
    outer loop
      vertex 5.9 8.6425 2.75
      vertex 5.2 8.48475 2.75
      vertex 5.42178 8.48475 2.75
    endloop
  endfacet
  facet normal 0 0 1
    outer loop
      vertex 5.2 8.48475 2.75
      vertex -2.5 8.6425 2.75
      vertex 5.2 8.16625 2.75
    endloop
  endfacet
  facet normal -0 0 1
    outer loop
      vertex -2.5 8.6425 2.75
      vertex 5.2 8.48475 2.75
      vertex 5.9 8.6425 2.75
    endloop
  endfacet
  facet normal -0 0 1
    outer loop
      vertex 5.42178 8.16625 2.75
      vertex 5.9 8.0075 2.75
      vertex 5.42178 8.48475 2.75
    endloop
  endfacet
  facet normal -0 0 1
    outer loop
      vertex 5.2 8.16625 2.75
      vertex 5.9 8.0075 2.75
      vertex 5.42178 8.16625 2.75
    endloop
  endfacet
  facet normal 0 0 1
    outer loop
      vertex -2.5 8.0075 2.75
      vertex 5.2 8.16625 2.75
      vertex -2.5 8.6425 2.75
    endloop
  endfacet
  facet normal 0 0 1
    outer loop
      vertex 5.2 8.16625 2.75
      vertex -2.5 8.0075 2.75
      vertex 5.9 8.0075 2.75
    endloop
  endfacet
  facet normal 0 -1 0
    outer loop
      vertex -2.5 8.6425 3.05
      vertex -0.000999451 8.6425 3.049
      vertex -0.000999451 8.6425 3.05
    endloop
  endfacet
  facet normal 0 -1 0
    outer loop
      vertex -2.5 8.6425 2.75
      vertex -0.000999451 8.6425 3.049
      vertex -2.5 8.6425 3.05
    endloop
  endfacet
  facet normal 0 -1 0
    outer loop
      vertex 5.9 8.6425 2.75
      vertex -0.000999451 8.6425 3.049
      vertex -2.5 8.6425 2.75
    endloop
  endfacet
  facet normal 0 -1 0
    outer loop
      vertex -0.000999451 8.6425 3.049
      vertex 5.9 8.6425 2.75
      vertex 5.9 8.6425 3.049
    endloop
  endfacet
  facet normal 0 1 0
    outer loop
      vertex 5.9 8.0075 3.049
      vertex 5.9 8.0075 2.75
      vertex -0.000999451 8.0075 3.049
    endloop
  endfacet
  facet normal 0 1 -0
    outer loop
      vertex -0.000999451 8.0075 3.049
      vertex -2.5 8.0075 3.05
      vertex -0.000999451 8.0075 3.05
    endloop
  endfacet
  facet normal 0 1 0
    outer loop
      vertex -2.5 8.0075 2.75
      vertex -0.000999451 8.0075 3.049
      vertex 5.9 8.0075 2.75
    endloop
  endfacet
  facet normal 0 1 0
    outer loop
      vertex -0.000999451 8.0075 3.049
      vertex -2.5 8.0075 2.75
      vertex -2.5 8.0075 3.05
    endloop
  endfacet
  facet normal 0 -1 0
    outer loop
      vertex 5.60254 8.48475 1.88674
      vertex 5.42178 8.48475 2.75
      vertex 5.2 8.48475 2.75
    endloop
  endfacet
  facet normal 0 -1 0
    outer loop
      vertex 5.42178 8.48475 2.75
      vertex 5.60254 8.48475 1.88674
      vertex 5.78471 8.48475 1.97169
    endloop
  endfacet
  facet normal 0 1 -0
    outer loop
      vertex 5.60254 8.16625 1.88674
      vertex 5.42178 8.16625 2.75
      vertex 5.78471 8.16625 1.97169
    endloop
  endfacet
  facet normal 0 1 0
    outer loop
      vertex 5.42178 8.16625 2.75
      vertex 5.60254 8.16625 1.88674
      vertex 5.2 8.16625 2.75
    endloop
  endfacet
  facet normal -0.906309 0 -0.422616
    outer loop
      vertex 5.78471 8.16625 1.97169
      vertex 5.42178 8.48475 2.75
      vertex 5.78471 8.48475 1.97169
    endloop
  endfacet
  facet normal -0.906309 -0 -0.422616
    outer loop
      vertex 5.42178 8.48475 2.75
      vertex 5.78471 8.16625 1.97169
      vertex 5.42178 8.16625 2.75
    endloop
  endfacet
  facet normal 0.90631 -0 0.422614
    outer loop
      vertex 5.2 8.16625 2.75
      vertex 5.60254 8.48475 1.88674
      vertex 5.2 8.48475 2.75
    endloop
  endfacet
  facet normal 0.90631 0 0.422614
    outer loop
      vertex 5.60254 8.48475 1.88674
      vertex 5.2 8.16625 2.75
      vertex 5.60254 8.16625 1.88674
    endloop
  endfacet
  facet normal -0.422629 0 0.906303
    outer loop
      vertex 5.60254 8.48475 1.88674
      vertex 5.78471 8.16625 1.97169
      vertex 5.78471 8.48475 1.97169
    endloop
  endfacet
  facet normal -0.422629 0 0.906303
    outer loop
      vertex 5.78471 8.16625 1.97169
      vertex 5.60254 8.48475 1.88674
      vertex 5.60254 8.16625 1.88674
    endloop
  endfacet
  facet normal -1 0 0
    outer loop
      vertex 4.3 0 0
      vertex 4.3 0.200999 4
      vertex 4.3 0.200999 0
    endloop
  endfacet
  facet normal -1 -0 0
    outer loop
      vertex 4.3 0.200999 4
      vertex 4.3 0 0
      vertex 4.3 0 4
    endloop
  endfacet
  facet normal 1 -0 0
    outer loop
      vertex 3.5 0 4
      vertex 3.5 0.200999 0
      vertex 3.5 0.200999 4
    endloop
  endfacet
  facet normal 1 0 0
    outer loop
      vertex 3.5 0.200999 0
      vertex 3.5 0 4
      vertex 3.5 0 0
    endloop
  endfacet
  facet normal 0 -1 0
    outer loop
      vertex 3.5 0.200999 0
      vertex 4.3 0.200999 4
      vertex 3.5 0.200999 4
    endloop
  endfacet
  facet normal 0 -1 -0
    outer loop
      vertex 4.3 0.200999 4
      vertex 3.5 0.200999 0
      vertex 4.3 0.200999 0
    endloop
  endfacet
  facet normal -1 0 0
    outer loop
      vertex 4.3 10.099 0
      vertex 4.3 10.3 4
      vertex 4.3 10.3 0
    endloop
  endfacet
  facet normal -1 -0 0
    outer loop
      vertex 4.3 10.3 4
      vertex 4.3 10.099 0
      vertex 4.3 10.099 4
    endloop
  endfacet
  facet normal 1 -0 0
    outer loop
      vertex 3.5 10.099 4
      vertex 3.5 10.3 0
      vertex 3.5 10.3 4
    endloop
  endfacet
  facet normal 1 0 0
    outer loop
      vertex 3.5 10.3 0
      vertex 3.5 10.099 4
      vertex 3.5 10.099 0
    endloop
  endfacet
  facet normal 0 1 -0
    outer loop
      vertex 4.3 10.099 0
      vertex 3.5 10.099 4
      vertex 4.3 10.099 4
    endloop
  endfacet
  facet normal 0 1 0
    outer loop
      vertex 3.5 10.099 4
      vertex 4.3 10.099 0
      vertex 3.5 10.099 0
    endloop
  endfacet
  facet normal 0 0 -1
    outer loop
      vertex -0.000999451 1.199 4.001
      vertex 0.00299931 9.101 4.001
      vertex 0.00299931 1.199 4.001
    endloop
  endfacet
  facet normal -0 0 -1
    outer loop
      vertex 0.00299931 9.101 4.001
      vertex -0.000999451 1.199 4.001
      vertex -0.000999451 9.101 4.001
    endloop
  endfacet
  facet normal -0 0 1
    outer loop
      vertex -0.000999451 1.6575 3.049
      vertex 5.9 1.199 3.049
      vertex 5.9 1.6575 3.049
    endloop
  endfacet
  facet normal 0 0 1
    outer loop
      vertex 5.9 1.199 3.049
      vertex -0.000999451 1.6575 3.049
      vertex -0.000999451 1.199 3.049
    endloop
  endfacet
  facet normal -0 0 1
    outer loop
      vertex -0.000999451 9.101 3.049
      vertex 5.9 8.6425 3.049
      vertex 5.9 9.101 3.049
    endloop
  endfacet
  facet normal 0 0 1
    outer loop
      vertex 5.9 8.6425 3.049
      vertex -0.000999451 9.101 3.049
      vertex -0.000999451 8.6425 3.049
    endloop
  endfacet
  facet normal -0 0 1
    outer loop
      vertex -0.000999451 2.9275 3.049
      vertex 5.9 2.2925 3.049
      vertex 5.9 2.9275 3.049
    endloop
  endfacet
  facet normal 0 0 1
    outer loop
      vertex 5.9 2.2925 3.049
      vertex -0.000999451 2.9275 3.049
      vertex -0.000999451 2.2925 3.049
    endloop
  endfacet
  facet normal -0 0 1
    outer loop
      vertex -0.000999451 4.1975 3.049
      vertex 5.9 3.5625 3.049
      vertex 5.9 4.1975 3.049
    endloop
  endfacet
  facet normal 0 0 1
    outer loop
      vertex 5.9 3.5625 3.049
      vertex -0.000999451 4.1975 3.049
      vertex -0.000999451 3.5625 3.049
    endloop
  endfacet
  facet normal -0 0 1
    outer loop
      vertex -0.000999451 5.4675 3.049
      vertex 5.9 4.8325 3.049
      vertex 5.9 5.4675 3.049
    endloop
  endfacet
  facet normal 0 0 1
    outer loop
      vertex 5.9 4.8325 3.049
      vertex -0.000999451 5.4675 3.049
      vertex -0.000999451 4.8325 3.049
    endloop
  endfacet
  facet normal -0 0 1
    outer loop
      vertex -0.000999451 6.7375 3.049
      vertex 5.9 6.1025 3.049
      vertex 5.9 6.7375 3.049
    endloop
  endfacet
  facet normal 0 0 1
    outer loop
      vertex 5.9 6.1025 3.049
      vertex -0.000999451 6.7375 3.049
      vertex -0.000999451 6.1025 3.049
    endloop
  endfacet
  facet normal -0 0 1
    outer loop
      vertex -0.000999451 8.0075 3.049
      vertex 5.9 7.3725 3.049
      vertex 5.9 8.0075 3.049
    endloop
  endfacet
  facet normal 0 0 1
    outer loop
      vertex 5.9 7.3725 3.049
      vertex -0.000999451 8.0075 3.049
      vertex -0.000999451 7.3725 3.049
    endloop
  endfacet
  facet normal 1 0 0
    outer loop
      vertex -0.000999451 9.101 4.001
      vertex -0.000999451 8.6425 3.05
      vertex -0.000999451 9.101 3.049
    endloop
  endfacet
  facet normal 1 0 0
    outer loop
      vertex -0.000999451 9.101 4.001
      vertex -0.000999451 8.0075 3.05
      vertex -0.000999451 8.6425 3.05
    endloop
  endfacet
  facet normal 1 0 0
    outer loop
      vertex -0.000999451 8.0075 3.05
      vertex -0.000999451 7.3725 3.05
      vertex -0.000999451 8.0075 3.049
    endloop
  endfacet
  facet normal 1 0 0
    outer loop
      vertex -0.000999451 9.101 4.001
      vertex -0.000999451 7.3725 3.05
      vertex -0.000999451 8.0075 3.05
    endloop
  endfacet
  facet normal 1 0 0
    outer loop
      vertex -0.000999451 9.101 4.001
      vertex -0.000999451 6.7375 3.05
      vertex -0.000999451 7.3725 3.05
    endloop
  endfacet
  facet normal 1 0 0
    outer loop
      vertex -0.000999451 6.7375 3.05
      vertex -0.000999451 6.1025 3.05
      vertex -0.000999451 6.7375 3.049
    endloop
  endfacet
  facet normal 1 0 0
    outer loop
      vertex -0.000999451 9.101 4.001
      vertex -0.000999451 6.1025 3.05
      vertex -0.000999451 6.7375 3.05
    endloop
  endfacet
  facet normal 1 0 0
    outer loop
      vertex -0.000999451 9.101 4.001
      vertex -0.000999451 5.4675 3.05
      vertex -0.000999451 6.1025 3.05
    endloop
  endfacet
  facet normal 1 0 0
    outer loop
      vertex -0.000999451 5.4675 3.05
      vertex -0.000999451 4.8325 3.05
      vertex -0.000999451 5.4675 3.049
    endloop
  endfacet
  facet normal 1 0 0
    outer loop
      vertex -0.000999451 9.101 4.001
      vertex -0.000999451 4.8325 3.05
      vertex -0.000999451 5.4675 3.05
    endloop
  endfacet
  facet normal 1 -0 0
    outer loop
      vertex -0.000999451 1.199 4.001
      vertex -0.000999451 4.8325 3.05
      vertex -0.000999451 9.101 4.001
    endloop
  endfacet
  facet normal 1 0 0
    outer loop
      vertex -0.000999451 4.1975 3.05
      vertex -0.000999451 3.5625 3.05
      vertex -0.000999451 4.1975 3.049
    endloop
  endfacet
  facet normal 1 0 0
    outer loop
      vertex -0.000999451 4.8325 3.05
      vertex -0.000999451 1.199 4.001
      vertex -0.000999451 4.1975 3.05
    endloop
  endfacet
  facet normal 1 0 0
    outer loop
      vertex -0.000999451 4.1975 3.05
      vertex -0.000999451 1.199 4.001
      vertex -0.000999451 3.5625 3.05
    endloop
  endfacet
  facet normal 1 0 0
    outer loop
      vertex -0.000999451 2.9275 3.05
      vertex -0.000999451 2.2925 3.05
      vertex -0.000999451 2.9275 3.049
    endloop
  endfacet
  facet normal 1 0 0
    outer loop
      vertex -0.000999451 3.5625 3.05
      vertex -0.000999451 1.199 4.001
      vertex -0.000999451 2.9275 3.05
    endloop
  endfacet
  facet normal 1 0 0
    outer loop
      vertex -0.000999451 2.9275 3.05
      vertex -0.000999451 1.199 4.001
      vertex -0.000999451 2.2925 3.05
    endloop
  endfacet
  facet normal 1 0 0
    outer loop
      vertex -0.000999451 2.2925 3.05
      vertex -0.000999451 1.199 4.001
      vertex -0.000999451 1.6575 3.05
    endloop
  endfacet
  facet normal 1 0 0
    outer loop
      vertex -0.000999451 1.199 3.049
      vertex -0.000999451 1.6575 3.05
      vertex -0.000999451 1.199 4.001
    endloop
  endfacet
  facet normal 1 0 0
    outer loop
      vertex -0.000999451 1.6575 3.05
      vertex -0.000999451 1.199 3.049
      vertex -0.000999451 1.6575 3.049
    endloop
  endfacet
  facet normal 1 0 0
    outer loop
      vertex -0.000999451 9.101 3.049
      vertex -0.000999451 8.6425 3.05
      vertex -0.000999451 8.6425 3.049
    endloop
  endfacet
  facet normal 1 0 0
    outer loop
      vertex -0.000999451 8.0075 3.049
      vertex -0.000999451 7.3725 3.05
      vertex -0.000999451 7.3725 3.049
    endloop
  endfacet
  facet normal 1 0 0
    outer loop
      vertex -0.000999451 6.7375 3.049
      vertex -0.000999451 6.1025 3.05
      vertex -0.000999451 6.1025 3.049
    endloop
  endfacet
  facet normal 1 0 0
    outer loop
      vertex -0.000999451 5.4675 3.049
      vertex -0.000999451 4.8325 3.05
      vertex -0.000999451 4.8325 3.049
    endloop
  endfacet
  facet normal 1 0 0
    outer loop
      vertex -0.000999451 4.1975 3.049
      vertex -0.000999451 3.5625 3.05
      vertex -0.000999451 3.5625 3.049
    endloop
  endfacet
  facet normal 1 0 0
    outer loop
      vertex -0.000999451 2.9275 3.049
      vertex -0.000999451 2.2925 3.05
      vertex -0.000999451 2.2925 3.049
    endloop
  endfacet
  facet normal 0 -1 0
    outer loop
      vertex -0.000999451 9.101 4.001
      vertex 0.00299931 9.101 4
      vertex 0.00299931 9.101 4.001
    endloop
  endfacet
  facet normal 0 -1 0
    outer loop
      vertex -0.000999451 9.101 3.049
      vertex 0.00299931 9.101 4
      vertex -0.000999451 9.101 4.001
    endloop
  endfacet
  facet normal 0 -1 0
    outer loop
      vertex -0.000999451 9.101 3.049
      vertex 5.9 9.101 4
      vertex 0.00299931 9.101 4
    endloop
  endfacet
  facet normal 0 -1 -0
    outer loop
      vertex 5.9 9.101 4
      vertex -0.000999451 9.101 3.049
      vertex 5.9 9.101 3.049
    endloop
  endfacet
  facet normal 0 1 0
    outer loop
      vertex 5.9 1.199 4
      vertex 5.9 1.199 3.049
      vertex 0.00299931 1.199 4
    endloop
  endfacet
  facet normal 0 1 -0
    outer loop
      vertex 0.00299931 1.199 4
      vertex -0.000999451 1.199 4.001
      vertex 0.00299931 1.199 4.001
    endloop
  endfacet
  facet normal 0 1 0
    outer loop
      vertex 0.00299931 1.199 4
      vertex -0.000999451 1.199 3.049
      vertex -0.000999451 1.199 4.001
    endloop
  endfacet
  facet normal 0 1 0
    outer loop
      vertex -0.000999451 1.199 3.049
      vertex 0.00299931 1.199 4
      vertex 5.9 1.199 3.049
    endloop
  endfacet
  facet normal -1 0 0
    outer loop
      vertex -2.5 8.96 1.525
      vertex -2.5 8.6425 2.75
      vertex -2.5 8.96 4.065
    endloop
  endfacet
  facet normal -1 0 0
    outer loop
      vertex -2.5 8.96 1.525
      vertex -2.5 8.0075 2.75
      vertex -2.5 8.6425 2.75
    endloop
  endfacet
  facet normal -1 0 0
    outer loop
      vertex -2.5 8.0075 2.75
      vertex -2.5 7.3725 2.75
      vertex -2.5 8.0075 3.05
    endloop
  endfacet
  facet normal -1 0 0
    outer loop
      vertex -2.5 8.96 1.525
      vertex -2.5 7.3725 2.75
      vertex -2.5 8.0075 2.75
    endloop
  endfacet
  facet normal -1 0 0
    outer loop
      vertex -2.5 8.96 1.525
      vertex -2.5 6.7375 2.75
      vertex -2.5 7.3725 2.75
    endloop
  endfacet
  facet normal -1 0 0
    outer loop
      vertex -2.5 6.7375 2.75
      vertex -2.5 6.1025 2.75
      vertex -2.5 6.7375 3.05
    endloop
  endfacet
  facet normal -1 0 0
    outer loop
      vertex -2.5 8.96 1.525
      vertex -2.5 6.1025 2.75
      vertex -2.5 6.7375 2.75
    endloop
  endfacet
  facet normal -1 0 0
    outer loop
      vertex -2.5 8.96 1.525
      vertex -2.5 5.4675 2.75
      vertex -2.5 6.1025 2.75
    endloop
  endfacet
  facet normal -1 0 0
    outer loop
      vertex -2.5 5.4675 2.75
      vertex -2.5 4.8325 2.75
      vertex -2.5 5.4675 3.05
    endloop
  endfacet
  facet normal -1 0 0
    outer loop
      vertex -2.5 8.96 1.525
      vertex -2.5 4.8325 2.75
      vertex -2.5 5.4675 2.75
    endloop
  endfacet
  facet normal -1 0 0
    outer loop
      vertex -2.5 1.34 1.525
      vertex -2.5 4.8325 2.75
      vertex -2.5 8.96 1.525
    endloop
  endfacet
  facet normal -1 0 0
    outer loop
      vertex -2.5 4.1975 2.75
      vertex -2.5 3.5625 2.75
      vertex -2.5 4.1975 3.05
    endloop
  endfacet
  facet normal -1 -0 0
    outer loop
      vertex -2.5 4.8325 2.75
      vertex -2.5 1.34 1.525
      vertex -2.5 4.1975 2.75
    endloop
  endfacet
  facet normal -1 -0 0
    outer loop
      vertex -2.5 4.1975 2.75
      vertex -2.5 1.34 1.525
      vertex -2.5 3.5625 2.75
    endloop
  endfacet
  facet normal -1 0 0
    outer loop
      vertex -2.5 2.9275 2.75
      vertex -2.5 2.2925 2.75
      vertex -2.5 2.9275 3.05
    endloop
  endfacet
  facet normal -1 -0 0
    outer loop
      vertex -2.5 3.5625 2.75
      vertex -2.5 1.34 1.525
      vertex -2.5 2.9275 2.75
    endloop
  endfacet
  facet normal -1 -0 0
    outer loop
      vertex -2.5 2.9275 2.75
      vertex -2.5 1.34 1.525
      vertex -2.5 2.2925 2.75
    endloop
  endfacet
  facet normal -1 0 0
    outer loop
      vertex -2.5 1.34 4.065
      vertex -2.5 1.6575 2.75
      vertex -2.5 1.34 1.525
    endloop
  endfacet
  facet normal -1 -0 0
    outer loop
      vertex -2.5 2.2925 2.75
      vertex -2.5 1.34 1.525
      vertex -2.5 1.6575 2.75
    endloop
  endfacet
  facet normal -1 0 0
    outer loop
      vertex -2.5 8.6425 3.05
      vertex -2.5 8.96 4.065
      vertex -2.5 8.6425 2.75
    endloop
  endfacet
  facet normal -1 0 0
    outer loop
      vertex -2.5 8.0075 3.05
      vertex -2.5 8.96 4.065
      vertex -2.5 8.6425 3.05
    endloop
  endfacet
  facet normal -1 0 0
    outer loop
      vertex -2.5 7.3725 3.05
      vertex -2.5 8.0075 3.05
      vertex -2.5 7.3725 2.75
    endloop
  endfacet
  facet normal -1 0 0
    outer loop
      vertex -2.5 8.0075 3.05
      vertex -2.5 7.3725 3.05
      vertex -2.5 8.96 4.065
    endloop
  endfacet
  facet normal -1 0 0
    outer loop
      vertex -2.5 6.7375 3.05
      vertex -2.5 8.96 4.065
      vertex -2.5 7.3725 3.05
    endloop
  endfacet
  facet normal -1 0 0
    outer loop
      vertex -2.5 6.1025 3.05
      vertex -2.5 6.7375 3.05
      vertex -2.5 6.1025 2.75
    endloop
  endfacet
  facet normal -1 0 0
    outer loop
      vertex -2.5 6.1025 3.05
      vertex -2.5 8.96 4.065
      vertex -2.5 6.7375 3.05
    endloop
  endfacet
  facet normal -1 0 0
    outer loop
      vertex -2.5 5.4675 3.05
      vertex -2.5 8.96 4.065
      vertex -2.5 6.1025 3.05
    endloop
  endfacet
  facet normal -1 0 0
    outer loop
      vertex -2.5 4.8325 3.05
      vertex -2.5 5.4675 3.05
      vertex -2.5 4.8325 2.75
    endloop
  endfacet
  facet normal -1 0 0
    outer loop
      vertex -2.5 4.8325 3.05
      vertex -2.5 8.96 4.065
      vertex -2.5 5.4675 3.05
    endloop
  endfacet
  facet normal -1 0 0
    outer loop
      vertex -2.5 1.34 4.065
      vertex -2.5 4.8325 3.05
      vertex -2.5 4.1975 3.05
    endloop
  endfacet
  facet normal -1 0 0
    outer loop
      vertex -2.5 3.5625 3.05
      vertex -2.5 4.1975 3.05
      vertex -2.5 3.5625 2.75
    endloop
  endfacet
  facet normal -1 0 0
    outer loop
      vertex -2.5 1.34 4.065
      vertex -2.5 4.1975 3.05
      vertex -2.5 3.5625 3.05
    endloop
  endfacet
  facet normal -1 0 0
    outer loop
      vertex -2.5 1.34 4.065
      vertex -2.5 3.5625 3.05
      vertex -2.5 2.9275 3.05
    endloop
  endfacet
  facet normal -1 0 0
    outer loop
      vertex -2.5 2.2925 3.05
      vertex -2.5 2.9275 3.05
      vertex -2.5 2.2925 2.75
    endloop
  endfacet
  facet normal -1 0 0
    outer loop
      vertex -2.5 1.34 4.065
      vertex -2.5 2.9275 3.05
      vertex -2.5 2.2925 3.05
    endloop
  endfacet
  facet normal -1 0 0
    outer loop
      vertex -2.5 1.34 4.065
      vertex -2.5 2.2925 3.05
      vertex -2.5 1.6575 3.05
    endloop
  endfacet
  facet normal -1 0 0
    outer loop
      vertex -2.5 4.8325 3.05
      vertex -2.5 1.34 4.065
      vertex -2.5 8.96 4.065
    endloop
  endfacet
  facet normal -1 0 0
    outer loop
      vertex -2.5 1.6575 2.75
      vertex -2.5 1.34 4.065
      vertex -2.5 1.6575 3.05
    endloop
  endfacet
  facet normal 0 0 -1
    outer loop
      vertex -7.799 1.34 4.065
      vertex -2.5 8.96 4.065
      vertex -2.5 1.34 4.065
    endloop
  endfacet
  facet normal -0 0 -1
    outer loop
      vertex -2.5 8.96 4.065
      vertex -7.799 1.34 4.065
      vertex -7.799 8.96 4.065
    endloop
  endfacet
  facet normal -0 0 1
    outer loop
      vertex -7.799 8.96 1.525
      vertex -2.5 1.34 1.525
      vertex -2.5 8.96 1.525
    endloop
  endfacet
  facet normal 0 0 1
    outer loop
      vertex -2.5 1.34 1.525
      vertex -7.799 8.96 1.525
      vertex -7.799 1.34 1.525
    endloop
  endfacet
  facet normal 0 -1 0
    outer loop
      vertex -7.799 8.96 1.525
      vertex -2.5 8.96 4.065
      vertex -7.799 8.96 4.065
    endloop
  endfacet
  facet normal 0 -1 -0
    outer loop
      vertex -2.5 8.96 4.065
      vertex -7.799 8.96 1.525
      vertex -2.5 8.96 1.525
    endloop
  endfacet
  facet normal 0 1 -0
    outer loop
      vertex -2.5 1.34 1.525
      vertex -7.799 1.34 4.065
      vertex -2.5 1.34 4.065
    endloop
  endfacet
  facet normal 0 1 0
    outer loop
      vertex -7.799 1.34 4.065
      vertex -2.5 1.34 1.525
      vertex -7.799 1.34 1.525
    endloop
  endfacet
endsolid OpenSCAD_Model
