solid OpenSCAD_Model
  facet normal 1 0 0
    outer loop
      vertex 5.9 1.199 5.375
      vertex 5.9 0 5.375
      vertex 5.9 1.199 4.424
    endloop
  endfacet
  facet normal 1 0 0
    outer loop
      vertex 5.9 1.6575 4.424
      vertex 5.9 1.199 4.424
      vertex 5.9 1.6575 4.125
    endloop
  endfacet
  facet normal 1 0 0
    outer loop
      vertex 5.9 2.9275 4.424
      vertex 5.9 2.2925 4.424
      vertex 5.9 2.9275 4.125
    endloop
  endfacet
  facet normal 1 0 0
    outer loop
      vertex 5.9 4.1975 4.424
      vertex 5.9 3.5625 4.424
      vertex 5.9 4.1975 4.125
    endloop
  endfacet
  facet normal 1 0 0
    outer loop
      vertex 5.9 5.4675 4.424
      vertex 5.9 4.8325 4.424
      vertex 5.9 5.4675 4.125
    endloop
  endfacet
  facet normal 1 0 0
    outer loop
      vertex 5.9 6.7375 4.424
      vertex 5.9 6.1025 4.424
      vertex 5.9 6.7375 4.125
    endloop
  endfacet
  facet normal 1 0 0
    outer loop
      vertex 5.9 8.0075 4.424
      vertex 5.9 7.3725 4.424
      vertex 5.9 8.0075 4.125
    endloop
  endfacet
  facet normal 1 0 0
    outer loop
      vertex 5.9 9.101 4.424
      vertex 5.9 10.3 5.375
      vertex 5.9 9.101 5.375
    endloop
  endfacet
  facet normal 1 0 0
    outer loop
      vertex 5.9 10.3 5.375
      vertex 5.9 9.101 4.424
      vertex 5.9 10.3 1.375
    endloop
  endfacet
  facet normal 1 0 0
    outer loop
      vertex 5.9 8.6425 4.125
      vertex 5.9 9.101 4.424
      vertex 5.9 8.6425 4.424
    endloop
  endfacet
  facet normal 1 0 0
    outer loop
      vertex 5.9 9.101 4.424
      vertex 5.9 8.6425 4.125
      vertex 5.9 10.3 1.375
    endloop
  endfacet
  facet normal 1 -0 0
    outer loop
      vertex 5.9 8.0075 4.125
      vertex 5.9 10.3 1.375
      vertex 5.9 8.6425 4.125
    endloop
  endfacet
  facet normal 1 0 0
    outer loop
      vertex 5.9 7.3725 4.125
      vertex 5.9 8.0075 4.125
      vertex 5.9 7.3725 4.424
    endloop
  endfacet
  facet normal 1 0 0
    outer loop
      vertex 5.9 8.0075 4.125
      vertex 5.9 7.3725 4.125
      vertex 5.9 10.3 1.375
    endloop
  endfacet
  facet normal 1 -0 0
    outer loop
      vertex 5.9 6.7375 4.125
      vertex 5.9 10.3 1.375
      vertex 5.9 7.3725 4.125
    endloop
  endfacet
  facet normal 1 0 0
    outer loop
      vertex 5.9 6.1025 4.125
      vertex 5.9 6.7375 4.125
      vertex 5.9 6.1025 4.424
    endloop
  endfacet
  facet normal 1 0 0
    outer loop
      vertex 5.9 6.7375 4.125
      vertex 5.9 6.1025 4.125
      vertex 5.9 10.3 1.375
    endloop
  endfacet
  facet normal 1 -0 0
    outer loop
      vertex 5.9 5.4675 4.125
      vertex 5.9 10.3 1.375
      vertex 5.9 6.1025 4.125
    endloop
  endfacet
  facet normal 1 0 0
    outer loop
      vertex 5.9 4.8325 4.125
      vertex 5.9 5.4675 4.125
      vertex 5.9 4.8325 4.424
    endloop
  endfacet
  facet normal 1 0 0
    outer loop
      vertex 5.9 5.4675 4.125
      vertex 5.9 4.8325 4.125
      vertex 5.9 10.3 1.375
    endloop
  endfacet
  facet normal 1 0 0
    outer loop
      vertex 5.9 0 1.375
      vertex 5.9 4.8325 4.125
      vertex 5.9 4.1975 4.125
    endloop
  endfacet
  facet normal 1 0 0
    outer loop
      vertex 5.9 3.5625 4.125
      vertex 5.9 4.1975 4.125
      vertex 5.9 3.5625 4.424
    endloop
  endfacet
  facet normal 1 0 0
    outer loop
      vertex 5.9 0 1.375
      vertex 5.9 4.1975 4.125
      vertex 5.9 3.5625 4.125
    endloop
  endfacet
  facet normal 1 0 0
    outer loop
      vertex 5.9 0 1.375
      vertex 5.9 3.5625 4.125
      vertex 5.9 2.9275 4.125
    endloop
  endfacet
  facet normal 1 0 0
    outer loop
      vertex 5.9 2.2925 4.125
      vertex 5.9 2.9275 4.125
      vertex 5.9 2.2925 4.424
    endloop
  endfacet
  facet normal 1 0 0
    outer loop
      vertex 5.9 0 1.375
      vertex 5.9 2.9275 4.125
      vertex 5.9 2.2925 4.125
    endloop
  endfacet
  facet normal 1 0 0
    outer loop
      vertex 5.9 0 1.375
      vertex 5.9 2.2925 4.125
      vertex 5.9 1.6575 4.125
    endloop
  endfacet
  facet normal 1 0 0
    outer loop
      vertex 5.9 4.8325 4.125
      vertex 5.9 0 1.375
      vertex 5.9 10.3 1.375
    endloop
  endfacet
  facet normal 1 0 0
    outer loop
      vertex 5.9 1.199 4.424
      vertex 5.9 0 1.375
      vertex 5.9 1.6575 4.125
    endloop
  endfacet
  facet normal 1 0 0
    outer loop
      vertex 5.9 0 1.375
      vertex 5.9 1.199 4.424
      vertex 5.9 0 5.375
    endloop
  endfacet
  facet normal 0 0 1
    outer loop
      vertex 3.5 10.3 5.375
      vertex 0.00499916 10.3 5.375
      vertex 3.5 10.099 5.375
    endloop
  endfacet
  facet normal 0 0 1
    outer loop
      vertex 4.3 10.099 5.375
      vertex 5.9 10.3 5.375
      vertex 4.3 10.3 5.375
    endloop
  endfacet
  facet normal 0 0 1
    outer loop
      vertex 5.9 10.3 5.375
      vertex 4.3 10.099 5.375
      vertex 5.9 9.101 5.375
    endloop
  endfacet
  facet normal -0 0 1
    outer loop
      vertex 3.5 10.099 5.375
      vertex 5.9 9.101 5.375
      vertex 4.3 10.099 5.375
    endloop
  endfacet
  facet normal 0 0 1
    outer loop
      vertex 0.00499916 9.101 5.375
      vertex 3.5 10.099 5.375
      vertex 0.00499916 10.3 5.375
    endloop
  endfacet
  facet normal 0 0 1
    outer loop
      vertex 3.5 10.099 5.375
      vertex 0.00499916 9.101 5.375
      vertex 5.9 9.101 5.375
    endloop
  endfacet
  facet normal 0 0 1
    outer loop
      vertex 5.9 1.199 5.375
      vertex 4.3 0.200999 5.375
      vertex 5.9 0 5.375
    endloop
  endfacet
  facet normal 0 0 1
    outer loop
      vertex 5.9 1.199 5.375
      vertex 3.5 0.200999 5.375
      vertex 4.3 0.200999 5.375
    endloop
  endfacet
  facet normal -0 0 1
    outer loop
      vertex 0.00499916 1.199 5.375
      vertex 3.5 0.200999 5.375
      vertex 5.9 1.199 5.375
    endloop
  endfacet
  facet normal 0 0 1
    outer loop
      vertex 0.00499916 0 5.375
      vertex 3.5 0.200999 5.375
      vertex 0.00499916 1.199 5.375
    endloop
  endfacet
  facet normal 0 0 1
    outer loop
      vertex 3.5 0.200999 5.375
      vertex 0.00499916 0 5.375
      vertex 3.5 0 5.375
    endloop
  endfacet
  facet normal 0 0 1
    outer loop
      vertex 5.9 0 5.375
      vertex 4.3 0.200999 5.375
      vertex 4.3 0 5.375
    endloop
  endfacet
  facet normal 0 0 -1
    outer loop
      vertex 0.00299931 0 1.375
      vertex 3.5 0.200999 1.375
      vertex 3.5 0 1.375
    endloop
  endfacet
  facet normal -0 0 -1
    outer loop
      vertex 3.5 0.200999 1.375
      vertex 0.00299931 0 1.375
      vertex 3.5 10.099 1.375
    endloop
  endfacet
  facet normal 0 0 -1
    outer loop
      vertex 0.00299931 10.3 1.375
      vertex 3.5 10.099 1.375
      vertex 0.00299931 0 1.375
    endloop
  endfacet
  facet normal 0 0 -1
    outer loop
      vertex 3.5 10.099 1.375
      vertex 0.00299931 10.3 1.375
      vertex 3.5 10.3 1.375
    endloop
  endfacet
  facet normal 0 0 -1
    outer loop
      vertex 3.5 0.200999 1.375
      vertex 4.3 10.099 1.375
      vertex 4.3 0.200999 1.375
    endloop
  endfacet
  facet normal -0 0 -1
    outer loop
      vertex 4.3 10.099 1.375
      vertex 3.5 0.200999 1.375
      vertex 3.5 10.099 1.375
    endloop
  endfacet
  facet normal 0 0 -1
    outer loop
      vertex 4.3 0.200999 1.375
      vertex 5.9 0 1.375
      vertex 4.3 0 1.375
    endloop
  endfacet
  facet normal 0 0 -1
    outer loop
      vertex 5.9 0 1.375
      vertex 4.3 0.200999 1.375
      vertex 5.9 10.3 1.375
    endloop
  endfacet
  facet normal 0 0 -1
    outer loop
      vertex 4.3 10.099 1.375
      vertex 5.9 10.3 1.375
      vertex 4.3 0.200999 1.375
    endloop
  endfacet
  facet normal -0 0 -1
    outer loop
      vertex 5.9 10.3 1.375
      vertex 4.3 10.099 1.375
      vertex 4.3 10.3 1.375
    endloop
  endfacet
  facet normal 0 1 -0
    outer loop
      vertex 5.9 10.3 1.375
      vertex 4.3 10.3 5.375
      vertex 5.9 10.3 5.375
    endloop
  endfacet
  facet normal 0 1 0
    outer loop
      vertex 4.3 10.3 5.375
      vertex 5.9 10.3 1.375
      vertex 4.3 10.3 1.375
    endloop
  endfacet
  facet normal 0 1 0
    outer loop
      vertex 3.5 10.3 5.375
      vertex 0.00499916 10.3 5.374
      vertex 0.00499916 10.3 5.375
    endloop
  endfacet
  facet normal 0 1 -0
    outer loop
      vertex 3.5 10.3 1.375
      vertex 0.00499916 10.3 5.374
      vertex 3.5 10.3 5.375
    endloop
  endfacet
  facet normal 0 1 0
    outer loop
      vertex 0.00299931 10.3 1.375
      vertex 0.00499916 10.3 5.374
      vertex 3.5 10.3 1.375
    endloop
  endfacet
  facet normal 0 1 0
    outer loop
      vertex 0.00499916 10.3 5.374
      vertex 0.00299931 10.3 1.375
      vertex 0.00299931 10.3 5.374
    endloop
  endfacet
  facet normal 0 -1 0
    outer loop
      vertex 4.3 0 1.375
      vertex 5.9 0 5.375
      vertex 4.3 0 5.375
    endloop
  endfacet
  facet normal 0 -1 -0
    outer loop
      vertex 5.9 0 5.375
      vertex 4.3 0 1.375
      vertex 5.9 0 1.375
    endloop
  endfacet
  facet normal 0 -1 0
    outer loop
      vertex 0.00299931 0 5.374
      vertex 0.00299931 0 1.375
      vertex 0.00499916 0 5.374
    endloop
  endfacet
  facet normal 0 -1 0
    outer loop
      vertex 0.00499916 0 5.374
      vertex 3.5 0 5.375
      vertex 0.00499916 0 5.375
    endloop
  endfacet
  facet normal 0 -1 0
    outer loop
      vertex 0.00299931 0 1.375
      vertex 3.5 0 5.375
      vertex 0.00499916 0 5.374
    endloop
  endfacet
  facet normal 0 -1 -0
    outer loop
      vertex 3.5 0 5.375
      vertex 0.00299931 0 1.375
      vertex 3.5 0 1.375
    endloop
  endfacet
  facet normal 1 0 0
    outer loop
      vertex 0.00299931 0 5.374
      vertex 0.00299931 -1.8 5.374
      vertex 0.00299931 0 1.375
    endloop
  endfacet
  facet normal 1 0 0
    outer loop
      vertex 0.00299931 10.3 1.375
      vertex 0.00299931 12.1 5.374
      vertex 0.00299931 10.3 5.374
    endloop
  endfacet
  facet normal 1 0 0
    outer loop
      vertex 0.00299931 12.1 5.374
      vertex 0.00299931 10.3 1.375
      vertex 0.00299931 12.1 0.175
    endloop
  endfacet
  facet normal 1 -0 0
    outer loop
      vertex 0.00299931 0 1.375
      vertex 0.00299931 12.1 0.175
      vertex 0.00299931 10.3 1.375
    endloop
  endfacet
  facet normal 1 0 0
    outer loop
      vertex 0.00299931 0 1.375
      vertex 0.00299931 -1.8 0.175
      vertex 0.00299931 12.1 0.175
    endloop
  endfacet
  facet normal 1 0 0
    outer loop
      vertex 0.00299931 -1.8 0.175
      vertex 0.00299931 0 1.375
      vertex 0.00299931 -1.8 5.374
    endloop
  endfacet
  facet normal 0 0 -1
    outer loop
      vertex -7.799 -1.8 0.175
      vertex 0.00299931 12.1 0.175
      vertex 0.00299931 -1.8 0.175
    endloop
  endfacet
  facet normal -0 0 -1
    outer loop
      vertex 0.00299931 12.1 0.175
      vertex -7.799 -1.8 0.175
      vertex -7.799 12.1 0.175
    endloop
  endfacet
  facet normal -1 0 0
    outer loop
      vertex -7.799 12.1 0.175
      vertex -7.799 8.96 2.9
      vertex -7.799 12.1 5.374
    endloop
  endfacet
  facet normal -1 0 0
    outer loop
      vertex -7.799 12.1 0.175
      vertex -7.799 1.34 2.9
      vertex -7.799 8.96 2.9
    endloop
  endfacet
  facet normal -1 0 0
    outer loop
      vertex -7.799 -1.8 0.175
      vertex -7.799 1.34 2.9
      vertex -7.799 12.1 0.175
    endloop
  endfacet
  facet normal -1 0 0
    outer loop
      vertex -7.799 -1.8 5.374
      vertex -7.799 1.34 2.9
      vertex -7.799 -1.8 0.175
    endloop
  endfacet
  facet normal -1 0 0
    outer loop
      vertex -7.799 1.34 2.9
      vertex -7.799 -1.8 5.374
      vertex -7.799 1.34 5.374
    endloop
  endfacet
  facet normal -1 -0 0
    outer loop
      vertex -7.799 12.1 5.374
      vertex -7.799 8.96 2.9
      vertex -7.799 8.96 5.374
    endloop
  endfacet
  facet normal 0 1 0
    outer loop
      vertex 0.00299931 12.1 5.374
      vertex -1.95 12.1 2.375
      vertex -1.95 12.1 5.374
    endloop
  endfacet
  facet normal 0 1 0
    outer loop
      vertex -1.95 12.1 2.375
      vertex 0.00299931 12.1 0.175
      vertex -5.85 12.1 2.375
    endloop
  endfacet
  facet normal 0 1 -0
    outer loop
      vertex 0.00299931 12.1 0.175
      vertex -1.95 12.1 2.375
      vertex 0.00299931 12.1 5.374
    endloop
  endfacet
  facet normal 0 1 -0
    outer loop
      vertex -5.85 12.1 2.375
      vertex -7.799 12.1 5.374
      vertex -5.85 12.1 5.374
    endloop
  endfacet
  facet normal 0 1 0
    outer loop
      vertex -5.85 12.1 2.375
      vertex -7.799 12.1 0.175
      vertex -7.799 12.1 5.374
    endloop
  endfacet
  facet normal 0 1 0
    outer loop
      vertex -7.799 12.1 0.175
      vertex -5.85 12.1 2.375
      vertex 0.00299931 12.1 0.175
    endloop
  endfacet
  facet normal 0 -1 0
    outer loop
      vertex -7.799 -1.8 5.374
      vertex -5.85 -1.8 2.375
      vertex -5.85 -1.8 5.374
    endloop
  endfacet
  facet normal 0 -1 -0
    outer loop
      vertex -5.85 -1.8 2.375
      vertex -7.799 -1.8 0.175
      vertex -1.95 -1.8 2.375
    endloop
  endfacet
  facet normal 0 -1 0
    outer loop
      vertex -7.799 -1.8 0.175
      vertex -5.85 -1.8 2.375
      vertex -7.799 -1.8 5.374
    endloop
  endfacet
  facet normal 0 -1 0
    outer loop
      vertex -1.95 -1.8 2.375
      vertex 0.00299931 -1.8 5.374
      vertex -1.95 -1.8 5.374
    endloop
  endfacet
  facet normal 0 -1 0
    outer loop
      vertex -1.95 -1.8 2.375
      vertex 0.00299931 -1.8 0.175
      vertex 0.00299931 -1.8 5.374
    endloop
  endfacet
  facet normal 0 -1 0
    outer loop
      vertex 0.00299931 -1.8 0.175
      vertex -1.95 -1.8 2.375
      vertex -7.799 -1.8 0.175
    endloop
  endfacet
  facet normal 0 0 1
    outer loop
      vertex 5.9 2.2925 4.125
      vertex 5.51269 2.13475 4.125
      vertex 5.9 1.6575 4.125
    endloop
  endfacet
  facet normal 0 0 1
    outer loop
      vertex 5.9 2.2925 4.125
      vertex 5.4 2.13475 4.125
      vertex 5.51269 2.13475 4.125
    endloop
  endfacet
  facet normal 0 0 1
    outer loop
      vertex 5.4 2.13475 4.125
      vertex 0.00299931 2.2925 4.125
      vertex 5.4 1.81625 4.125
    endloop
  endfacet
  facet normal -0 0 1
    outer loop
      vertex 0.00299931 2.2925 4.125
      vertex 5.4 2.13475 4.125
      vertex 5.9 2.2925 4.125
    endloop
  endfacet
  facet normal -0 0 1
    outer loop
      vertex 5.51269 1.81625 4.125
      vertex 5.9 1.6575 4.125
      vertex 5.51269 2.13475 4.125
    endloop
  endfacet
  facet normal -0 0 1
    outer loop
      vertex 5.4 1.81625 4.125
      vertex 5.9 1.6575 4.125
      vertex 5.51269 1.81625 4.125
    endloop
  endfacet
  facet normal 0 0 1
    outer loop
      vertex 0.00299931 1.6575 4.125
      vertex 5.4 1.81625 4.125
      vertex 0.00299931 2.2925 4.125
    endloop
  endfacet
  facet normal 0 0 1
    outer loop
      vertex 5.4 1.81625 4.125
      vertex 0.00299931 1.6575 4.125
      vertex 5.9 1.6575 4.125
    endloop
  endfacet
  facet normal 0 -1 0
    outer loop
      vertex -2.5 2.2925 4.424
      vertex 0.00299931 2.2925 4.125
      vertex 5.9 2.2925 4.424
    endloop
  endfacet
  facet normal 0 -1 0
    outer loop
      vertex -2.5 2.2925 3.975
      vertex 0.00299931 2.2925 4.125
      vertex -2.5 2.2925 4.424
    endloop
  endfacet
  facet normal 0 -1 -0
    outer loop
      vertex 0.00299931 2.2925 4.125
      vertex -2.5 2.2925 3.975
      vertex 0.00299931 2.2925 3.975
    endloop
  endfacet
  facet normal 0 -1 -0
    outer loop
      vertex 5.9 2.2925 4.424
      vertex 0.00299931 2.2925 4.125
      vertex 5.9 2.2925 4.125
    endloop
  endfacet
  facet normal 0 1 0
    outer loop
      vertex 0.00299931 1.6575 4.125
      vertex 5.9 1.6575 4.424
      vertex 5.9 1.6575 4.125
    endloop
  endfacet
  facet normal 0 1 0
    outer loop
      vertex 5.9 1.6575 4.424
      vertex 0.00299931 1.6575 4.125
      vertex -2.5 1.6575 4.424
    endloop
  endfacet
  facet normal 0 1 0
    outer loop
      vertex -2.5 1.6575 3.975
      vertex 0.00299931 1.6575 4.125
      vertex 0.00299931 1.6575 3.975
    endloop
  endfacet
  facet normal 0 1 0
    outer loop
      vertex 0.00299931 1.6575 4.125
      vertex -2.5 1.6575 3.975
      vertex -2.5 1.6575 4.424
    endloop
  endfacet
  facet normal 0 -1 0
    outer loop
      vertex 5.4 2.13475 4.125
      vertex 5.60229 2.13475 4.08322
      vertex 5.51269 2.13475 4.125
    endloop
  endfacet
  facet normal 0 -1 0
    outer loop
      vertex 5.19975 2.13475 3.21996
      vertex 5.4 2.13475 4.125
      vertex 5.01758 2.13475 3.3049
    endloop
  endfacet
  facet normal 0 -1 -0
    outer loop
      vertex 5.4 2.13475 4.125
      vertex 5.19975 2.13475 3.21996
      vertex 5.60229 2.13475 4.08322
    endloop
  endfacet
  facet normal 0 1 0
    outer loop
      vertex 5.60229 1.81625 4.08322
      vertex 5.4 1.81625 4.125
      vertex 5.51269 1.81625 4.125
    endloop
  endfacet
  facet normal 0 1 0
    outer loop
      vertex 5.19975 1.81625 3.21996
      vertex 5.4 1.81625 4.125
      vertex 5.60229 1.81625 4.08322
    endloop
  endfacet
  facet normal 0 1 0
    outer loop
      vertex 5.4 1.81625 4.125
      vertex 5.19975 1.81625 3.21996
      vertex 5.01758 1.81625 3.3049
    endloop
  endfacet
  facet normal -0.422609 0 -0.906312
    outer loop
      vertex 5.51269 1.81625 4.125
      vertex 5.60229 2.13475 4.08322
      vertex 5.60229 1.81625 4.08322
    endloop
  endfacet
  facet normal -0.422609 0 -0.906312
    outer loop
      vertex 5.60229 2.13475 4.08322
      vertex 5.51269 1.81625 4.125
      vertex 5.51269 2.13475 4.125
    endloop
  endfacet
  facet normal -0.90631 0 0.422614
    outer loop
      vertex 5.19975 1.81625 3.21996
      vertex 5.60229 2.13475 4.08322
      vertex 5.19975 2.13475 3.21996
    endloop
  endfacet
  facet normal -0.90631 0 0.422614
    outer loop
      vertex 5.60229 2.13475 4.08322
      vertex 5.19975 1.81625 3.21996
      vertex 5.60229 1.81625 4.08322
    endloop
  endfacet
  facet normal 0.906307 0 -0.422619
    outer loop
      vertex 5.4 1.81625 4.125
      vertex 5.01758 2.13475 3.3049
      vertex 5.4 2.13475 4.125
    endloop
  endfacet
  facet normal 0.906307 0 -0.422619
    outer loop
      vertex 5.01758 2.13475 3.3049
      vertex 5.4 1.81625 4.125
      vertex 5.01758 1.81625 3.3049
    endloop
  endfacet
  facet normal 0.422589 0 0.906322
    outer loop
      vertex 5.01758 2.13475 3.3049
      vertex 5.19975 1.81625 3.21996
      vertex 5.19975 2.13475 3.21996
    endloop
  endfacet
  facet normal 0.422589 0 0.906322
    outer loop
      vertex 5.19975 1.81625 3.21996
      vertex 5.01758 2.13475 3.3049
      vertex 5.01758 1.81625 3.3049
    endloop
  endfacet
  facet normal -1 0 0
    outer loop
      vertex 0.00299931 1.6575 3.975
      vertex 0.00299931 2.2925 4.125
      vertex 0.00299931 2.2925 3.975
    endloop
  endfacet
  facet normal -1 -0 0
    outer loop
      vertex 0.00299931 2.2925 4.125
      vertex 0.00299931 1.6575 3.975
      vertex 0.00299931 1.6575 4.125
    endloop
  endfacet
  facet normal -0 0 1
    outer loop
      vertex -2.5 2.2925 3.975
      vertex 0.00299931 1.6575 3.975
      vertex 0.00299931 2.2925 3.975
    endloop
  endfacet
  facet normal 0 0 1
    outer loop
      vertex 0.00299931 1.6575 3.975
      vertex -2.5 2.2925 3.975
      vertex -2.5 1.6575 3.975
    endloop
  endfacet
  facet normal 0 0 1
    outer loop
      vertex 5.9 3.5625 4.125
      vertex 5.51269 3.40475 4.125
      vertex 5.9 2.9275 4.125
    endloop
  endfacet
  facet normal 0 0 1
    outer loop
      vertex 5.9 3.5625 4.125
      vertex 5.4 3.40475 4.125
      vertex 5.51269 3.40475 4.125
    endloop
  endfacet
  facet normal 0 0 1
    outer loop
      vertex 5.4 3.40475 4.125
      vertex 0.00299931 3.5625 4.125
      vertex 5.4 3.08625 4.125
    endloop
  endfacet
  facet normal -0 0 1
    outer loop
      vertex 0.00299931 3.5625 4.125
      vertex 5.4 3.40475 4.125
      vertex 5.9 3.5625 4.125
    endloop
  endfacet
  facet normal -0 0 1
    outer loop
      vertex 5.51269 3.08625 4.125
      vertex 5.9 2.9275 4.125
      vertex 5.51269 3.40475 4.125
    endloop
  endfacet
  facet normal -0 0 1
    outer loop
      vertex 5.4 3.08625 4.125
      vertex 5.9 2.9275 4.125
      vertex 5.51269 3.08625 4.125
    endloop
  endfacet
  facet normal 0 0 1
    outer loop
      vertex 0.00299931 2.9275 4.125
      vertex 5.4 3.08625 4.125
      vertex 0.00299931 3.5625 4.125
    endloop
  endfacet
  facet normal 0 0 1
    outer loop
      vertex 5.4 3.08625 4.125
      vertex 0.00299931 2.9275 4.125
      vertex 5.9 2.9275 4.125
    endloop
  endfacet
  facet normal 0 -1 0
    outer loop
      vertex -2.5 3.5625 4.424
      vertex 0.00299931 3.5625 4.125
      vertex 5.9 3.5625 4.424
    endloop
  endfacet
  facet normal 0 -1 0
    outer loop
      vertex -2.5 3.5625 3.975
      vertex 0.00299931 3.5625 4.125
      vertex -2.5 3.5625 4.424
    endloop
  endfacet
  facet normal 0 -1 -0
    outer loop
      vertex 0.00299931 3.5625 4.125
      vertex -2.5 3.5625 3.975
      vertex 0.00299931 3.5625 3.975
    endloop
  endfacet
  facet normal 0 -1 -0
    outer loop
      vertex 5.9 3.5625 4.424
      vertex 0.00299931 3.5625 4.125
      vertex 5.9 3.5625 4.125
    endloop
  endfacet
  facet normal 0 1 0
    outer loop
      vertex 0.00299931 2.9275 4.125
      vertex 5.9 2.9275 4.424
      vertex 5.9 2.9275 4.125
    endloop
  endfacet
  facet normal 0 1 0
    outer loop
      vertex 5.9 2.9275 4.424
      vertex 0.00299931 2.9275 4.125
      vertex -2.5 2.9275 4.424
    endloop
  endfacet
  facet normal 0 1 0
    outer loop
      vertex -2.5 2.9275 3.975
      vertex 0.00299931 2.9275 4.125
      vertex 0.00299931 2.9275 3.975
    endloop
  endfacet
  facet normal 0 1 0
    outer loop
      vertex 0.00299931 2.9275 4.125
      vertex -2.5 2.9275 3.975
      vertex -2.5 2.9275 4.424
    endloop
  endfacet
  facet normal 0 -1 0
    outer loop
      vertex 5.4 3.40475 4.125
      vertex 5.60229 3.40475 4.08322
      vertex 5.51269 3.40475 4.125
    endloop
  endfacet
  facet normal 0 -1 0
    outer loop
      vertex 5.19975 3.40475 3.21996
      vertex 5.4 3.40475 4.125
      vertex 5.01758 3.40475 3.3049
    endloop
  endfacet
  facet normal 0 -1 -0
    outer loop
      vertex 5.4 3.40475 4.125
      vertex 5.19975 3.40475 3.21996
      vertex 5.60229 3.40475 4.08322
    endloop
  endfacet
  facet normal 0 1 0
    outer loop
      vertex 5.60229 3.08625 4.08322
      vertex 5.4 3.08625 4.125
      vertex 5.51269 3.08625 4.125
    endloop
  endfacet
  facet normal 0 1 0
    outer loop
      vertex 5.19975 3.08625 3.21996
      vertex 5.4 3.08625 4.125
      vertex 5.60229 3.08625 4.08322
    endloop
  endfacet
  facet normal 0 1 0
    outer loop
      vertex 5.4 3.08625 4.125
      vertex 5.19975 3.08625 3.21996
      vertex 5.01758 3.08625 3.3049
    endloop
  endfacet
  facet normal -0.422609 0 -0.906312
    outer loop
      vertex 5.51269 3.08625 4.125
      vertex 5.60229 3.40475 4.08322
      vertex 5.60229 3.08625 4.08322
    endloop
  endfacet
  facet normal -0.422609 0 -0.906312
    outer loop
      vertex 5.60229 3.40475 4.08322
      vertex 5.51269 3.08625 4.125
      vertex 5.51269 3.40475 4.125
    endloop
  endfacet
  facet normal -0.90631 0 0.422614
    outer loop
      vertex 5.19975 3.08625 3.21996
      vertex 5.60229 3.40475 4.08322
      vertex 5.19975 3.40475 3.21996
    endloop
  endfacet
  facet normal -0.90631 0 0.422614
    outer loop
      vertex 5.60229 3.40475 4.08322
      vertex 5.19975 3.08625 3.21996
      vertex 5.60229 3.08625 4.08322
    endloop
  endfacet
  facet normal 0.906307 0 -0.422619
    outer loop
      vertex 5.4 3.08625 4.125
      vertex 5.01758 3.40475 3.3049
      vertex 5.4 3.40475 4.125
    endloop
  endfacet
  facet normal 0.906307 0 -0.422619
    outer loop
      vertex 5.01758 3.40475 3.3049
      vertex 5.4 3.08625 4.125
      vertex 5.01758 3.08625 3.3049
    endloop
  endfacet
  facet normal 0.422589 0 0.906322
    outer loop
      vertex 5.01758 3.40475 3.3049
      vertex 5.19975 3.08625 3.21996
      vertex 5.19975 3.40475 3.21996
    endloop
  endfacet
  facet normal 0.422589 0 0.906322
    outer loop
      vertex 5.19975 3.08625 3.21996
      vertex 5.01758 3.40475 3.3049
      vertex 5.01758 3.08625 3.3049
    endloop
  endfacet
  facet normal -1 0 0
    outer loop
      vertex 0.00299931 2.9275 3.975
      vertex 0.00299931 3.5625 4.125
      vertex 0.00299931 3.5625 3.975
    endloop
  endfacet
  facet normal -1 -0 0
    outer loop
      vertex 0.00299931 3.5625 4.125
      vertex 0.00299931 2.9275 3.975
      vertex 0.00299931 2.9275 4.125
    endloop
  endfacet
  facet normal -0 0 1
    outer loop
      vertex -2.5 3.5625 3.975
      vertex 0.00299931 2.9275 3.975
      vertex 0.00299931 3.5625 3.975
    endloop
  endfacet
  facet normal 0 0 1
    outer loop
      vertex 0.00299931 2.9275 3.975
      vertex -2.5 3.5625 3.975
      vertex -2.5 2.9275 3.975
    endloop
  endfacet
  facet normal 0 0 1
    outer loop
      vertex 5.9 4.8325 4.125
      vertex 5.51269 4.67475 4.125
      vertex 5.9 4.1975 4.125
    endloop
  endfacet
  facet normal 0 0 1
    outer loop
      vertex 5.9 4.8325 4.125
      vertex 5.4 4.67475 4.125
      vertex 5.51269 4.67475 4.125
    endloop
  endfacet
  facet normal 0 0 1
    outer loop
      vertex 5.4 4.67475 4.125
      vertex 0.00299931 4.8325 4.125
      vertex 5.4 4.35625 4.125
    endloop
  endfacet
  facet normal -0 0 1
    outer loop
      vertex 0.00299931 4.8325 4.125
      vertex 5.4 4.67475 4.125
      vertex 5.9 4.8325 4.125
    endloop
  endfacet
  facet normal -0 0 1
    outer loop
      vertex 5.51269 4.35625 4.125
      vertex 5.9 4.1975 4.125
      vertex 5.51269 4.67475 4.125
    endloop
  endfacet
  facet normal -0 0 1
    outer loop
      vertex 5.4 4.35625 4.125
      vertex 5.9 4.1975 4.125
      vertex 5.51269 4.35625 4.125
    endloop
  endfacet
  facet normal 0 0 1
    outer loop
      vertex 0.00299931 4.1975 4.125
      vertex 5.4 4.35625 4.125
      vertex 0.00299931 4.8325 4.125
    endloop
  endfacet
  facet normal 0 0 1
    outer loop
      vertex 5.4 4.35625 4.125
      vertex 0.00299931 4.1975 4.125
      vertex 5.9 4.1975 4.125
    endloop
  endfacet
  facet normal 0 -1 0
    outer loop
      vertex -2.5 4.8325 4.424
      vertex 0.00299931 4.8325 4.125
      vertex 5.9 4.8325 4.424
    endloop
  endfacet
  facet normal 0 -1 0
    outer loop
      vertex -2.5 4.8325 3.975
      vertex 0.00299931 4.8325 4.125
      vertex -2.5 4.8325 4.424
    endloop
  endfacet
  facet normal 0 -1 -0
    outer loop
      vertex 0.00299931 4.8325 4.125
      vertex -2.5 4.8325 3.975
      vertex 0.00299931 4.8325 3.975
    endloop
  endfacet
  facet normal 0 -1 -0
    outer loop
      vertex 5.9 4.8325 4.424
      vertex 0.00299931 4.8325 4.125
      vertex 5.9 4.8325 4.125
    endloop
  endfacet
  facet normal 0 1 0
    outer loop
      vertex 0.00299931 4.1975 4.125
      vertex 5.9 4.1975 4.424
      vertex 5.9 4.1975 4.125
    endloop
  endfacet
  facet normal 0 1 0
    outer loop
      vertex 5.9 4.1975 4.424
      vertex 0.00299931 4.1975 4.125
      vertex -2.5 4.1975 4.424
    endloop
  endfacet
  facet normal 0 1 0
    outer loop
      vertex -2.5 4.1975 3.975
      vertex 0.00299931 4.1975 4.125
      vertex 0.00299931 4.1975 3.975
    endloop
  endfacet
  facet normal 0 1 0
    outer loop
      vertex 0.00299931 4.1975 4.125
      vertex -2.5 4.1975 3.975
      vertex -2.5 4.1975 4.424
    endloop
  endfacet
  facet normal 0 -1 0
    outer loop
      vertex 5.4 4.67475 4.125
      vertex 5.60229 4.67475 4.08322
      vertex 5.51269 4.67475 4.125
    endloop
  endfacet
  facet normal 0 -1 0
    outer loop
      vertex 5.19975 4.67475 3.21996
      vertex 5.4 4.67475 4.125
      vertex 5.01758 4.67475 3.3049
    endloop
  endfacet
  facet normal 0 -1 -0
    outer loop
      vertex 5.4 4.67475 4.125
      vertex 5.19975 4.67475 3.21996
      vertex 5.60229 4.67475 4.08322
    endloop
  endfacet
  facet normal 0 1 0
    outer loop
      vertex 5.60229 4.35625 4.08322
      vertex 5.4 4.35625 4.125
      vertex 5.51269 4.35625 4.125
    endloop
  endfacet
  facet normal 0 1 0
    outer loop
      vertex 5.19975 4.35625 3.21996
      vertex 5.4 4.35625 4.125
      vertex 5.60229 4.35625 4.08322
    endloop
  endfacet
  facet normal 0 1 0
    outer loop
      vertex 5.4 4.35625 4.125
      vertex 5.19975 4.35625 3.21996
      vertex 5.01758 4.35625 3.3049
    endloop
  endfacet
  facet normal -0.422609 0 -0.906312
    outer loop
      vertex 5.51269 4.35625 4.125
      vertex 5.60229 4.67475 4.08322
      vertex 5.60229 4.35625 4.08322
    endloop
  endfacet
  facet normal -0.422609 0 -0.906312
    outer loop
      vertex 5.60229 4.67475 4.08322
      vertex 5.51269 4.35625 4.125
      vertex 5.51269 4.67475 4.125
    endloop
  endfacet
  facet normal -0.90631 0 0.422614
    outer loop
      vertex 5.19975 4.35625 3.21996
      vertex 5.60229 4.67475 4.08322
      vertex 5.19975 4.67475 3.21996
    endloop
  endfacet
  facet normal -0.90631 0 0.422614
    outer loop
      vertex 5.60229 4.67475 4.08322
      vertex 5.19975 4.35625 3.21996
      vertex 5.60229 4.35625 4.08322
    endloop
  endfacet
  facet normal 0.906307 0 -0.422619
    outer loop
      vertex 5.4 4.35625 4.125
      vertex 5.01758 4.67475 3.3049
      vertex 5.4 4.67475 4.125
    endloop
  endfacet
  facet normal 0.906307 0 -0.422619
    outer loop
      vertex 5.01758 4.67475 3.3049
      vertex 5.4 4.35625 4.125
      vertex 5.01758 4.35625 3.3049
    endloop
  endfacet
  facet normal 0.422589 0 0.906322
    outer loop
      vertex 5.01758 4.67475 3.3049
      vertex 5.19975 4.35625 3.21996
      vertex 5.19975 4.67475 3.21996
    endloop
  endfacet
  facet normal 0.422589 0 0.906322
    outer loop
      vertex 5.19975 4.35625 3.21996
      vertex 5.01758 4.67475 3.3049
      vertex 5.01758 4.35625 3.3049
    endloop
  endfacet
  facet normal -1 0 0
    outer loop
      vertex 0.00299931 4.1975 3.975
      vertex 0.00299931 4.8325 4.125
      vertex 0.00299931 4.8325 3.975
    endloop
  endfacet
  facet normal -1 -0 0
    outer loop
      vertex 0.00299931 4.8325 4.125
      vertex 0.00299931 4.1975 3.975
      vertex 0.00299931 4.1975 4.125
    endloop
  endfacet
  facet normal -0 0 1
    outer loop
      vertex -2.5 4.8325 3.975
      vertex 0.00299931 4.1975 3.975
      vertex 0.00299931 4.8325 3.975
    endloop
  endfacet
  facet normal 0 0 1
    outer loop
      vertex 0.00299931 4.1975 3.975
      vertex -2.5 4.8325 3.975
      vertex -2.5 4.1975 3.975
    endloop
  endfacet
  facet normal 0 0 1
    outer loop
      vertex 5.9 6.1025 4.125
      vertex 5.51269 5.94475 4.125
      vertex 5.9 5.4675 4.125
    endloop
  endfacet
  facet normal 0 0 1
    outer loop
      vertex 5.9 6.1025 4.125
      vertex 5.4 5.94475 4.125
      vertex 5.51269 5.94475 4.125
    endloop
  endfacet
  facet normal 0 0 1
    outer loop
      vertex 5.4 5.94475 4.125
      vertex 0.00299931 6.1025 4.125
      vertex 5.4 5.62625 4.125
    endloop
  endfacet
  facet normal -0 0 1
    outer loop
      vertex 0.00299931 6.1025 4.125
      vertex 5.4 5.94475 4.125
      vertex 5.9 6.1025 4.125
    endloop
  endfacet
  facet normal -0 0 1
    outer loop
      vertex 5.51269 5.62625 4.125
      vertex 5.9 5.4675 4.125
      vertex 5.51269 5.94475 4.125
    endloop
  endfacet
  facet normal -0 0 1
    outer loop
      vertex 5.4 5.62625 4.125
      vertex 5.9 5.4675 4.125
      vertex 5.51269 5.62625 4.125
    endloop
  endfacet
  facet normal 0 0 1
    outer loop
      vertex 0.00299931 5.4675 4.125
      vertex 5.4 5.62625 4.125
      vertex 0.00299931 6.1025 4.125
    endloop
  endfacet
  facet normal 0 0 1
    outer loop
      vertex 5.4 5.62625 4.125
      vertex 0.00299931 5.4675 4.125
      vertex 5.9 5.4675 4.125
    endloop
  endfacet
  facet normal 0 -1 0
    outer loop
      vertex -2.5 6.1025 4.424
      vertex 0.00299931 6.1025 4.125
      vertex 5.9 6.1025 4.424
    endloop
  endfacet
  facet normal 0 -1 0
    outer loop
      vertex -2.5 6.1025 3.975
      vertex 0.00299931 6.1025 4.125
      vertex -2.5 6.1025 4.424
    endloop
  endfacet
  facet normal 0 -1 -0
    outer loop
      vertex 0.00299931 6.1025 4.125
      vertex -2.5 6.1025 3.975
      vertex 0.00299931 6.1025 3.975
    endloop
  endfacet
  facet normal 0 -1 -0
    outer loop
      vertex 5.9 6.1025 4.424
      vertex 0.00299931 6.1025 4.125
      vertex 5.9 6.1025 4.125
    endloop
  endfacet
  facet normal 0 1 0
    outer loop
      vertex 0.00299931 5.4675 4.125
      vertex 5.9 5.4675 4.424
      vertex 5.9 5.4675 4.125
    endloop
  endfacet
  facet normal 0 1 0
    outer loop
      vertex 5.9 5.4675 4.424
      vertex 0.00299931 5.4675 4.125
      vertex -2.5 5.4675 4.424
    endloop
  endfacet
  facet normal 0 1 0
    outer loop
      vertex -2.5 5.4675 3.975
      vertex 0.00299931 5.4675 4.125
      vertex 0.00299931 5.4675 3.975
    endloop
  endfacet
  facet normal 0 1 0
    outer loop
      vertex 0.00299931 5.4675 4.125
      vertex -2.5 5.4675 3.975
      vertex -2.5 5.4675 4.424
    endloop
  endfacet
  facet normal 0 -1 0
    outer loop
      vertex 5.4 5.94475 4.125
      vertex 5.60229 5.94475 4.08322
      vertex 5.51269 5.94475 4.125
    endloop
  endfacet
  facet normal 0 -1 0
    outer loop
      vertex 5.19975 5.94475 3.21996
      vertex 5.4 5.94475 4.125
      vertex 5.01758 5.94475 3.3049
    endloop
  endfacet
  facet normal 0 -1 -0
    outer loop
      vertex 5.4 5.94475 4.125
      vertex 5.19975 5.94475 3.21996
      vertex 5.60229 5.94475 4.08322
    endloop
  endfacet
  facet normal 0 1 0
    outer loop
      vertex 5.60229 5.62625 4.08322
      vertex 5.4 5.62625 4.125
      vertex 5.51269 5.62625 4.125
    endloop
  endfacet
  facet normal 0 1 0
    outer loop
      vertex 5.19975 5.62625 3.21996
      vertex 5.4 5.62625 4.125
      vertex 5.60229 5.62625 4.08322
    endloop
  endfacet
  facet normal 0 1 0
    outer loop
      vertex 5.4 5.62625 4.125
      vertex 5.19975 5.62625 3.21996
      vertex 5.01758 5.62625 3.3049
    endloop
  endfacet
  facet normal -0.422609 0 -0.906312
    outer loop
      vertex 5.51269 5.62625 4.125
      vertex 5.60229 5.94475 4.08322
      vertex 5.60229 5.62625 4.08322
    endloop
  endfacet
  facet normal -0.422609 0 -0.906312
    outer loop
      vertex 5.60229 5.94475 4.08322
      vertex 5.51269 5.62625 4.125
      vertex 5.51269 5.94475 4.125
    endloop
  endfacet
  facet normal -0.90631 0 0.422614
    outer loop
      vertex 5.19975 5.62625 3.21996
      vertex 5.60229 5.94475 4.08322
      vertex 5.19975 5.94475 3.21996
    endloop
  endfacet
  facet normal -0.90631 0 0.422614
    outer loop
      vertex 5.60229 5.94475 4.08322
      vertex 5.19975 5.62625 3.21996
      vertex 5.60229 5.62625 4.08322
    endloop
  endfacet
  facet normal 0.906307 0 -0.422619
    outer loop
      vertex 5.4 5.62625 4.125
      vertex 5.01758 5.94475 3.3049
      vertex 5.4 5.94475 4.125
    endloop
  endfacet
  facet normal 0.906307 0 -0.422619
    outer loop
      vertex 5.01758 5.94475 3.3049
      vertex 5.4 5.62625 4.125
      vertex 5.01758 5.62625 3.3049
    endloop
  endfacet
  facet normal 0.422589 0 0.906322
    outer loop
      vertex 5.01758 5.94475 3.3049
      vertex 5.19975 5.62625 3.21996
      vertex 5.19975 5.94475 3.21996
    endloop
  endfacet
  facet normal 0.422589 0 0.906322
    outer loop
      vertex 5.19975 5.62625 3.21996
      vertex 5.01758 5.94475 3.3049
      vertex 5.01758 5.62625 3.3049
    endloop
  endfacet
  facet normal -1 0 0
    outer loop
      vertex 0.00299931 5.4675 3.975
      vertex 0.00299931 6.1025 4.125
      vertex 0.00299931 6.1025 3.975
    endloop
  endfacet
  facet normal -1 -0 0
    outer loop
      vertex 0.00299931 6.1025 4.125
      vertex 0.00299931 5.4675 3.975
      vertex 0.00299931 5.4675 4.125
    endloop
  endfacet
  facet normal -0 0 1
    outer loop
      vertex -2.5 6.1025 3.975
      vertex 0.00299931 5.4675 3.975
      vertex 0.00299931 6.1025 3.975
    endloop
  endfacet
  facet normal 0 0 1
    outer loop
      vertex 0.00299931 5.4675 3.975
      vertex -2.5 6.1025 3.975
      vertex -2.5 5.4675 3.975
    endloop
  endfacet
  facet normal 0 0 1
    outer loop
      vertex 5.9 7.3725 4.125
      vertex 5.51269 7.21475 4.125
      vertex 5.9 6.7375 4.125
    endloop
  endfacet
  facet normal 0 0 1
    outer loop
      vertex 5.9 7.3725 4.125
      vertex 5.4 7.21475 4.125
      vertex 5.51269 7.21475 4.125
    endloop
  endfacet
  facet normal 0 0 1
    outer loop
      vertex 5.4 7.21475 4.125
      vertex 0.00299931 7.3725 4.125
      vertex 5.4 6.89625 4.125
    endloop
  endfacet
  facet normal -0 0 1
    outer loop
      vertex 0.00299931 7.3725 4.125
      vertex 5.4 7.21475 4.125
      vertex 5.9 7.3725 4.125
    endloop
  endfacet
  facet normal -0 0 1
    outer loop
      vertex 5.51269 6.89625 4.125
      vertex 5.9 6.7375 4.125
      vertex 5.51269 7.21475 4.125
    endloop
  endfacet
  facet normal -0 0 1
    outer loop
      vertex 5.4 6.89625 4.125
      vertex 5.9 6.7375 4.125
      vertex 5.51269 6.89625 4.125
    endloop
  endfacet
  facet normal 0 0 1
    outer loop
      vertex 0.00299931 6.7375 4.125
      vertex 5.4 6.89625 4.125
      vertex 0.00299931 7.3725 4.125
    endloop
  endfacet
  facet normal 0 0 1
    outer loop
      vertex 5.4 6.89625 4.125
      vertex 0.00299931 6.7375 4.125
      vertex 5.9 6.7375 4.125
    endloop
  endfacet
  facet normal 0 -1 0
    outer loop
      vertex -2.5 7.3725 4.424
      vertex 0.00299931 7.3725 4.125
      vertex 5.9 7.3725 4.424
    endloop
  endfacet
  facet normal 0 -1 0
    outer loop
      vertex -2.5 7.3725 3.975
      vertex 0.00299931 7.3725 4.125
      vertex -2.5 7.3725 4.424
    endloop
  endfacet
  facet normal 0 -1 -0
    outer loop
      vertex 0.00299931 7.3725 4.125
      vertex -2.5 7.3725 3.975
      vertex 0.00299931 7.3725 3.975
    endloop
  endfacet
  facet normal 0 -1 -0
    outer loop
      vertex 5.9 7.3725 4.424
      vertex 0.00299931 7.3725 4.125
      vertex 5.9 7.3725 4.125
    endloop
  endfacet
  facet normal 0 1 0
    outer loop
      vertex 0.00299931 6.7375 4.125
      vertex 5.9 6.7375 4.424
      vertex 5.9 6.7375 4.125
    endloop
  endfacet
  facet normal 0 1 0
    outer loop
      vertex 5.9 6.7375 4.424
      vertex 0.00299931 6.7375 4.125
      vertex -2.5 6.7375 4.424
    endloop
  endfacet
  facet normal 0 1 0
    outer loop
      vertex -2.5 6.7375 3.975
      vertex 0.00299931 6.7375 4.125
      vertex 0.00299931 6.7375 3.975
    endloop
  endfacet
  facet normal 0 1 0
    outer loop
      vertex 0.00299931 6.7375 4.125
      vertex -2.5 6.7375 3.975
      vertex -2.5 6.7375 4.424
    endloop
  endfacet
  facet normal 0 -1 0
    outer loop
      vertex 5.4 7.21475 4.125
      vertex 5.60229 7.21475 4.08322
      vertex 5.51269 7.21475 4.125
    endloop
  endfacet
  facet normal 0 -1 0
    outer loop
      vertex 5.19975 7.21475 3.21996
      vertex 5.4 7.21475 4.125
      vertex 5.01758 7.21475 3.3049
    endloop
  endfacet
  facet normal 0 -1 -0
    outer loop
      vertex 5.4 7.21475 4.125
      vertex 5.19975 7.21475 3.21996
      vertex 5.60229 7.21475 4.08322
    endloop
  endfacet
  facet normal 0 1 0
    outer loop
      vertex 5.60229 6.89625 4.08322
      vertex 5.4 6.89625 4.125
      vertex 5.51269 6.89625 4.125
    endloop
  endfacet
  facet normal 0 1 0
    outer loop
      vertex 5.19975 6.89625 3.21996
      vertex 5.4 6.89625 4.125
      vertex 5.60229 6.89625 4.08322
    endloop
  endfacet
  facet normal 0 1 0
    outer loop
      vertex 5.4 6.89625 4.125
      vertex 5.19975 6.89625 3.21996
      vertex 5.01758 6.89625 3.3049
    endloop
  endfacet
  facet normal -0.422609 0 -0.906312
    outer loop
      vertex 5.51269 6.89625 4.125
      vertex 5.60229 7.21475 4.08322
      vertex 5.60229 6.89625 4.08322
    endloop
  endfacet
  facet normal -0.422609 0 -0.906312
    outer loop
      vertex 5.60229 7.21475 4.08322
      vertex 5.51269 6.89625 4.125
      vertex 5.51269 7.21475 4.125
    endloop
  endfacet
  facet normal -0.90631 0 0.422614
    outer loop
      vertex 5.19975 6.89625 3.21996
      vertex 5.60229 7.21475 4.08322
      vertex 5.19975 7.21475 3.21996
    endloop
  endfacet
  facet normal -0.90631 0 0.422614
    outer loop
      vertex 5.60229 7.21475 4.08322
      vertex 5.19975 6.89625 3.21996
      vertex 5.60229 6.89625 4.08322
    endloop
  endfacet
  facet normal 0.906307 0 -0.422619
    outer loop
      vertex 5.4 6.89625 4.125
      vertex 5.01758 7.21475 3.3049
      vertex 5.4 7.21475 4.125
    endloop
  endfacet
  facet normal 0.906307 0 -0.422619
    outer loop
      vertex 5.01758 7.21475 3.3049
      vertex 5.4 6.89625 4.125
      vertex 5.01758 6.89625 3.3049
    endloop
  endfacet
  facet normal 0.422589 0 0.906322
    outer loop
      vertex 5.01758 7.21475 3.3049
      vertex 5.19975 6.89625 3.21996
      vertex 5.19975 7.21475 3.21996
    endloop
  endfacet
  facet normal 0.422589 0 0.906322
    outer loop
      vertex 5.19975 6.89625 3.21996
      vertex 5.01758 7.21475 3.3049
      vertex 5.01758 6.89625 3.3049
    endloop
  endfacet
  facet normal -1 0 0
    outer loop
      vertex 0.00299931 6.7375 3.975
      vertex 0.00299931 7.3725 4.125
      vertex 0.00299931 7.3725 3.975
    endloop
  endfacet
  facet normal -1 -0 0
    outer loop
      vertex 0.00299931 7.3725 4.125
      vertex 0.00299931 6.7375 3.975
      vertex 0.00299931 6.7375 4.125
    endloop
  endfacet
  facet normal -0 0 1
    outer loop
      vertex -2.5 7.3725 3.975
      vertex 0.00299931 6.7375 3.975
      vertex 0.00299931 7.3725 3.975
    endloop
  endfacet
  facet normal 0 0 1
    outer loop
      vertex 0.00299931 6.7375 3.975
      vertex -2.5 7.3725 3.975
      vertex -2.5 6.7375 3.975
    endloop
  endfacet
  facet normal 0 0 1
    outer loop
      vertex 5.9 8.6425 4.125
      vertex 5.51269 8.48475 4.125
      vertex 5.9 8.0075 4.125
    endloop
  endfacet
  facet normal 0 0 1
    outer loop
      vertex 5.9 8.6425 4.125
      vertex 5.4 8.48475 4.125
      vertex 5.51269 8.48475 4.125
    endloop
  endfacet
  facet normal 0 0 1
    outer loop
      vertex 5.4 8.48475 4.125
      vertex 0.00299931 8.6425 4.125
      vertex 5.4 8.16625 4.125
    endloop
  endfacet
  facet normal -0 0 1
    outer loop
      vertex 0.00299931 8.6425 4.125
      vertex 5.4 8.48475 4.125
      vertex 5.9 8.6425 4.125
    endloop
  endfacet
  facet normal -0 0 1
    outer loop
      vertex 5.51269 8.16625 4.125
      vertex 5.9 8.0075 4.125
      vertex 5.51269 8.48475 4.125
    endloop
  endfacet
  facet normal -0 0 1
    outer loop
      vertex 5.4 8.16625 4.125
      vertex 5.9 8.0075 4.125
      vertex 5.51269 8.16625 4.125
    endloop
  endfacet
  facet normal 0 0 1
    outer loop
      vertex 0.00299931 8.0075 4.125
      vertex 5.4 8.16625 4.125
      vertex 0.00299931 8.6425 4.125
    endloop
  endfacet
  facet normal 0 0 1
    outer loop
      vertex 5.4 8.16625 4.125
      vertex 0.00299931 8.0075 4.125
      vertex 5.9 8.0075 4.125
    endloop
  endfacet
  facet normal 0 -1 0
    outer loop
      vertex -2.5 8.6425 4.424
      vertex 0.00299931 8.6425 4.125
      vertex 5.9 8.6425 4.424
    endloop
  endfacet
  facet normal 0 -1 0
    outer loop
      vertex -2.5 8.6425 3.975
      vertex 0.00299931 8.6425 4.125
      vertex -2.5 8.6425 4.424
    endloop
  endfacet
  facet normal 0 -1 -0
    outer loop
      vertex 0.00299931 8.6425 4.125
      vertex -2.5 8.6425 3.975
      vertex 0.00299931 8.6425 3.975
    endloop
  endfacet
  facet normal 0 -1 -0
    outer loop
      vertex 5.9 8.6425 4.424
      vertex 0.00299931 8.6425 4.125
      vertex 5.9 8.6425 4.125
    endloop
  endfacet
  facet normal 0 1 0
    outer loop
      vertex 0.00299931 8.0075 4.125
      vertex 5.9 8.0075 4.424
      vertex 5.9 8.0075 4.125
    endloop
  endfacet
  facet normal 0 1 0
    outer loop
      vertex 5.9 8.0075 4.424
      vertex 0.00299931 8.0075 4.125
      vertex -2.5 8.0075 4.424
    endloop
  endfacet
  facet normal 0 1 0
    outer loop
      vertex -2.5 8.0075 3.975
      vertex 0.00299931 8.0075 4.125
      vertex 0.00299931 8.0075 3.975
    endloop
  endfacet
  facet normal 0 1 0
    outer loop
      vertex 0.00299931 8.0075 4.125
      vertex -2.5 8.0075 3.975
      vertex -2.5 8.0075 4.424
    endloop
  endfacet
  facet normal 0 -1 0
    outer loop
      vertex 5.4 8.48475 4.125
      vertex 5.60229 8.48475 4.08322
      vertex 5.51269 8.48475 4.125
    endloop
  endfacet
  facet normal 0 -1 0
    outer loop
      vertex 5.19975 8.48475 3.21996
      vertex 5.4 8.48475 4.125
      vertex 5.01758 8.48475 3.3049
    endloop
  endfacet
  facet normal 0 -1 -0
    outer loop
      vertex 5.4 8.48475 4.125
      vertex 5.19975 8.48475 3.21996
      vertex 5.60229 8.48475 4.08322
    endloop
  endfacet
  facet normal 0 1 0
    outer loop
      vertex 5.60229 8.16625 4.08322
      vertex 5.4 8.16625 4.125
      vertex 5.51269 8.16625 4.125
    endloop
  endfacet
  facet normal 0 1 0
    outer loop
      vertex 5.19975 8.16625 3.21996
      vertex 5.4 8.16625 4.125
      vertex 5.60229 8.16625 4.08322
    endloop
  endfacet
  facet normal 0 1 0
    outer loop
      vertex 5.4 8.16625 4.125
      vertex 5.19975 8.16625 3.21996
      vertex 5.01758 8.16625 3.3049
    endloop
  endfacet
  facet normal -0.422609 0 -0.906312
    outer loop
      vertex 5.51269 8.16625 4.125
      vertex 5.60229 8.48475 4.08322
      vertex 5.60229 8.16625 4.08322
    endloop
  endfacet
  facet normal -0.422609 0 -0.906312
    outer loop
      vertex 5.60229 8.48475 4.08322
      vertex 5.51269 8.16625 4.125
      vertex 5.51269 8.48475 4.125
    endloop
  endfacet
  facet normal -0.90631 0 0.422614
    outer loop
      vertex 5.19975 8.16625 3.21996
      vertex 5.60229 8.48475 4.08322
      vertex 5.19975 8.48475 3.21996
    endloop
  endfacet
  facet normal -0.90631 0 0.422614
    outer loop
      vertex 5.60229 8.48475 4.08322
      vertex 5.19975 8.16625 3.21996
      vertex 5.60229 8.16625 4.08322
    endloop
  endfacet
  facet normal 0.906307 0 -0.422619
    outer loop
      vertex 5.4 8.16625 4.125
      vertex 5.01758 8.48475 3.3049
      vertex 5.4 8.48475 4.125
    endloop
  endfacet
  facet normal 0.906307 0 -0.422619
    outer loop
      vertex 5.01758 8.48475 3.3049
      vertex 5.4 8.16625 4.125
      vertex 5.01758 8.16625 3.3049
    endloop
  endfacet
  facet normal 0.422589 0 0.906322
    outer loop
      vertex 5.01758 8.48475 3.3049
      vertex 5.19975 8.16625 3.21996
      vertex 5.19975 8.48475 3.21996
    endloop
  endfacet
  facet normal 0.422589 0 0.906322
    outer loop
      vertex 5.19975 8.16625 3.21996
      vertex 5.01758 8.48475 3.3049
      vertex 5.01758 8.16625 3.3049
    endloop
  endfacet
  facet normal -1 0 0
    outer loop
      vertex 0.00299931 8.0075 3.975
      vertex 0.00299931 8.6425 4.125
      vertex 0.00299931 8.6425 3.975
    endloop
  endfacet
  facet normal -1 -0 0
    outer loop
      vertex 0.00299931 8.6425 4.125
      vertex 0.00299931 8.0075 3.975
      vertex 0.00299931 8.0075 4.125
    endloop
  endfacet
  facet normal -0 0 1
    outer loop
      vertex -2.5 8.6425 3.975
      vertex 0.00299931 8.0075 3.975
      vertex 0.00299931 8.6425 3.975
    endloop
  endfacet
  facet normal 0 0 1
    outer loop
      vertex 0.00299931 8.0075 3.975
      vertex -2.5 8.6425 3.975
      vertex -2.5 8.0075 3.975
    endloop
  endfacet
  facet normal -1 0 0
    outer loop
      vertex 4.3 0 1.375
      vertex 4.3 0.200999 5.375
      vertex 4.3 0.200999 1.375
    endloop
  endfacet
  facet normal -1 -0 0
    outer loop
      vertex 4.3 0.200999 5.375
      vertex 4.3 0 1.375
      vertex 4.3 0 5.375
    endloop
  endfacet
  facet normal 1 -0 0
    outer loop
      vertex 3.5 0 5.375
      vertex 3.5 0.200999 1.375
      vertex 3.5 0.200999 5.375
    endloop
  endfacet
  facet normal 1 0 0
    outer loop
      vertex 3.5 0.200999 1.375
      vertex 3.5 0 5.375
      vertex 3.5 0 1.375
    endloop
  endfacet
  facet normal 0 -1 0
    outer loop
      vertex 3.5 0.200999 1.375
      vertex 4.3 0.200999 5.375
      vertex 3.5 0.200999 5.375
    endloop
  endfacet
  facet normal 0 -1 -0
    outer loop
      vertex 4.3 0.200999 5.375
      vertex 3.5 0.200999 1.375
      vertex 4.3 0.200999 1.375
    endloop
  endfacet
  facet normal -1 0 0
    outer loop
      vertex 4.3 10.099 1.375
      vertex 4.3 10.3 5.375
      vertex 4.3 10.3 1.375
    endloop
  endfacet
  facet normal -1 -0 0
    outer loop
      vertex 4.3 10.3 5.375
      vertex 4.3 10.099 1.375
      vertex 4.3 10.099 5.375
    endloop
  endfacet
  facet normal 1 -0 0
    outer loop
      vertex 3.5 10.099 5.375
      vertex 3.5 10.3 1.375
      vertex 3.5 10.3 5.375
    endloop
  endfacet
  facet normal 1 0 0
    outer loop
      vertex 3.5 10.3 1.375
      vertex 3.5 10.099 5.375
      vertex 3.5 10.099 1.375
    endloop
  endfacet
  facet normal 0 1 -0
    outer loop
      vertex 4.3 10.099 1.375
      vertex 3.5 10.099 5.375
      vertex 4.3 10.099 5.375
    endloop
  endfacet
  facet normal 0 1 0
    outer loop
      vertex 3.5 10.099 5.375
      vertex 4.3 10.099 1.375
      vertex 3.5 10.099 1.375
    endloop
  endfacet
  facet normal 0 0 1
    outer loop
      vertex 5.9 9.101 4.424
      vertex -2.5 8.96 4.424
      vertex 5.9 8.6425 4.424
    endloop
  endfacet
  facet normal -0 0 1
    outer loop
      vertex -2.501 9.101 4.424
      vertex -2.5 8.96 4.424
      vertex 5.9 9.101 4.424
    endloop
  endfacet
  facet normal 0 0 1
    outer loop
      vertex -2.5 8.96 4.424
      vertex -2.501 9.101 4.424
      vertex -2.501 8.96 4.424
    endloop
  endfacet
  facet normal 0 0 1
    outer loop
      vertex 5.9 8.6425 4.424
      vertex -2.5 8.96 4.424
      vertex -2.5 8.6425 4.424
    endloop
  endfacet
  facet normal 0 0 1
    outer loop
      vertex -2.5 1.34 4.424
      vertex 5.9 1.6575 4.424
      vertex -2.5 1.6575 4.424
    endloop
  endfacet
  facet normal 0 0 1
    outer loop
      vertex 5.9 1.6575 4.424
      vertex -2.5 1.34 4.424
      vertex 5.9 1.199 4.424
    endloop
  endfacet
  facet normal 0 0 1
    outer loop
      vertex -2.501 1.199 4.424
      vertex -2.5 1.34 4.424
      vertex -2.501 1.34 4.424
    endloop
  endfacet
  facet normal 0 0 1
    outer loop
      vertex -2.5 1.34 4.424
      vertex -2.501 1.199 4.424
      vertex 5.9 1.199 4.424
    endloop
  endfacet
  facet normal -0 0 1
    outer loop
      vertex -2.5 2.9275 4.424
      vertex 5.9 2.2925 4.424
      vertex 5.9 2.9275 4.424
    endloop
  endfacet
  facet normal 0 0 1
    outer loop
      vertex 5.9 2.2925 4.424
      vertex -2.5 2.9275 4.424
      vertex -2.5 2.2925 4.424
    endloop
  endfacet
  facet normal -0 0 1
    outer loop
      vertex -2.5 4.1975 4.424
      vertex 5.9 3.5625 4.424
      vertex 5.9 4.1975 4.424
    endloop
  endfacet
  facet normal 0 0 1
    outer loop
      vertex 5.9 3.5625 4.424
      vertex -2.5 4.1975 4.424
      vertex -2.5 3.5625 4.424
    endloop
  endfacet
  facet normal -0 0 1
    outer loop
      vertex -2.5 5.4675 4.424
      vertex 5.9 4.8325 4.424
      vertex 5.9 5.4675 4.424
    endloop
  endfacet
  facet normal 0 0 1
    outer loop
      vertex 5.9 4.8325 4.424
      vertex -2.5 5.4675 4.424
      vertex -2.5 4.8325 4.424
    endloop
  endfacet
  facet normal -0 0 1
    outer loop
      vertex -2.5 6.7375 4.424
      vertex 5.9 6.1025 4.424
      vertex 5.9 6.7375 4.424
    endloop
  endfacet
  facet normal 0 0 1
    outer loop
      vertex 5.9 6.1025 4.424
      vertex -2.5 6.7375 4.424
      vertex -2.5 6.1025 4.424
    endloop
  endfacet
  facet normal -0 0 1
    outer loop
      vertex -2.5 8.0075 4.424
      vertex 5.9 7.3725 4.424
      vertex 5.9 8.0075 4.424
    endloop
  endfacet
  facet normal 0 0 1
    outer loop
      vertex 5.9 7.3725 4.424
      vertex -2.5 8.0075 4.424
      vertex -2.5 7.3725 4.424
    endloop
  endfacet
  facet normal 0 -1 0
    outer loop
      vertex -2.501 9.101 5.374
      vertex -2.501 9.101 4.424
      vertex 0.00499916 9.101 5.374
    endloop
  endfacet
  facet normal 0 -1 0
    outer loop
      vertex 0.00499916 9.101 5.374
      vertex 5.9 9.101 5.375
      vertex 0.00499916 9.101 5.375
    endloop
  endfacet
  facet normal 0 -1 0
    outer loop
      vertex 5.9 9.101 4.424
      vertex 0.00499916 9.101 5.374
      vertex -2.501 9.101 4.424
    endloop
  endfacet
  facet normal 0 -1 0
    outer loop
      vertex 0.00499916 9.101 5.374
      vertex 5.9 9.101 4.424
      vertex 5.9 9.101 5.375
    endloop
  endfacet
  facet normal 0 1 0
    outer loop
      vertex 5.9 1.199 5.375
      vertex 0.00499916 1.199 5.374
      vertex 0.00499916 1.199 5.375
    endloop
  endfacet
  facet normal 0 1 -0
    outer loop
      vertex 5.9 1.199 4.424
      vertex 0.00499916 1.199 5.374
      vertex 5.9 1.199 5.375
    endloop
  endfacet
  facet normal 0 1 0
    outer loop
      vertex -2.501 1.199 4.424
      vertex 0.00499916 1.199 5.374
      vertex 5.9 1.199 4.424
    endloop
  endfacet
  facet normal 0 1 0
    outer loop
      vertex 0.00499916 1.199 5.374
      vertex -2.501 1.199 4.424
      vertex -2.501 1.199 5.374
    endloop
  endfacet
  facet normal -1 0 0
    outer loop
      vertex -2.5 8.96 2.9
      vertex -2.5 8.6425 3.975
      vertex -2.5 8.96 4.424
    endloop
  endfacet
  facet normal -1 0 0
    outer loop
      vertex -2.5 8.96 2.9
      vertex -2.5 8.0075 3.975
      vertex -2.5 8.6425 3.975
    endloop
  endfacet
  facet normal -1 0 0
    outer loop
      vertex -2.5 8.0075 3.975
      vertex -2.5 7.3725 3.975
      vertex -2.5 8.0075 4.424
    endloop
  endfacet
  facet normal -1 0 0
    outer loop
      vertex -2.5 8.96 2.9
      vertex -2.5 7.3725 3.975
      vertex -2.5 8.0075 3.975
    endloop
  endfacet
  facet normal -1 0 0
    outer loop
      vertex -2.5 8.96 2.9
      vertex -2.5 6.7375 3.975
      vertex -2.5 7.3725 3.975
    endloop
  endfacet
  facet normal -1 0 0
    outer loop
      vertex -2.5 6.7375 3.975
      vertex -2.5 6.1025 3.975
      vertex -2.5 6.7375 4.424
    endloop
  endfacet
  facet normal -1 0 0
    outer loop
      vertex -2.5 8.96 2.9
      vertex -2.5 6.1025 3.975
      vertex -2.5 6.7375 3.975
    endloop
  endfacet
  facet normal -1 0 0
    outer loop
      vertex -2.5 8.96 2.9
      vertex -2.5 5.4675 3.975
      vertex -2.5 6.1025 3.975
    endloop
  endfacet
  facet normal -1 0 0
    outer loop
      vertex -2.5 5.4675 3.975
      vertex -2.5 4.8325 3.975
      vertex -2.5 5.4675 4.424
    endloop
  endfacet
  facet normal -1 0 0
    outer loop
      vertex -2.5 8.96 2.9
      vertex -2.5 4.8325 3.975
      vertex -2.5 5.4675 3.975
    endloop
  endfacet
  facet normal -1 0 0
    outer loop
      vertex -2.5 1.34 2.9
      vertex -2.5 4.8325 3.975
      vertex -2.5 8.96 2.9
    endloop
  endfacet
  facet normal -1 0 0
    outer loop
      vertex -2.5 4.1975 3.975
      vertex -2.5 3.5625 3.975
      vertex -2.5 4.1975 4.424
    endloop
  endfacet
  facet normal -1 -0 0
    outer loop
      vertex -2.5 4.8325 3.975
      vertex -2.5 1.34 2.9
      vertex -2.5 4.1975 3.975
    endloop
  endfacet
  facet normal -1 -0 0
    outer loop
      vertex -2.5 4.1975 3.975
      vertex -2.5 1.34 2.9
      vertex -2.5 3.5625 3.975
    endloop
  endfacet
  facet normal -1 0 0
    outer loop
      vertex -2.5 2.9275 3.975
      vertex -2.5 2.2925 3.975
      vertex -2.5 2.9275 4.424
    endloop
  endfacet
  facet normal -1 -0 0
    outer loop
      vertex -2.5 3.5625 3.975
      vertex -2.5 1.34 2.9
      vertex -2.5 2.9275 3.975
    endloop
  endfacet
  facet normal -1 -0 0
    outer loop
      vertex -2.5 2.9275 3.975
      vertex -2.5 1.34 2.9
      vertex -2.5 2.2925 3.975
    endloop
  endfacet
  facet normal -1 -0 0
    outer loop
      vertex -2.5 2.2925 3.975
      vertex -2.5 1.34 2.9
      vertex -2.5 1.6575 3.975
    endloop
  endfacet
  facet normal -1 0 0
    outer loop
      vertex -2.5 1.34 4.424
      vertex -2.5 1.6575 3.975
      vertex -2.5 1.34 2.9
    endloop
  endfacet
  facet normal -1 0 0
    outer loop
      vertex -2.5 1.6575 3.975
      vertex -2.5 1.34 4.424
      vertex -2.5 1.6575 4.424
    endloop
  endfacet
  facet normal -1 -0 0
    outer loop
      vertex -2.5 8.96 4.424
      vertex -2.5 8.6425 3.975
      vertex -2.5 8.6425 4.424
    endloop
  endfacet
  facet normal -1 -0 0
    outer loop
      vertex -2.5 8.0075 4.424
      vertex -2.5 7.3725 3.975
      vertex -2.5 7.3725 4.424
    endloop
  endfacet
  facet normal -1 -0 0
    outer loop
      vertex -2.5 6.7375 4.424
      vertex -2.5 6.1025 3.975
      vertex -2.5 6.1025 4.424
    endloop
  endfacet
  facet normal -1 -0 0
    outer loop
      vertex -2.5 5.4675 4.424
      vertex -2.5 4.8325 3.975
      vertex -2.5 4.8325 4.424
    endloop
  endfacet
  facet normal -1 -0 0
    outer loop
      vertex -2.5 4.1975 4.424
      vertex -2.5 3.5625 3.975
      vertex -2.5 3.5625 4.424
    endloop
  endfacet
  facet normal -1 -0 0
    outer loop
      vertex -2.5 2.9275 4.424
      vertex -2.5 2.2925 3.975
      vertex -2.5 2.2925 4.424
    endloop
  endfacet
  facet normal -0 0 1
    outer loop
      vertex -7.799 8.96 2.9
      vertex -2.5 1.34 2.9
      vertex -2.5 8.96 2.9
    endloop
  endfacet
  facet normal 0 0 1
    outer loop
      vertex -2.5 1.34 2.9
      vertex -7.799 8.96 2.9
      vertex -7.799 1.34 2.9
    endloop
  endfacet
  facet normal 0 -1 0
    outer loop
      vertex -7.799 8.96 5.374
      vertex -2.501 8.96 4.424
      vertex -2.501 8.96 5.374
    endloop
  endfacet
  facet normal 0 -1 0
    outer loop
      vertex -7.799 8.96 2.9
      vertex -2.501 8.96 4.424
      vertex -7.799 8.96 5.374
    endloop
  endfacet
  facet normal 0 -1 0
    outer loop
      vertex -2.5 8.96 2.9
      vertex -2.501 8.96 4.424
      vertex -7.799 8.96 2.9
    endloop
  endfacet
  facet normal 0 -1 0
    outer loop
      vertex -2.501 8.96 4.424
      vertex -2.5 8.96 2.9
      vertex -2.5 8.96 4.424
    endloop
  endfacet
  facet normal 0 1 0
    outer loop
      vertex -2.5 1.34 4.424
      vertex -2.5 1.34 2.9
      vertex -2.501 1.34 4.424
    endloop
  endfacet
  facet normal 0 1 -0
    outer loop
      vertex -2.501 1.34 4.424
      vertex -7.799 1.34 5.374
      vertex -2.501 1.34 5.374
    endloop
  endfacet
  facet normal 0 1 0
    outer loop
      vertex -7.799 1.34 2.9
      vertex -2.501 1.34 4.424
      vertex -2.5 1.34 2.9
    endloop
  endfacet
  facet normal 0 1 0
    outer loop
      vertex -2.501 1.34 4.424
      vertex -7.799 1.34 2.9
      vertex -7.799 1.34 5.374
    endloop
  endfacet
  facet normal -1 0 0
    outer loop
      vertex -1.95 -0.601 2.375
      vertex -1.95 -1.201 2.975
      vertex -1.95 -0.601 2.975
    endloop
  endfacet
  facet normal -1 0 0
    outer loop
      vertex -1.95 -1.8 2.375
      vertex -1.95 -1.201 2.975
      vertex -1.95 -0.601 2.375
    endloop
  endfacet
  facet normal -1 0 0
    outer loop
      vertex -1.95 -1.8 5.374
      vertex -1.95 -1.201 2.975
      vertex -1.95 -1.8 2.375
    endloop
  endfacet
  facet normal -1 0 0
    outer loop
      vertex -1.95 -1.201 2.975
      vertex -1.95 -1.8 5.374
      vertex -1.95 -1.201 5.374
    endloop
  endfacet
  facet normal -0 0 1
    outer loop
      vertex -5.85 -0.601 2.375
      vertex -1.95 -1.8 2.375
      vertex -1.95 -0.601 2.375
    endloop
  endfacet
  facet normal 0 0 1
    outer loop
      vertex -1.95 -1.8 2.375
      vertex -5.85 -0.601 2.375
      vertex -5.85 -1.8 2.375
    endloop
  endfacet
  facet normal 1 0 0
    outer loop
      vertex -5.85 -1.201 5.374
      vertex -5.85 -1.8 5.374
      vertex -5.85 -1.201 2.975
    endloop
  endfacet
  facet normal 1 -0 0
    outer loop
      vertex -5.85 -1.201 2.975
      vertex -5.85 -0.601 2.375
      vertex -5.85 -0.601 2.975
    endloop
  endfacet
  facet normal 1 0 0
    outer loop
      vertex -5.85 -1.201 2.975
      vertex -5.85 -1.8 2.375
      vertex -5.85 -0.601 2.375
    endloop
  endfacet
  facet normal 1 0 0
    outer loop
      vertex -5.85 -1.8 2.375
      vertex -5.85 -1.201 2.975
      vertex -5.85 -1.8 5.374
    endloop
  endfacet
  facet normal 0 -1 0
    outer loop
      vertex -5.85 -1.201 2.975
      vertex -1.95 -1.201 5.374
      vertex -5.85 -1.201 5.374
    endloop
  endfacet
  facet normal 0 -1 -0
    outer loop
      vertex -1.95 -1.201 5.374
      vertex -5.85 -1.201 2.975
      vertex -1.95 -1.201 2.975
    endloop
  endfacet
  facet normal 0 0 -1
    outer loop
      vertex -5.85 -1.201 2.975
      vertex -1.95 -0.601 2.975
      vertex -1.95 -1.201 2.975
    endloop
  endfacet
  facet normal -0 0 -1
    outer loop
      vertex -1.95 -0.601 2.975
      vertex -5.85 -1.201 2.975
      vertex -5.85 -0.601 2.975
    endloop
  endfacet
  facet normal 0 -1 0
    outer loop
      vertex -5.85 -0.601 2.375
      vertex -1.95 -0.601 2.975
      vertex -5.85 -0.601 2.975
    endloop
  endfacet
  facet normal 0 -1 -0
    outer loop
      vertex -1.95 -0.601 2.975
      vertex -5.85 -0.601 2.375
      vertex -1.95 -0.601 2.375
    endloop
  endfacet
  facet normal -1 0 0
    outer loop
      vertex -1.95 12.1 2.375
      vertex -1.95 11.501 2.975
      vertex -1.95 12.1 5.374
    endloop
  endfacet
  facet normal -1 0 0
    outer loop
      vertex -1.95 10.9 2.375
      vertex -1.95 11.501 2.975
      vertex -1.95 12.1 2.375
    endloop
  endfacet
  facet normal -1 -0 0
    outer loop
      vertex -1.95 11.501 2.975
      vertex -1.95 10.9 2.375
      vertex -1.95 10.9 2.975
    endloop
  endfacet
  facet normal -1 -0 0
    outer loop
      vertex -1.95 12.1 5.374
      vertex -1.95 11.501 2.975
      vertex -1.95 11.501 5.374
    endloop
  endfacet
  facet normal -0 0 1
    outer loop
      vertex -5.85 12.1 2.375
      vertex -1.95 10.9 2.375
      vertex -1.95 12.1 2.375
    endloop
  endfacet
  facet normal 0 0 1
    outer loop
      vertex -1.95 10.9 2.375
      vertex -5.85 12.1 2.375
      vertex -5.85 10.9 2.375
    endloop
  endfacet
  facet normal 1 0 0
    outer loop
      vertex -5.85 11.501 2.975
      vertex -5.85 12.1 5.374
      vertex -5.85 11.501 5.374
    endloop
  endfacet
  facet normal 1 0 0
    outer loop
      vertex -5.85 12.1 5.374
      vertex -5.85 11.501 2.975
      vertex -5.85 12.1 2.375
    endloop
  endfacet
  facet normal 1 0 0
    outer loop
      vertex -5.85 10.9 2.375
      vertex -5.85 11.501 2.975
      vertex -5.85 10.9 2.975
    endloop
  endfacet
  facet normal 1 0 0
    outer loop
      vertex -5.85 11.501 2.975
      vertex -5.85 10.9 2.375
      vertex -5.85 12.1 2.375
    endloop
  endfacet
  facet normal 0 1 -0
    outer loop
      vertex -1.95 11.501 2.975
      vertex -5.85 11.501 5.374
      vertex -1.95 11.501 5.374
    endloop
  endfacet
  facet normal 0 1 0
    outer loop
      vertex -5.85 11.501 5.374
      vertex -1.95 11.501 2.975
      vertex -5.85 11.501 2.975
    endloop
  endfacet
  facet normal 0 0 -1
    outer loop
      vertex -5.85 10.9 2.975
      vertex -1.95 11.501 2.975
      vertex -1.95 10.9 2.975
    endloop
  endfacet
  facet normal -0 0 -1
    outer loop
      vertex -1.95 11.501 2.975
      vertex -5.85 10.9 2.975
      vertex -5.85 11.501 2.975
    endloop
  endfacet
  facet normal 0 1 -0
    outer loop
      vertex -1.95 10.9 2.375
      vertex -5.85 10.9 2.975
      vertex -1.95 10.9 2.975
    endloop
  endfacet
  facet normal 0 1 0
    outer loop
      vertex -5.85 10.9 2.975
      vertex -1.95 10.9 2.375
      vertex -5.85 10.9 2.375
    endloop
  endfacet
  facet normal 1 -0 0
    outer loop
      vertex -2.501 1.199 5.374
      vertex -2.501 1.34 4.424
      vertex -2.501 1.34 5.374
    endloop
  endfacet
  facet normal 1 0 0
    outer loop
      vertex -2.501 1.34 4.424
      vertex -2.501 1.199 5.374
      vertex -2.501 1.199 4.424
    endloop
  endfacet
  facet normal 1 -0 0
    outer loop
      vertex -2.501 8.96 5.374
      vertex -2.501 9.101 4.424
      vertex -2.501 9.101 5.374
    endloop
  endfacet
  facet normal 1 0 0
    outer loop
      vertex -2.501 9.101 4.424
      vertex -2.501 8.96 5.374
      vertex -2.501 8.96 4.424
    endloop
  endfacet
  facet normal -1 0 0
    outer loop
      vertex 0.00499916 9.101 5.374
      vertex 0.00499916 10.3 5.375
      vertex 0.00499916 10.3 5.374
    endloop
  endfacet
  facet normal -1 -0 0
    outer loop
      vertex 0.00499916 10.3 5.375
      vertex 0.00499916 9.101 5.374
      vertex 0.00499916 9.101 5.375
    endloop
  endfacet
  facet normal -1 0 0
    outer loop
      vertex 0.00499916 0 5.374
      vertex 0.00499916 1.199 5.375
      vertex 0.00499916 1.199 5.374
    endloop
  endfacet
  facet normal -1 -0 0
    outer loop
      vertex 0.00499916 1.199 5.375
      vertex 0.00499916 0 5.374
      vertex 0.00499916 0 5.375
    endloop
  endfacet
  facet normal 0 0 1
    outer loop
      vertex -2.501 1.34 5.374
      vertex -5.85 -1.201 5.374
      vertex -2.501 1.199 5.374
    endloop
  endfacet
  facet normal -0 0 1
    outer loop
      vertex -7.799 1.34 5.374
      vertex -5.85 -1.201 5.374
      vertex -2.501 1.34 5.374
    endloop
  endfacet
  facet normal 0 0 1
    outer loop
      vertex -7.799 -1.8 5.374
      vertex -5.85 -1.201 5.374
      vertex -7.799 1.34 5.374
    endloop
  endfacet
  facet normal 0 0 1
    outer loop
      vertex -5.85 -1.201 5.374
      vertex -7.799 -1.8 5.374
      vertex -5.85 -1.8 5.374
    endloop
  endfacet
  facet normal 0 0 1
    outer loop
      vertex 0.00499916 1.199 5.374
      vertex 0.00299931 0 5.374
      vertex 0.00499916 0 5.374
    endloop
  endfacet
  facet normal 0 0 1
    outer loop
      vertex 0.00299931 0 5.374
      vertex -1.95 -1.201 5.374
      vertex 0.00299931 -1.8 5.374
    endloop
  endfacet
  facet normal -0 0 1
    outer loop
      vertex -2.501 1.199 5.374
      vertex 0.00299931 0 5.374
      vertex 0.00499916 1.199 5.374
    endloop
  endfacet
  facet normal 0 0 1
    outer loop
      vertex 0.00299931 0 5.374
      vertex -2.501 1.199 5.374
      vertex -1.95 -1.201 5.374
    endloop
  endfacet
  facet normal 0 0 1
    outer loop
      vertex -1.95 -1.201 5.374
      vertex -2.501 1.199 5.374
      vertex -5.85 -1.201 5.374
    endloop
  endfacet
  facet normal 0 0 1
    outer loop
      vertex 0.00299931 -1.8 5.374
      vertex -1.95 -1.201 5.374
      vertex -1.95 -1.8 5.374
    endloop
  endfacet
  facet normal 0 0 1
    outer loop
      vertex -5.85 12.1 5.374
      vertex -7.799 12.1 5.374
      vertex -5.85 11.501 5.374
    endloop
  endfacet
  facet normal 0 0 1
    outer loop
      vertex -1.95 11.501 5.374
      vertex 0.00299931 12.1 5.374
      vertex -1.95 12.1 5.374
    endloop
  endfacet
  facet normal -0 0 1
    outer loop
      vertex 0.00299931 10.3 5.374
      vertex 0.00499916 9.101 5.374
      vertex 0.00499916 10.3 5.374
    endloop
  endfacet
  facet normal 0 0 1
    outer loop
      vertex 0.00299931 12.1 5.374
      vertex -1.95 11.501 5.374
      vertex 0.00299931 10.3 5.374
    endloop
  endfacet
  facet normal 0 0 1
    outer loop
      vertex -2.501 9.101 5.374
      vertex 0.00299931 10.3 5.374
      vertex -1.95 11.501 5.374
    endloop
  endfacet
  facet normal 0 0 1
    outer loop
      vertex 0.00299931 10.3 5.374
      vertex -2.501 9.101 5.374
      vertex 0.00499916 9.101 5.374
    endloop
  endfacet
  facet normal -0 0 1
    outer loop
      vertex -5.85 11.501 5.374
      vertex -2.501 9.101 5.374
      vertex -1.95 11.501 5.374
    endloop
  endfacet
  facet normal 0 0 1
    outer loop
      vertex -5.85 11.501 5.374
      vertex -2.501 8.96 5.374
      vertex -2.501 9.101 5.374
    endloop
  endfacet
  facet normal 0 0 1
    outer loop
      vertex -7.799 8.96 5.374
      vertex -5.85 11.501 5.374
      vertex -7.799 12.1 5.374
    endloop
  endfacet
  facet normal 0 0 1
    outer loop
      vertex -5.85 11.501 5.374
      vertex -7.799 8.96 5.374
      vertex -2.501 8.96 5.374
    endloop
  endfacet
  facet normal 1 -0 0
    outer loop
      vertex 23.7 8.16625 2.475
      vertex 23.7 8.48375 2.326
      vertex 23.7 8.48375 2.475
    endloop
  endfacet
  facet normal 1 0 0
    outer loop
      vertex 23.7 8.48375 2.326
      vertex 23.7 8.16625 2.475
      vertex 23.7 8.16625 2.326
    endloop
  endfacet
  facet normal -0 0 1
    outer loop
      vertex 21.2 8.48375 2.475
      vertex 23.7 8.16625 2.475
      vertex 23.7 8.48375 2.475
    endloop
  endfacet
  facet normal 0 0 1
    outer loop
      vertex 23.7 8.16625 2.475
      vertex 21.2 8.48375 2.475
      vertex 21.2 8.16625 2.475
    endloop
  endfacet
  facet normal -1 0 0
    outer loop
      vertex 21.2 8.16625 2.326
      vertex 21.2 8.48375 2.475
      vertex 21.2 8.48375 2.326
    endloop
  endfacet
  facet normal -1 -0 0
    outer loop
      vertex 21.2 8.48375 2.475
      vertex 21.2 8.16625 2.326
      vertex 21.2 8.16625 2.475
    endloop
  endfacet
  facet normal 0 -1 0
    outer loop
      vertex 21.2 8.16625 2.326
      vertex 23.7 8.16625 2.475
      vertex 21.2 8.16625 2.475
    endloop
  endfacet
  facet normal 0 -1 -0
    outer loop
      vertex 23.7 8.16625 2.475
      vertex 21.2 8.16625 2.326
      vertex 23.7 8.16625 2.326
    endloop
  endfacet
  facet normal 0 1 -0
    outer loop
      vertex 23.7 8.48375 2.326
      vertex 21.2 8.48375 2.475
      vertex 23.7 8.48375 2.475
    endloop
  endfacet
  facet normal 0 1 0
    outer loop
      vertex 21.2 8.48375 2.475
      vertex 23.7 8.48375 2.326
      vertex 21.2 8.48375 2.326
    endloop
  endfacet
  facet normal 1 -0 0
    outer loop
      vertex 23.7 6.89625 2.475
      vertex 23.7 7.21375 2.326
      vertex 23.7 7.21375 2.475
    endloop
  endfacet
  facet normal 1 0 0
    outer loop
      vertex 23.7 7.21375 2.326
      vertex 23.7 6.89625 2.475
      vertex 23.7 6.89625 2.326
    endloop
  endfacet
  facet normal -0 0 1
    outer loop
      vertex 21.2 7.21375 2.475
      vertex 23.7 6.89625 2.475
      vertex 23.7 7.21375 2.475
    endloop
  endfacet
  facet normal 0 0 1
    outer loop
      vertex 23.7 6.89625 2.475
      vertex 21.2 7.21375 2.475
      vertex 21.2 6.89625 2.475
    endloop
  endfacet
  facet normal -1 0 0
    outer loop
      vertex 21.2 6.89625 2.326
      vertex 21.2 7.21375 2.475
      vertex 21.2 7.21375 2.326
    endloop
  endfacet
  facet normal -1 -0 0
    outer loop
      vertex 21.2 7.21375 2.475
      vertex 21.2 6.89625 2.326
      vertex 21.2 6.89625 2.475
    endloop
  endfacet
  facet normal 0 -1 0
    outer loop
      vertex 21.2 6.89625 2.326
      vertex 23.7 6.89625 2.475
      vertex 21.2 6.89625 2.475
    endloop
  endfacet
  facet normal 0 -1 -0
    outer loop
      vertex 23.7 6.89625 2.475
      vertex 21.2 6.89625 2.326
      vertex 23.7 6.89625 2.326
    endloop
  endfacet
  facet normal 0 1 -0
    outer loop
      vertex 23.7 7.21375 2.326
      vertex 21.2 7.21375 2.475
      vertex 23.7 7.21375 2.475
    endloop
  endfacet
  facet normal 0 1 0
    outer loop
      vertex 21.2 7.21375 2.475
      vertex 23.7 7.21375 2.326
      vertex 21.2 7.21375 2.326
    endloop
  endfacet
  facet normal 1 -0 0
    outer loop
      vertex 23.7 5.62625 2.475
      vertex 23.7 5.94375 2.326
      vertex 23.7 5.94375 2.475
    endloop
  endfacet
  facet normal 1 0 0
    outer loop
      vertex 23.7 5.94375 2.326
      vertex 23.7 5.62625 2.475
      vertex 23.7 5.62625 2.326
    endloop
  endfacet
  facet normal -0 0 1
    outer loop
      vertex 21.2 5.94375 2.475
      vertex 23.7 5.62625 2.475
      vertex 23.7 5.94375 2.475
    endloop
  endfacet
  facet normal 0 0 1
    outer loop
      vertex 23.7 5.62625 2.475
      vertex 21.2 5.94375 2.475
      vertex 21.2 5.62625 2.475
    endloop
  endfacet
  facet normal -1 0 0
    outer loop
      vertex 21.2 5.62625 2.326
      vertex 21.2 5.94375 2.475
      vertex 21.2 5.94375 2.326
    endloop
  endfacet
  facet normal -1 -0 0
    outer loop
      vertex 21.2 5.94375 2.475
      vertex 21.2 5.62625 2.326
      vertex 21.2 5.62625 2.475
    endloop
  endfacet
  facet normal 0 -1 0
    outer loop
      vertex 21.2 5.62625 2.326
      vertex 23.7 5.62625 2.475
      vertex 21.2 5.62625 2.475
    endloop
  endfacet
  facet normal 0 -1 -0
    outer loop
      vertex 23.7 5.62625 2.475
      vertex 21.2 5.62625 2.326
      vertex 23.7 5.62625 2.326
    endloop
  endfacet
  facet normal 0 1 -0
    outer loop
      vertex 23.7 5.94375 2.326
      vertex 21.2 5.94375 2.475
      vertex 23.7 5.94375 2.475
    endloop
  endfacet
  facet normal 0 1 0
    outer loop
      vertex 21.2 5.94375 2.475
      vertex 23.7 5.94375 2.326
      vertex 21.2 5.94375 2.326
    endloop
  endfacet
  facet normal 1 -0 0
    outer loop
      vertex 23.7 4.35625 2.475
      vertex 23.7 4.67375 2.326
      vertex 23.7 4.67375 2.475
    endloop
  endfacet
  facet normal 1 0 0
    outer loop
      vertex 23.7 4.67375 2.326
      vertex 23.7 4.35625 2.475
      vertex 23.7 4.35625 2.326
    endloop
  endfacet
  facet normal -0 0 1
    outer loop
      vertex 21.2 4.67375 2.475
      vertex 23.7 4.35625 2.475
      vertex 23.7 4.67375 2.475
    endloop
  endfacet
  facet normal 0 0 1
    outer loop
      vertex 23.7 4.35625 2.475
      vertex 21.2 4.67375 2.475
      vertex 21.2 4.35625 2.475
    endloop
  endfacet
  facet normal -1 0 0
    outer loop
      vertex 21.2 4.35625 2.326
      vertex 21.2 4.67375 2.475
      vertex 21.2 4.67375 2.326
    endloop
  endfacet
  facet normal -1 -0 0
    outer loop
      vertex 21.2 4.67375 2.475
      vertex 21.2 4.35625 2.326
      vertex 21.2 4.35625 2.475
    endloop
  endfacet
  facet normal 0 -1 0
    outer loop
      vertex 21.2 4.35625 2.326
      vertex 23.7 4.35625 2.475
      vertex 21.2 4.35625 2.475
    endloop
  endfacet
  facet normal 0 -1 -0
    outer loop
      vertex 23.7 4.35625 2.475
      vertex 21.2 4.35625 2.326
      vertex 23.7 4.35625 2.326
    endloop
  endfacet
  facet normal 0 1 -0
    outer loop
      vertex 23.7 4.67375 2.326
      vertex 21.2 4.67375 2.475
      vertex 23.7 4.67375 2.475
    endloop
  endfacet
  facet normal 0 1 0
    outer loop
      vertex 21.2 4.67375 2.475
      vertex 23.7 4.67375 2.326
      vertex 21.2 4.67375 2.326
    endloop
  endfacet
  facet normal 1 -0 0
    outer loop
      vertex 23.7 3.08625 2.475
      vertex 23.7 3.40375 2.326
      vertex 23.7 3.40375 2.475
    endloop
  endfacet
  facet normal 1 0 0
    outer loop
      vertex 23.7 3.40375 2.326
      vertex 23.7 3.08625 2.475
      vertex 23.7 3.08625 2.326
    endloop
  endfacet
  facet normal -0 0 1
    outer loop
      vertex 21.2 3.40375 2.475
      vertex 23.7 3.08625 2.475
      vertex 23.7 3.40375 2.475
    endloop
  endfacet
  facet normal 0 0 1
    outer loop
      vertex 23.7 3.08625 2.475
      vertex 21.2 3.40375 2.475
      vertex 21.2 3.08625 2.475
    endloop
  endfacet
  facet normal -1 0 0
    outer loop
      vertex 21.2 3.08625 2.326
      vertex 21.2 3.40375 2.475
      vertex 21.2 3.40375 2.326
    endloop
  endfacet
  facet normal -1 -0 0
    outer loop
      vertex 21.2 3.40375 2.475
      vertex 21.2 3.08625 2.326
      vertex 21.2 3.08625 2.475
    endloop
  endfacet
  facet normal 0 -1 0
    outer loop
      vertex 21.2 3.08625 2.326
      vertex 23.7 3.08625 2.475
      vertex 21.2 3.08625 2.475
    endloop
  endfacet
  facet normal 0 -1 -0
    outer loop
      vertex 23.7 3.08625 2.475
      vertex 21.2 3.08625 2.326
      vertex 23.7 3.08625 2.326
    endloop
  endfacet
  facet normal 0 1 -0
    outer loop
      vertex 23.7 3.40375 2.326
      vertex 21.2 3.40375 2.475
      vertex 23.7 3.40375 2.475
    endloop
  endfacet
  facet normal 0 1 0
    outer loop
      vertex 21.2 3.40375 2.475
      vertex 23.7 3.40375 2.326
      vertex 21.2 3.40375 2.326
    endloop
  endfacet
  facet normal 1 -0 0
    outer loop
      vertex 23.7 1.81625 2.475
      vertex 23.7 2.13375 2.326
      vertex 23.7 2.13375 2.475
    endloop
  endfacet
  facet normal 1 0 0
    outer loop
      vertex 23.7 2.13375 2.326
      vertex 23.7 1.81625 2.475
      vertex 23.7 1.81625 2.326
    endloop
  endfacet
  facet normal -0 0 1
    outer loop
      vertex 21.2 2.13375 2.475
      vertex 23.7 1.81625 2.475
      vertex 23.7 2.13375 2.475
    endloop
  endfacet
  facet normal 0 0 1
    outer loop
      vertex 23.7 1.81625 2.475
      vertex 21.2 2.13375 2.475
      vertex 21.2 1.81625 2.475
    endloop
  endfacet
  facet normal -1 0 0
    outer loop
      vertex 21.2 1.81625 2.326
      vertex 21.2 2.13375 2.475
      vertex 21.2 2.13375 2.326
    endloop
  endfacet
  facet normal -1 -0 0
    outer loop
      vertex 21.2 2.13375 2.475
      vertex 21.2 1.81625 2.326
      vertex 21.2 1.81625 2.475
    endloop
  endfacet
  facet normal 0 -1 0
    outer loop
      vertex 21.2 1.81625 2.326
      vertex 23.7 1.81625 2.475
      vertex 21.2 1.81625 2.475
    endloop
  endfacet
  facet normal 0 -1 -0
    outer loop
      vertex 23.7 1.81625 2.475
      vertex 21.2 1.81625 2.326
      vertex 23.7 1.81625 2.326
    endloop
  endfacet
  facet normal 0 1 -0
    outer loop
      vertex 23.7 2.13375 2.326
      vertex 21.2 2.13375 2.475
      vertex 23.7 2.13375 2.475
    endloop
  endfacet
  facet normal 0 1 0
    outer loop
      vertex 21.2 2.13375 2.475
      vertex 23.7 2.13375 2.326
      vertex 21.2 2.13375 2.326
    endloop
  endfacet
  facet normal 1 0 0
    outer loop
      vertex 21.7 12.101 4.325
      vertex 21.7 11.601 3.875
      vertex 21.7 12.101 1.376
    endloop
  endfacet
  facet normal 1 -0 0
    outer loop
      vertex 21.7 11.101 4.325
      vertex 21.7 11.601 3.875
      vertex 21.7 12.101 4.325
    endloop
  endfacet
  facet normal 1 0 0
    outer loop
      vertex 21.7 11.601 3.875
      vertex 21.7 11.101 4.325
      vertex 21.7 11.101 3.875
    endloop
  endfacet
  facet normal 1 0 0
    outer loop
      vertex 21.7 12.101 1.376
      vertex 21.7 11.601 3.875
      vertex 21.7 11.601 1.376
    endloop
  endfacet
  facet normal 0 0 0
    outer loop
      vertex 21.7 12.101 4.325
      vertex 21.7 12.101 1.376
      vertex 21.7 12.101 1.225
    endloop
  endfacet
  facet normal -0 0 1
    outer loop
      vertex 17.9 12.101 4.325
      vertex 21.7 11.101 4.325
      vertex 21.7 12.101 4.325
    endloop
  endfacet
  facet normal 0 0 1
    outer loop
      vertex 21.7 11.101 4.325
      vertex 17.9 12.101 4.325
      vertex 17.9 11.101 4.325
    endloop
  endfacet
  facet normal -1 0 0
    outer loop
      vertex 17.9 11.601 3.875
      vertex 17.9 12.101 1.376
      vertex 17.9 11.601 1.376
    endloop
  endfacet
  facet normal -1 0 0
    outer loop
      vertex 17.9 12.101 1.376
      vertex 17.9 11.601 3.875
      vertex 17.9 12.101 4.325
    endloop
  endfacet
  facet normal -1 0 0
    outer loop
      vertex 17.9 11.101 4.325
      vertex 17.9 11.601 3.875
      vertex 17.9 11.101 3.875
    endloop
  endfacet
  facet normal -1 0 0
    outer loop
      vertex 17.9 11.601 3.875
      vertex 17.9 11.101 4.325
      vertex 17.9 12.101 4.325
    endloop
  endfacet
  facet normal -0 0 0
    outer loop
      vertex 17.9 12.101 1.376
      vertex 17.9 12.101 4.325
      vertex 17.9 12.101 1.225
    endloop
  endfacet
  facet normal 0 -1 0
    outer loop
      vertex 17.9 11.601 1.376
      vertex 21.7 11.601 3.875
      vertex 17.9 11.601 3.875
    endloop
  endfacet
  facet normal 0 -1 -0
    outer loop
      vertex 21.7 11.601 3.875
      vertex 17.9 11.601 1.376
      vertex 21.7 11.601 1.376
    endloop
  endfacet
  facet normal 0 1 -0
    outer loop
      vertex 21.7 12.101 1.225
      vertex 17.9 12.101 4.325
      vertex 21.7 12.101 4.325
    endloop
  endfacet
  facet normal 0 1 0
    outer loop
      vertex 17.9 12.101 4.325
      vertex 21.7 12.101 1.225
      vertex 17.9 12.101 1.225
    endloop
  endfacet
  facet normal 0 0 -1
    outer loop
      vertex 17.9 11.101 3.875
      vertex 21.7 11.601 3.875
      vertex 21.7 11.101 3.875
    endloop
  endfacet
  facet normal -0 0 -1
    outer loop
      vertex 21.7 11.601 3.875
      vertex 17.9 11.101 3.875
      vertex 17.9 11.601 3.875
    endloop
  endfacet
  facet normal 0 -1 0
    outer loop
      vertex 17.9 11.101 3.875
      vertex 21.7 11.101 4.325
      vertex 17.9 11.101 4.325
    endloop
  endfacet
  facet normal 0 -1 -0
    outer loop
      vertex 21.7 11.101 4.325
      vertex 17.9 11.101 3.875
      vertex 21.7 11.101 3.875
    endloop
  endfacet
  facet normal 1 0 0
    outer loop
      vertex 21.7 -0.800001 4.325
      vertex 21.7 -1.301 3.825
      vertex 21.7 -0.800001 3.825
    endloop
  endfacet
  facet normal 1 0 0
    outer loop
      vertex 21.7 -1.301 3.825
      vertex 21.7 -1.801 1.376
      vertex 21.7 -1.301 1.376
    endloop
  endfacet
  facet normal 1 -0 0
    outer loop
      vertex 21.7 -1.801 4.325
      vertex 21.7 -1.301 3.825
      vertex 21.7 -0.800001 4.325
    endloop
  endfacet
  facet normal 1 0 0
    outer loop
      vertex 21.7 -1.801 4.325
      vertex 21.7 -1.801 1.376
      vertex 21.7 -1.301 3.825
    endloop
  endfacet
  facet normal 0 0 0
    outer loop
      vertex 21.7 -1.801 1.225
      vertex 21.7 -1.801 1.376
      vertex 21.7 -1.801 4.325
    endloop
  endfacet
  facet normal -0 0 1
    outer loop
      vertex 17.9 -0.800001 4.325
      vertex 21.7 -1.801 4.325
      vertex 21.7 -0.800001 4.325
    endloop
  endfacet
  facet normal 0 0 1
    outer loop
      vertex 21.7 -1.801 4.325
      vertex 17.9 -0.800001 4.325
      vertex 17.9 -1.801 4.325
    endloop
  endfacet
  facet normal -1 0 0
    outer loop
      vertex 17.9 -1.301 1.376
      vertex 17.9 -1.801 1.376
      vertex 17.9 -1.301 3.825
    endloop
  endfacet
  facet normal -1 0 0
    outer loop
      vertex 17.9 -1.301 3.825
      vertex 17.9 -0.800001 4.325
      vertex 17.9 -0.800001 3.825
    endloop
  endfacet
  facet normal -1 0 0
    outer loop
      vertex 17.9 -1.301 3.825
      vertex 17.9 -1.801 4.325
      vertex 17.9 -0.800001 4.325
    endloop
  endfacet
  facet normal -1 0 0
    outer loop
      vertex 17.9 -1.801 1.376
      vertex 17.9 -1.801 4.325
      vertex 17.9 -1.301 3.825
    endloop
  endfacet
  facet normal 0 0 0
    outer loop
      vertex 17.9 -1.801 4.325
      vertex 17.9 -1.801 1.376
      vertex 17.9 -1.801 1.225
    endloop
  endfacet
  facet normal 0 -1 0
    outer loop
      vertex 17.9 -1.801 1.225
      vertex 21.7 -1.801 4.325
      vertex 17.9 -1.801 4.325
    endloop
  endfacet
  facet normal 0 -1 -0
    outer loop
      vertex 21.7 -1.801 4.325
      vertex 17.9 -1.801 1.225
      vertex 21.7 -1.801 1.225
    endloop
  endfacet
  facet normal 0 1 -0
    outer loop
      vertex 21.7 -1.301 1.376
      vertex 17.9 -1.301 3.825
      vertex 21.7 -1.301 3.825
    endloop
  endfacet
  facet normal 0 1 0
    outer loop
      vertex 17.9 -1.301 3.825
      vertex 21.7 -1.301 1.376
      vertex 17.9 -1.301 1.376
    endloop
  endfacet
  facet normal 0 0 -1
    outer loop
      vertex 17.9 -1.301 3.825
      vertex 21.7 -0.800001 3.825
      vertex 21.7 -1.301 3.825
    endloop
  endfacet
  facet normal -0 0 -1
    outer loop
      vertex 21.7 -0.800001 3.825
      vertex 17.9 -1.301 3.825
      vertex 17.9 -0.800001 3.825
    endloop
  endfacet
  facet normal 0 1 -0
    outer loop
      vertex 21.7 -0.800001 3.825
      vertex 17.9 -0.800001 4.325
      vertex 21.7 -0.800001 4.325
    endloop
  endfacet
  facet normal 0 1 0
    outer loop
      vertex 17.9 -0.800001 4.325
      vertex 21.7 -0.800001 3.825
      vertex 17.9 -0.800001 3.825
    endloop
  endfacet
  facet normal 1 -0 0
    outer loop
      vertex 23.701 1.249 2.326
      vertex 23.701 9.051 1.376
      vertex 23.701 9.051 2.326
    endloop
  endfacet
  facet normal 1 0 0
    outer loop
      vertex 23.701 9.051 1.376
      vertex 23.701 1.249 2.326
      vertex 23.701 1.249 1.376
    endloop
  endfacet
  facet normal -0 0 1
    outer loop
      vertex 21.2 3.08625 2.326
      vertex 23.7 2.13375 2.326
      vertex 23.7 3.08625 2.326
    endloop
  endfacet
  facet normal 0 0 1
    outer loop
      vertex 23.7 2.13375 2.326
      vertex 21.2 3.08625 2.326
      vertex 21.2 2.13375 2.326
    endloop
  endfacet
  facet normal -0 0 1
    outer loop
      vertex 21.2 4.35625 2.326
      vertex 23.7 3.40375 2.326
      vertex 23.7 4.35625 2.326
    endloop
  endfacet
  facet normal 0 0 1
    outer loop
      vertex 23.7 3.40375 2.326
      vertex 21.2 4.35625 2.326
      vertex 21.2 3.40375 2.326
    endloop
  endfacet
  facet normal -0 0 1
    outer loop
      vertex 21.2 5.62625 2.326
      vertex 23.7 4.67375 2.326
      vertex 23.7 5.62625 2.326
    endloop
  endfacet
  facet normal 0 0 1
    outer loop
      vertex 23.7 4.67375 2.326
      vertex 21.2 5.62625 2.326
      vertex 21.2 4.67375 2.326
    endloop
  endfacet
  facet normal -0 0 1
    outer loop
      vertex 21.2 6.89625 2.326
      vertex 23.7 5.94375 2.326
      vertex 23.7 6.89625 2.326
    endloop
  endfacet
  facet normal 0 0 1
    outer loop
      vertex 23.7 5.94375 2.326
      vertex 21.2 6.89625 2.326
      vertex 21.2 5.94375 2.326
    endloop
  endfacet
  facet normal -0 0 1
    outer loop
      vertex 21.2 8.16625 2.326
      vertex 23.7 7.21375 2.326
      vertex 23.7 8.16625 2.326
    endloop
  endfacet
  facet normal 0 0 1
    outer loop
      vertex 23.7 7.21375 2.326
      vertex 21.2 8.16625 2.326
      vertex 21.2 7.21375 2.326
    endloop
  endfacet
  facet normal 0 0 1
    outer loop
      vertex 23.701 9.051 2.326
      vertex 23.7 8.48375 2.326
      vertex 23.701 1.249 2.326
    endloop
  endfacet
  facet normal 0 0 1
    outer loop
      vertex 23.701 9.051 2.326
      vertex 21.2 8.48375 2.326
      vertex 23.7 8.48375 2.326
    endloop
  endfacet
  facet normal 0 0 0
    outer loop
      vertex 21.2 8.48375 2.326
      vertex 21.2 7.21375 2.326
      vertex 21.2 8.16625 2.326
    endloop
  endfacet
  facet normal 0 0 0
    outer loop
      vertex 21.2 8.48375 2.326
      vertex 21.2 6.89625 2.326
      vertex 21.2 7.21375 2.326
    endloop
  endfacet
  facet normal 0 0 0
    outer loop
      vertex 21.2 8.48375 2.326
      vertex 21.2 5.94375 2.326
      vertex 21.2 6.89625 2.326
    endloop
  endfacet
  facet normal 0 0 0
    outer loop
      vertex 21.2 8.48375 2.326
      vertex 21.2 5.62625 2.326
      vertex 21.2 5.94375 2.326
    endloop
  endfacet
  facet normal 0 0 0
    outer loop
      vertex 21.2 8.48375 2.326
      vertex 21.2 4.67375 2.326
      vertex 21.2 5.62625 2.326
    endloop
  endfacet
  facet normal 0 0 0
    outer loop
      vertex 21.2 8.48375 2.326
      vertex 21.2 4.35625 2.326
      vertex 21.2 4.67375 2.326
    endloop
  endfacet
  facet normal 0 0 0
    outer loop
      vertex 21.2 8.48375 2.326
      vertex 21.2 3.40375 2.326
      vertex 21.2 4.35625 2.326
    endloop
  endfacet
  facet normal 0 0 0
    outer loop
      vertex 21.2 8.48375 2.326
      vertex 21.2 3.08625 2.326
      vertex 21.2 3.40375 2.326
    endloop
  endfacet
  facet normal 0 0 0
    outer loop
      vertex 21.2 8.48375 2.326
      vertex 21.2 2.13375 2.326
      vertex 21.2 3.08625 2.326
    endloop
  endfacet
  facet normal 0 0 0
    outer loop
      vertex 21.2 8.48375 2.326
      vertex 21.2 1.81625 2.326
      vertex 21.2 2.13375 2.326
    endloop
  endfacet
  facet normal 0 0 1
    outer loop
      vertex 21.2 8.48375 2.326
      vertex 21.199 9.051 2.326
      vertex 21.2 1.81625 2.326
    endloop
  endfacet
  facet normal -0 0 1
    outer loop
      vertex 21.199 9.051 2.326
      vertex 21.2 8.48375 2.326
      vertex 23.701 9.051 2.326
    endloop
  endfacet
  facet normal -0 0 1
    outer loop
      vertex 23.7 8.16625 2.326
      vertex 23.701 1.249 2.326
      vertex 23.7 8.48375 2.326
    endloop
  endfacet
  facet normal -0 0 1
    outer loop
      vertex 23.7 7.21375 2.326
      vertex 23.701 1.249 2.326
      vertex 23.7 8.16625 2.326
    endloop
  endfacet
  facet normal -0 0 1
    outer loop
      vertex 23.7 6.89625 2.326
      vertex 23.701 1.249 2.326
      vertex 23.7 7.21375 2.326
    endloop
  endfacet
  facet normal -0 0 1
    outer loop
      vertex 23.7 5.94375 2.326
      vertex 23.701 1.249 2.326
      vertex 23.7 6.89625 2.326
    endloop
  endfacet
  facet normal -0 0 1
    outer loop
      vertex 23.7 5.62625 2.326
      vertex 23.701 1.249 2.326
      vertex 23.7 5.94375 2.326
    endloop
  endfacet
  facet normal -0 0 1
    outer loop
      vertex 23.7 4.67375 2.326
      vertex 23.701 1.249 2.326
      vertex 23.7 5.62625 2.326
    endloop
  endfacet
  facet normal -0 0 1
    outer loop
      vertex 23.7 4.35625 2.326
      vertex 23.701 1.249 2.326
      vertex 23.7 4.67375 2.326
    endloop
  endfacet
  facet normal -0 0 1
    outer loop
      vertex 23.7 3.40375 2.326
      vertex 23.701 1.249 2.326
      vertex 23.7 4.35625 2.326
    endloop
  endfacet
  facet normal -0 0 1
    outer loop
      vertex 23.7 3.08625 2.326
      vertex 23.701 1.249 2.326
      vertex 23.7 3.40375 2.326
    endloop
  endfacet
  facet normal -0 0 1
    outer loop
      vertex 23.7 2.13375 2.326
      vertex 23.701 1.249 2.326
      vertex 23.7 3.08625 2.326
    endloop
  endfacet
  facet normal -0 0 1
    outer loop
      vertex 23.7 1.81625 2.326
      vertex 23.701 1.249 2.326
      vertex 23.7 2.13375 2.326
    endloop
  endfacet
  facet normal -0 0 1
    outer loop
      vertex 21.2 1.81625 2.326
      vertex 23.701 1.249 2.326
      vertex 23.7 1.81625 2.326
    endloop
  endfacet
  facet normal 0 0 1
    outer loop
      vertex 21.2 1.81625 2.326
      vertex 21.199 1.249 2.326
      vertex 23.701 1.249 2.326
    endloop
  endfacet
  facet normal 0 0 1
    outer loop
      vertex 21.199 1.249 2.326
      vertex 21.2 1.81625 2.326
      vertex 21.199 9.051 2.326
    endloop
  endfacet
  facet normal -1 0 0
    outer loop
      vertex 21.199 1.249 1.376
      vertex 21.199 9.051 2.326
      vertex 21.199 9.051 1.376
    endloop
  endfacet
  facet normal -1 -0 0
    outer loop
      vertex 21.199 9.051 2.326
      vertex 21.199 1.249 1.376
      vertex 21.199 1.249 2.326
    endloop
  endfacet
  facet normal 0 -1 0
    outer loop
      vertex 21.199 1.249 1.376
      vertex 23.701 1.249 2.326
      vertex 21.199 1.249 2.326
    endloop
  endfacet
  facet normal 0 -1 -0
    outer loop
      vertex 23.701 1.249 2.326
      vertex 21.199 1.249 1.376
      vertex 23.701 1.249 1.376
    endloop
  endfacet
  facet normal 0 1 -0
    outer loop
      vertex 23.701 9.051 1.376
      vertex 21.199 9.051 2.326
      vertex 23.701 9.051 2.326
    endloop
  endfacet
  facet normal 0 1 0
    outer loop
      vertex 21.199 9.051 2.326
      vertex 23.701 9.051 1.376
      vertex 21.199 9.051 1.376
    endloop
  endfacet
  facet normal 1 -0 0
    outer loop
      vertex 23.705 -1.801 1.376
      vertex 23.705 12.101 0.174001
      vertex 23.705 12.101 1.376
    endloop
  endfacet
  facet normal 1 0 0
    outer loop
      vertex 23.705 12.101 0.174001
      vertex 23.705 -1.801 1.376
      vertex 23.705 -1.801 0.174001
    endloop
  endfacet
  facet normal 0 0 -1
    outer loop
      vertex 15.899 -1.801 0.174001
      vertex 23.705 12.101 0.174001
      vertex 23.705 -1.801 0.174001
    endloop
  endfacet
  facet normal -0 0 -1
    outer loop
      vertex 23.705 12.101 0.174001
      vertex 15.899 -1.801 0.174001
      vertex 15.899 12.101 0.174001
    endloop
  endfacet
  facet normal -0 0 1
    outer loop
      vertex 15.899 12.101 1.376
      vertex 17.9 11.601 1.376
      vertex 17.9 12.101 1.376
    endloop
  endfacet
  facet normal 0 0 1
    outer loop
      vertex 17.9 11.601 1.376
      vertex 15.899 12.101 1.376
      vertex 17.9 -1.301 1.376
    endloop
  endfacet
  facet normal 0 0 1
    outer loop
      vertex 15.899 -1.801 1.376
      vertex 17.9 -1.301 1.376
      vertex 15.899 12.101 1.376
    endloop
  endfacet
  facet normal 0 0 1
    outer loop
      vertex 17.9 -1.301 1.376
      vertex 15.899 -1.801 1.376
      vertex 17.9 -1.801 1.376
    endloop
  endfacet
  facet normal -0 0 1
    outer loop
      vertex 21.199 1.249 1.376
      vertex 21.7 -1.301 1.376
      vertex 23.701 1.249 1.376
    endloop
  endfacet
  facet normal 0 0 1
    outer loop
      vertex 17.9 -1.301 1.376
      vertex 21.199 1.249 1.376
      vertex 17.9 11.601 1.376
    endloop
  endfacet
  facet normal 0 0 1
    outer loop
      vertex 21.199 1.249 1.376
      vertex 17.9 -1.301 1.376
      vertex 21.7 -1.301 1.376
    endloop
  endfacet
  facet normal 0 0 1
    outer loop
      vertex 23.705 12.101 1.376
      vertex 23.701 9.051 1.376
      vertex 23.705 -1.801 1.376
    endloop
  endfacet
  facet normal 0 0 1
    outer loop
      vertex 21.7 11.601 1.376
      vertex 23.705 12.101 1.376
      vertex 21.7 12.101 1.376
    endloop
  endfacet
  facet normal 0 0 1
    outer loop
      vertex 23.705 12.101 1.376
      vertex 21.7 11.601 1.376
      vertex 23.701 9.051 1.376
    endloop
  endfacet
  facet normal 0 0 1
    outer loop
      vertex 21.7 11.601 1.376
      vertex 21.199 9.051 1.376
      vertex 23.701 9.051 1.376
    endloop
  endfacet
  facet normal 0 0 1
    outer loop
      vertex 21.199 9.051 1.376
      vertex 17.9 11.601 1.376
      vertex 21.199 1.249 1.376
    endloop
  endfacet
  facet normal -0 0 1
    outer loop
      vertex 17.9 11.601 1.376
      vertex 21.199 9.051 1.376
      vertex 21.7 11.601 1.376
    endloop
  endfacet
  facet normal -0 0 1
    outer loop
      vertex 23.701 1.249 1.376
      vertex 23.705 -1.801 1.376
      vertex 23.701 9.051 1.376
    endloop
  endfacet
  facet normal -0 0 1
    outer loop
      vertex 21.7 -1.301 1.376
      vertex 23.705 -1.801 1.376
      vertex 23.701 1.249 1.376
    endloop
  endfacet
  facet normal 0 0 1
    outer loop
      vertex 23.705 -1.801 1.376
      vertex 21.7 -1.301 1.376
      vertex 21.7 -1.801 1.376
    endloop
  endfacet
  facet normal -1 0 0
    outer loop
      vertex 15.899 -1.801 0.174001
      vertex 15.899 12.101 1.376
      vertex 15.899 12.101 0.174001
    endloop
  endfacet
  facet normal -1 -0 0
    outer loop
      vertex 15.899 12.101 1.376
      vertex 15.899 -1.801 0.174001
      vertex 15.899 -1.801 1.376
    endloop
  endfacet
  facet normal 0 -1 0
    outer loop
      vertex 15.899 -1.801 1.376
      vertex 17.9 -1.801 1.225
      vertex 17.9 -1.801 1.376
    endloop
  endfacet
  facet normal 0 -1 -0
    outer loop
      vertex 17.9 -1.801 1.225
      vertex 15.899 -1.801 0.174001
      vertex 21.7 -1.801 1.225
    endloop
  endfacet
  facet normal 0 -1 0
    outer loop
      vertex 15.899 -1.801 0.174001
      vertex 17.9 -1.801 1.225
      vertex 15.899 -1.801 1.376
    endloop
  endfacet
  facet normal 0 -1 0
    outer loop
      vertex 21.7 -1.801 1.225
      vertex 23.705 -1.801 1.376
      vertex 21.7 -1.801 1.376
    endloop
  endfacet
  facet normal 0 -1 0
    outer loop
      vertex 23.705 -1.801 0.174001
      vertex 21.7 -1.801 1.225
      vertex 15.899 -1.801 0.174001
    endloop
  endfacet
  facet normal 0 -1 0
    outer loop
      vertex 21.7 -1.801 1.225
      vertex 23.705 -1.801 0.174001
      vertex 23.705 -1.801 1.376
    endloop
  endfacet
  facet normal 0 1 0
    outer loop
      vertex 23.705 12.101 1.376
      vertex 21.7 12.101 1.225
      vertex 21.7 12.101 1.376
    endloop
  endfacet
  facet normal 0 1 0
    outer loop
      vertex 21.7 12.101 1.225
      vertex 23.705 12.101 0.174001
      vertex 17.9 12.101 1.225
    endloop
  endfacet
  facet normal 0 1 -0
    outer loop
      vertex 23.705 12.101 0.174001
      vertex 21.7 12.101 1.225
      vertex 23.705 12.101 1.376
    endloop
  endfacet
  facet normal 0 1 -0
    outer loop
      vertex 17.9 12.101 1.225
      vertex 15.899 12.101 1.376
      vertex 17.9 12.101 1.376
    endloop
  endfacet
  facet normal 0 1 0
    outer loop
      vertex 15.899 12.101 0.174001
      vertex 17.9 12.101 1.225
      vertex 23.705 12.101 0.174001
    endloop
  endfacet
  facet normal 0 1 0
    outer loop
      vertex 17.9 12.101 1.225
      vertex 15.899 12.101 0.174001
      vertex 15.899 12.101 1.376
    endloop
  endfacet
endsolid OpenSCAD_Model
